<?xml version="1.0" standalone="no"?>
<!DOCTYPE svg PUBLIC "-//W3C//DTD SVG 20010904//EN"
 "http://www.w3.org/TR/2001/REC-SVG-20010904/DTD/svg10.dtd">
<svg version="1.0" xmlns="http://www.w3.org/2000/svg"
 width="972.000000pt" height="256.000000pt" viewBox="0 0 972.000000 256.000000"
 preserveAspectRatio="xMidYMid meet">

<g transform="translate(0.000000,256.000000) scale(0.100000,-0.100000)"
fill="#000000" stroke="none">
<path d="M20 1300 c0 -827 -3 -1250 -10 -1250 -5 0 -10 -11 -10 -25 l0 -25
4860 0 4860 0 0 1275 0 1275 -4850 0 -4850 0 0 -1250z m6504 1214 c3 -9 6 -62
6 -119 0 -74 -4 -106 -13 -114 -12 -9 -14 11 -13 119 1 123 6 151 20 114z
m-1609 -23 c-2 -5 6 -12 19 -15 24 -6 44 -2 81 15 11 5 83 8 160 7 l140 -3
-40 -19 c-22 -10 -44 -25 -48 -32 -5 -8 -13 -11 -19 -8 -7 4 -8 2 -4 -5 4 -6
12 -8 18 -5 7 5 9 0 6 -14 -4 -15 -2 -22 9 -22 8 0 17 9 20 20 3 13 12 20 22
17 17 -3 17 -6 7 -50 -7 -27 -6 -28 29 -21 20 3 35 2 35 -3 0 -11 14 -13 91
-12 39 0 60 -5 69 -16 10 -12 10 -15 -1 -15 -11 0 -11 -2 1 -10 13 -9 13 -12
-2 -21 -18 -10 -25 -39 -10 -39 18 1 33 20 65 84 20 38 38 63 42 57 3 -6 -3
-26 -14 -45 -12 -18 -21 -36 -21 -40 0 -12 20 -6 20 7 0 6 9 23 20 37 11 14
20 33 20 43 0 9 5 17 10 17 14 0 12 -17 -6 -53 -44 -85 -44 -88 1 -46 19 19
35 39 35 46 0 7 5 13 10 13 16 0 12 -30 -5 -36 -8 -4 -15 -11 -15 -16 0 -5 -8
-17 -18 -26 -10 -10 -12 -13 -5 -8 8 5 16 6 20 3 3 -4 12 1 19 11 12 15 13 13
14 -16 0 -19 4 -31 10 -27 5 3 12 -6 16 -20 3 -14 14 -29 23 -33 23 -11 87 1
83 16 -2 11 3 13 26 11 4 0 6 -7 4 -15 -2 -8 1 -14 5 -14 15 -1 238 -9 263 -9
14 -1 45 0 70 1 41 3 45 1 44 -19 -1 -13 2 -20 7 -18 4 3 6 17 3 31 -4 23 -2
25 35 23 30 -2 38 -6 33 -18 -3 -9 -1 -12 5 -8 6 4 14 1 16 -5 3 -7 6 -2 6 11
1 24 1 24 17 5 14 -17 14 -11 7 76 -14 176 -9 228 25 237 12 3 26 3 29 -1 3
-3 8 -36 10 -73 3 -49 1 -64 -6 -53 -6 8 -11 26 -11 40 0 14 -7 34 -15 44 -13
17 -15 18 -21 2 -9 -23 6 -326 16 -326 5 0 12 5 16 12 5 7 10 4 16 -11 4 -13
17 -25 28 -28 23 -6 54 -58 45 -73 -9 -14 -40 -12 -79 4 -24 10 -37 11 -45 3
-11 -11 -103 -13 -151 -2 -23 5 -30 3 -30 -9 0 -9 10 -15 28 -15 15 -1 36 -2
47 -2 11 -1 35 -7 53 -16 18 -8 45 -15 60 -16 18 -2 31 -11 39 -28 35 -73 128
-83 173 -19 25 34 27 59 5 40 -13 -11 -13 -8 0 24 9 20 13 47 9 60 -10 41 54
144 72 115 4 -7 3 -9 -3 -6 -11 7 -22 -18 -29 -68 -2 -20 -1 -25 5 -16 6 9 11
10 15 2 5 -8 14 -7 29 3 12 8 39 17 60 20 20 4 37 11 37 16 0 5 7 7 15 4 8 -4
17 1 21 10 3 9 12 16 20 16 8 0 14 5 14 11 0 6 6 9 14 6 7 -3 21 4 30 15 14
16 27 19 64 16 36 -2 46 0 44 11 -4 18 20 34 29 19 4 -6 14 -8 24 -5 9 4 14
11 10 16 -11 19 31 31 76 22 31 -6 36 -9 17 -10 -15 -1 -30 -5 -33 -11 -6 -10
30 -14 88 -10 21 1 27 -3 27 -19 0 -17 -6 -21 -32 -21 -18 0 -53 -5 -77 -11
-32 -7 -46 -7 -51 2 -12 18 -130 1 -136 -20 -3 -9 -9 -23 -14 -32 -6 -12 -2
-15 24 -14 17 1 49 7 70 13 22 6 43 9 48 6 4 -3 11 1 14 9 4 13 47 23 129 32
17 1 25 -18 25 -67 0 -44 -12 -69 -24 -50 -3 5 -22 9 -43 8 -36 -1 -38 -2 -40
-38 -2 -35 -1 -37 37 -43 35 -6 40 -10 40 -33 0 -20 -3 -23 -12 -14 -17 17
-25 15 -23 -7 1 -21 22 -44 48 -54 16 -6 17 -54 17 -822 0 -782 -1 -817 -19
-853 -24 -47 -56 -77 -103 -97 -32 -13 -101 -15 -457 -15 l-419 0 -7 38 c-4
20 -12 43 -17 50 -17 20 -15 229 2 285 18 60 40 59 58 -3 19 -65 24 -72 77
-108 53 -36 65 -37 80 -3 9 21 15 23 66 18 31 -3 70 -12 87 -21 50 -26 105
-21 141 13 32 30 38 45 21 56 -5 3 -10 15 -10 26 0 21 -22 49 -38 49 -5 0 -13
21 -17 46 -5 34 -16 55 -40 80 -19 19 -38 34 -42 34 -18 1 -85 103 -85 128 0
15 -11 44 -25 64 -14 21 -27 52 -29 69 -5 39 -11 49 -28 43 -8 -3 -16 -2 -19
3 -3 5 17 17 44 26 76 27 159 118 159 174 0 13 -2 13 -16 2 -15 -12 -16 -11
-10 7 4 14 -3 32 -24 60 -16 21 -30 43 -30 48 0 6 -9 19 -19 30 -11 12 -32 44
-48 72 -45 82 -96 153 -105 148 -4 -3 -8 2 -8 10 0 32 22 71 65 113 25 24 54
61 64 82 11 20 41 61 66 89 26 29 45 55 42 58 -3 3 -22 -2 -42 -10 -21 -9 -58
-16 -82 -16 -39 0 -50 5 -79 37 -19 20 -35 35 -37 32 -1 -2 -9 -16 -17 -31 -7
-16 -18 -28 -23 -28 -6 0 -19 -8 -29 -17 -36 -33 -48 -25 -48 30 -1 47 -5 56
-38 90 l-38 37 -28 -29 c-23 -24 -30 -42 -35 -93 -4 -35 -10 -69 -15 -76 -11
-18 -75 56 -76 86 0 21 -33 61 -51 62 -11 0 -29 -50 -29 -80 0 -34 -34 -96
-61 -111 -16 -8 -19 -6 -19 17 l0 27 -25 -23 c-16 -15 -23 -30 -19 -42 4 -14
0 -18 -18 -17 -21 0 -21 1 -4 8 14 5 16 10 8 15 -18 11 -38 -6 -39 -31 -1 -39
-3 -42 -23 -53 -16 -8 -28 -7 -51 4 -27 13 -30 13 -25 1 3 -9 0 -15 -9 -15 -8
0 -15 -5 -15 -12 0 -6 -3 -8 -7 -4 -11 10 -43 99 -38 104 2 2 16 -5 31 -17 15
-11 38 -21 51 -21 20 0 23 4 18 20 -4 13 -2 20 7 20 7 0 19 4 26 9 11 6 9 14
-11 33 -19 19 -30 22 -51 17 -33 -9 -58 13 -54 50 4 36 59 42 94 10 l24 -22 0
26 c0 46 -100 94 -168 81 -27 -5 -118 -84 -98 -84 5 0 3 -7 -4 -15 -10 -12 -9
-15 8 -15 20 0 20 0 -1 -42 -24 -50 -29 -68 -16 -68 5 0 9 -16 9 -35 0 -20 7
-46 15 -58 14 -21 13 -28 -11 -74 -20 -38 -31 -50 -48 -49 -49 2 -43 -111 10
-189 20 -30 23 -40 12 -46 -7 -5 -19 -7 -25 -4 -7 2 -13 0 -13 -5 0 -9 -47
-60 -55 -60 -10 0 -45 -41 -45 -52 0 -10 -2 -10 -8 -1 -8 12 -49 -35 -95 -107
-16 -25 -15 -26 18 -53 19 -15 39 -27 45 -27 6 0 30 13 53 29 23 15 56 35 72
44 17 8 55 38 85 65 61 54 73 54 98 -1 6 -15 20 -30 29 -34 29 -10 53 -41 47
-58 -4 -9 1 -24 9 -33 12 -13 19 -55 27 -148 12 -148 33 -272 54 -312 13 -25
45 -58 104 -106 12 -11 32 -20 44 -21 17 -1 27 -15 43 -61 12 -32 24 -66 28
-74 23 -59 35 -125 25 -143 -9 -18 -21 -19 -316 -15 -169 3 -314 6 -322 9 -22
6 -39 24 -50 53 -5 14 -14 26 -20 26 -15 0 -12 -16 5 -30 8 -7 15 -20 15 -28
0 -13 -3 -12 -14 3 -11 15 -17 17 -28 7 -8 -6 -18 -9 -21 -5 -4 3 -7 -1 -7
-10 0 -14 -63 -16 -697 -16 -487 0 -701 3 -710 11 -9 8 -17 7 -30 -3 -13 -12
-141 -13 -762 -11 -410 2 -747 5 -749 7 -2 2 15 9 37 15 23 6 39 15 36 21 -4
5 -12 6 -18 3 -7 -4 1 7 17 24 l28 30 -27 -2 c-25 -3 -26 -2 -20 30 l6 34
-490 0 c-322 0 -499 4 -518 11 -70 26 -113 95 -113 182 0 65 35 125 90 156 37
21 47 21 646 21 520 0 613 -2 638 -15 25 -13 27 -13 22 1 -3 9 -2 12 4 9 6 -4
9 -12 8 -19 -4 -17 39 -69 47 -56 3 5 -2 13 -11 17 -31 12 16 21 53 11 24 -7
38 -5 56 7 21 14 25 13 45 -5 29 -28 62 -26 63 3 0 12 3 17 5 11 7 -16 66 -4
60 12 -8 20 37 43 49 25 6 -11 109 0 116 12 4 5 11 7 17 3 5 -3 12 1 16 9 3 8
15 15 26 15 13 0 20 7 20 20 0 16 7 20 38 20 37 0 38 1 39 36 1 21 8 40 19 48
13 10 14 15 4 21 -8 5 -11 4 -7 -1 3 -5 -3 -10 -12 -10 -15 0 -16 4 -8 17 6 9
17 15 24 12 8 -3 13 2 14 13 0 11 3 14 6 7 2 -7 13 -13 23 -13 10 0 21 -4 24
-8 3 -5 -9 -7 -27 -5 -18 2 -25 0 -17 -3 8 -3 22 -8 30 -11 27 -10 100 -12
106 -2 3 5 10 6 16 3 7 -4 8 -2 4 5 -4 6 -12 9 -17 6 -5 -4 -7 4 -5 17 2 13 9
22 15 20 6 -1 11 3 11 9 0 6 -9 8 -20 4 -13 -4 -20 -2 -18 5 2 7 -3 15 -11 18
-8 2 -11 0 -8 -6 4 -5 -1 -16 -10 -23 -13 -11 -17 -11 -20 -1 -3 6 -9 10 -14
6 -15 -9 -50 6 -43 18 5 7 2 8 -6 3 -9 -5 -10 -2 -6 11 3 11 1 26 -5 34 -8 11
-9 4 -7 -27 3 -36 1 -43 -14 -43 -16 0 -18 10 -18 76 0 65 2 75 17 72 9 -2 27
-23 39 -48 l23 -45 1 47 c0 26 5 50 10 53 10 6 14 -29 11 -98 -2 -27 1 -37 9
-32 7 4 10 16 7 26 -3 11 -1 19 3 19 5 0 11 18 15 40 4 22 11 40 16 40 5 0 9
5 9 11 0 5 -4 8 -9 5 -5 -3 -11 1 -14 9 -4 8 2 16 14 20 10 4 19 10 19 15 0
13 61 -15 71 -32 6 -10 2 -14 -17 -14 -13 0 -24 6 -24 13 0 7 -7 13 -15 13 -8
0 -15 -5 -15 -11 0 -15 26 -39 34 -32 3 4 6 1 6 -4 0 -6 -6 -14 -12 -16 -9 -4
-10 -8 -2 -14 6 -4 13 -15 16 -23 3 -8 8 2 12 23 4 22 13 37 21 37 8 0 15 -5
15 -11 0 -5 5 -7 11 -4 6 4 8 13 6 19 -3 7 -1 32 4 57 6 24 10 50 11 57 1 6
12 12 25 12 16 0 23 6 23 20 0 15 7 20 25 20 20 0 25 5 25 25 0 14 -4 25 -10
25 -5 0 -10 5 -10 10 0 6 6 10 13 10 7 0 20 6 28 13 8 6 12 11 10 10 -2 -2
-16 10 -30 26 -48 54 -51 58 -51 84 -1 6 -9 -5 -19 -25 -25 -50 -36 -60 -101
-88 -76 -32 -235 -35 -295 -5 -65 33 -71 58 -39 173 24 85 33 103 73 143 52
53 88 67 181 72 90 5 156 -8 202 -38 36 -24 39 -30 37 -65 -4 -48 4 -58 27
-35 17 16 18 16 31 -1 13 -18 15 -18 24 -1 6 9 15 17 20 17 6 0 7 -5 4 -10 -3
-6 1 -13 10 -17 10 -3 20 -1 24 5 4 6 21 12 39 14 18 1 32 8 32 14 0 12 -50
12 -70 -1 -5 -3 -11 -1 -15 5 -3 5 -1 10 4 10 6 0 11 6 11 14 0 8 14 15 35 18
25 3 34 0 31 -8 -5 -12 42 -30 52 -19 3 3 0 5 -7 5 -19 0 -2 20 25 30 13 5 24
15 24 21 0 6 -7 8 -16 5 -10 -4 -13 -2 -8 6 5 7 -1 9 -19 6 -21 -4 -27 -1 -29
16 -2 12 -10 20 -19 20 -14 -1 -15 4 -9 26 10 36 -12 70 -45 70 -13 0 -30 6
-37 13 -9 9 -36 12 -88 10 -148 -7 -270 -20 -284 -32 -15 -12 -186 -9 -207 4
-6 4 -19 -1 -31 -12 -17 -15 -41 -18 -169 -21 -107 -3 -161 0 -196 10 -42 13
-51 13 -62 0 -12 -12 -12 -16 0 -23 11 -7 10 -9 -3 -9 -10 0 -18 8 -19 18 0
13 -3 11 -10 -6 -5 -13 -13 -20 -19 -17 -5 3 -10 1 -10 -4 0 -17 -47 -13 -64
5 -9 8 -16 13 -16 10 0 -3 -12 -1 -27 5 -16 6 -48 10 -73 9 -97 -3 -148 -7
-158 -14 -6 -3 -13 -2 -17 3 -4 7 -15 7 -32 0 -14 -5 -26 -8 -27 -7 -1 2 -8
12 -16 22 -12 16 -12 18 -1 11 11 -6 13 -2 9 18 -4 18 -1 24 8 20 9 -3 12 -14
7 -31 -5 -21 -3 -24 11 -19 10 4 21 7 26 7 4 0 6 20 5 45 -2 33 1 45 11 45 8
0 14 -8 15 -17 0 -10 4 -6 9 10 5 15 7 40 5 55 -2 16 1 35 6 43 7 11 9 10 9
-5 0 -11 3 -16 7 -12 13 12 32 89 26 99 -4 6 -1 7 7 2 10 -6 12 -3 8 13 -4 12
-2 25 3 28 5 3 14 24 20 47 l10 42 172 -3 c94 -1 173 -5 176 -7 2 -3 -1 -23
-8 -45 l-12 -40 -54 0 c-32 0 -55 -4 -55 -11 0 -5 -4 -7 -10 -4 -5 3 -10 2
-10 -4 0 -6 -8 -8 -17 -5 -13 4 -15 3 -5 -4 7 -5 24 -7 38 -4 13 2 36 -4 51
-14 16 -10 41 -17 56 -16 18 2 26 -1 22 -8 -4 -6 -13 -9 -21 -6 -7 3 -16 1
-19 -4 -4 -6 1 -10 9 -10 9 0 16 -4 16 -10 0 -5 -7 -6 -17 -3 -11 4 -14 3 -9
-5 4 -8 -3 -16 -18 -22 -14 -5 -26 -14 -26 -19 0 -5 -7 -8 -16 -7 -9 0 -19 -5
-22 -13 -3 -8 0 -11 7 -7 15 10 14 -7 -1 -24 -11 -12 -10 -12 4 -1 15 11 20
10 34 -4 14 -14 15 -21 5 -36 -7 -13 -8 -26 -2 -36 7 -14 10 -13 17 8 4 13 7
34 5 46 -1 12 6 31 16 42 15 18 29 21 90 21 71 0 73 -1 73 -24 0 -29 20 -37
74 -30 46 5 56 11 56 29 0 16 -9 19 -101 35 -75 13 -128 41 -130 67 -5 78 31
152 83 174 46 19 262 16 311 -5 44 -18 67 -39 67 -60 0 -23 13 -26 62 -13 39
10 52 20 82 64 24 34 31 53 23 56 -7 3 -5 6 5 6 9 1 29 6 45 12 21 8 24 12 14
19 -10 5 5 11 43 15 31 4 59 12 62 17 3 5 11 5 17 1 21 -15 63 -14 77 1 7 9
21 16 32 16 15 0 18 3 10 13 -14 18 -9 53 12 76 11 12 15 25 10 33 -5 7 -7 20
-6 29 2 9 -4 21 -12 28 -12 10 -11 15 7 36 l22 23 578 1 c323 0 575 -3 572 -8z
m1555 -41 c-3 -27 -10 -53 -15 -57 -8 -9 1 82 11 98 10 16 10 10 4 -41z m190
18 c0 -18 -14 -77 -32 -132 -36 -112 -36 -112 -43 -104 -3 3 8 47 25 99 23 69
30 102 25 131 -6 31 -4 38 9 38 11 0 16 -9 16 -32z m-1000 -122 c0 -2 -8 -10
-17 -17 -16 -13 -17 -12 -4 4 13 16 21 21 21 13z m806 -53 c-4 -63 -21 -80
-22 -23 0 29 15 80 24 80 1 0 1 -26 -2 -57z m314 -7 c0 -7 -6 -20 -14 -31 -12
-17 -13 -17 -20 9 -4 15 -4 31 -1 36 8 12 35 1 35 -14z m195 -145 c3 -5 1 -12
-5 -16 -5 -3 -10 1 -10 9 0 18 6 21 15 7z m-6069 -12 c64 -16 98 -59 90 -113
-4 -22 -8 -41 -9 -42 -1 -1 -39 -5 -85 -9 l-83 -8 3 39 c3 42 -11 52 -58 40
-29 -8 -40 -28 -63 -119 -20 -77 -17 -87 27 -87 21 0 64 33 73 57 5 13 169 26
169 13 0 -21 -43 -87 -76 -116 -61 -56 -239 -71 -328 -29 -52 25 -64 63 -43
144 27 104 65 169 114 197 23 13 57 27 75 33 46 13 141 13 194 0z m1059 -1 c3
-3 -3 -24 -14 -46 -16 -32 -25 -39 -41 -35 -11 3 -27 0 -35 -7 -8 -6 -19 -9
-24 -6 -5 4 -12 2 -15 -2 -7 -11 -56 -3 -56 9 0 22 -27 6 -37 -21 l-11 -30 41
-2 c23 -1 61 -2 85 -2 47 -1 48 -2 28 -51 l-15 -35 -79 0 -78 0 -17 -35 -17
-35 100 0 c58 0 100 -4 100 -10 0 -5 -7 -25 -16 -43 l-16 -34 -157 -7 c-86 -4
-166 -3 -178 1 -21 8 -21 8 9 103 17 52 39 127 49 165 19 69 38 115 51 125 10
7 335 6 343 -2z m418 5 c2 -4 -2 -28 -10 -53 -13 -42 -17 -45 -51 -46 -20 0
-61 -4 -89 -8 -40 -6 -53 -4 -53 5 0 18 -16 -1 -25 -28 -6 -23 -5 -23 74 -23
74 0 81 -2 81 -20 0 -11 5 -20 10 -20 14 0 13 -27 -2 -36 -8 -5 -9 -2 -5 9 9
25 2 21 -18 -9 -14 -22 -15 -28 -4 -36 10 -7 8 -8 -6 -2 -11 4 -52 9 -92 12
-81 4 -77 8 -88 -83 -2 -22 -11 -45 -19 -51 -9 -6 -12 -14 -8 -19 4 -4 -9 -4
-28 0 -19 5 -60 9 -90 10 -41 2 -54 6 -51 16 2 8 6 25 8 39 3 14 8 34 13 45
13 29 66 192 81 247 l13 47 81 3 c44 2 123 5 176 6 53 2 99 0 102 -5z m-1139
-50 c-8 -27 -17 -61 -21 -77 -6 -28 -5 -29 27 -23 18 4 47 7 66 7 32 0 33 2
55 70 l23 70 78 0 c54 0 78 -4 78 -12 0 -13 -35 -135 -82 -280 -21 -68 -36
-99 -49 -103 -25 -8 -149 -3 -149 6 0 4 9 36 20 71 11 34 20 65 20 68 0 8
-105 10 -117 2 -5 -4 -19 -36 -30 -72 l-20 -65 -82 -3 c-63 -2 -81 0 -81 11 0
7 14 56 30 108 17 52 35 112 41 134 5 22 14 49 19 60 5 11 14 32 20 48 9 26
11 27 89 27 l80 0 -15 -47z m5993 -150 c-2 -16 -4 -5 -4 22 0 28 2 40 4 28 2
-13 2 -35 0 -50z m-4917 -58 c0 -8 -2 -15 -4 -15 -2 0 -6 7 -10 15 -3 8 -1 15
4 15 6 0 10 -7 10 -15z m-60 -25 c0 -5 8 -7 18 -3 14 5 15 3 5 -8 -10 -9 -16
-10 -24 -2 -6 6 -19 9 -28 6 -14 -4 -14 -3 -1 6 19 13 30 14 30 1z m-137 -100
c-15 -37 -33 -54 -33 -30 0 6 4 10 8 10 4 0 13 14 19 30 6 17 14 30 16 30 3 0
-2 -18 -10 -40z m3592 20 c8 -13 -25 -13 -45 0 -12 8 -9 10 12 10 15 0 30 -4
33 -10z m-3560 -24 c0 -15 -4 -21 -9 -16 -5 5 -6 16 -3 24 9 22 12 20 12 -8z
m5760 -31 c24 -23 25 -31 25 -135 l0 -110 -29 0 c-17 0 -32 4 -35 9 -4 5 -19
3 -35 -5 -58 -29 -111 8 -111 77 0 50 44 89 101 89 42 0 46 6 26 34 -11 15
-17 17 -35 7 -12 -6 -22 -16 -22 -21 0 -11 -30 -13 -53 -4 -9 3 -13 13 -10 25
16 60 131 82 178 34z m125 8 c0 -15 1 -15 18 0 25 23 78 21 101 -2 19 -19 20
-19 37 0 23 25 78 25 103 0 24 -24 33 -82 29 -176 l-3 -70 -37 -3 -37 -3 -3
98 c-3 97 -3 98 -28 98 -25 0 -25 -1 -28 -97 l-3 -98 -39 0 -40 0 0 99 c0 78
-3 100 -15 105 -32 12 -45 -22 -45 -115 l0 -89 -34 0 c-23 0 -36 6 -40 17 -8
19 -6 221 1 240 8 20 63 16 63 -4z m495 -8 c24 -23 25 -31 25 -135 l0 -110
-30 0 c-21 0 -30 5 -30 17 0 14 -2 15 -17 1 -28 -24 -50 -28 -83 -17 -35 13
-50 35 -50 78 0 47 37 82 93 88 47 6 58 18 35 41 -17 17 -24 15 -47 -9 -22
-24 -64 -22 -69 3 -2 10 8 29 22 43 36 36 116 36 151 0z m243 -4 c3 -16 -13
-47 -47 -97 -28 -40 -51 -75 -51 -78 0 -3 23 -6 50 -6 49 0 50 -1 50 -30 l0
-31 -97 3 c-91 3 -98 4 -101 24 -2 13 18 53 52 103 l55 81 -49 0 c-49 0 -50 1
-50 30 l0 31 93 -3 c88 -3 92 -4 95 -27z m196 4 c33 -30 46 -64 46 -119 0
-125 -147 -177 -210 -74 -36 60 -20 166 31 202 36 25 101 21 133 -9z m138 14
c3 -9 9 -9 25 0 38 20 80 13 102 -15 18 -23 21 -41 21 -135 l0 -109 -35 0 -35
0 0 89 c0 68 -4 93 -16 105 -8 9 -17 16 -19 16 -2 0 -11 -7 -19 -16 -12 -12
-16 -37 -16 -105 l0 -89 -35 0 -35 0 0 135 0 135 29 0 c16 0 31 -5 33 -11z
m-6972 -29 c0 -5 -4 -10 -10 -10 -5 0 -7 -7 -4 -15 5 -11 22 -15 65 -15 l58 0
-3 -47 -2 -48 -79 -5 -78 -5 -34 -110 c-19 -60 -38 -118 -43 -127 -6 -10 -10
-27 -10 -38 0 -19 -6 -20 -90 -20 -65 0 -90 3 -90 13 0 6 18 68 40 137 22 69
40 133 40 143 0 14 -10 17 -60 17 -33 0 -60 3 -60 6 0 4 5 24 12 45 l11 39
136 1 c134 1 183 7 182 22 -2 21 0 27 9 27 6 0 10 -4 10 -10z m3692 -112 c5
-73 4 -76 -14 -67 -14 8 -17 16 -11 37 5 15 8 48 8 74 0 73 12 42 17 -44z
m-4218 72 c61 -6 94 -15 108 -27 32 -29 39 -49 26 -77 -9 -21 -18 -26 -45 -26
-19 0 -42 -4 -52 -9 -10 -6 -28 -7 -40 -4 -18 5 -21 11 -17 30 5 19 1 25 -19
33 -37 14 -58 13 -49 -2 6 -10 5 -10 -8 -1 -12 11 -18 9 -34 -8 -18 -20 -18
-21 1 -35 10 -8 28 -14 40 -14 40 0 159 -39 172 -56 7 -10 13 -32 13 -48 0
-39 -45 -128 -73 -146 -30 -18 -245 -26 -318 -11 -72 15 -104 46 -90 84 9 23
8 27 -8 27 -10 0 -18 7 -18 15 0 18 14 20 20 3 3 -10 7 -10 19 0 22 18 171 14
164 -5 -9 -22 24 -43 68 -43 52 0 78 22 55 45 -14 14 -137 37 -151 28 -5 -2
-8 -1 -8 4 0 10 -50 34 -59 29 -11 -7 -11 68 0 110 7 26 23 50 46 69 57 45
104 51 257 35z m-990 -15 c34 -26 17 -122 -30 -166 -22 -21 -37 -24 -110 -28
-46 -1 -84 0 -84 4 0 9 52 188 57 198 8 13 147 7 167 -8z m246 3 c0 -25 -16
-35 -58 -36 -47 -2 -62 -8 -62 -23 0 -5 18 -9 41 -9 33 0 40 -3 37 -17 -2 -13
-16 -19 -48 -23 -32 -4 -46 -10 -48 -22 -3 -15 4 -18 48 -18 43 0 51 -3 46
-16 -3 -9 -6 -20 -6 -25 0 -5 -41 -9 -91 -9 -81 0 -90 2 -85 18 2 9 16 56 31
105 l26 87 84 0 c61 0 85 -3 85 -12z m414 -4 c4 -9 2 -22 -4 -29 -6 -7 -9 -19
-8 -26 6 -26 -44 -40 -124 -34 l-78 6 0 -25 c0 -26 1 -26 75 -26 83 0 87 -4
61 -65 -12 -29 -14 -30 -88 -31 -85 -2 -98 -6 -98 -35 0 -17 8 -19 96 -19 106
0 105 1 67 -72 l-14 -28 -179 0 c-162 0 -179 2 -182 18 -2 9 5 31 15 49 10 18
16 37 13 42 -4 5 -3 12 2 15 5 3 28 66 53 140 l44 136 171 0 c150 0 173 -2
178 -16z m1304 -186 l2 -198 -80 0 -80 0 0 35 c0 28 -4 35 -19 35 -11 0 -21
-5 -23 -12 -3 -9 -13 -8 -38 4 -39 19 -54 14 -78 -27 -17 -28 -21 -29 -105
-31 -48 -2 -87 0 -87 2 0 3 14 25 30 49 17 24 30 46 30 50 0 3 17 29 38 58 22
29 46 66 56 82 9 17 25 44 36 60 11 17 26 42 35 57 18 32 38 36 180 34 l100
-1 3 -197z m512 189 c14 -7 31 -25 39 -41 12 -26 11 -39 -14 -125 -37 -128
-61 -170 -111 -196 -38 -20 -58 -22 -214 -24 l-173 -1 7 31 c3 17 29 107 57
200 l52 169 166 0 c114 0 174 -4 191 -13z m2600 -18 c0 -6 -6 -17 -14 -24 -18
-19 -40 1 -23 21 14 16 37 18 37 3z m-1895 -19 c3 -5 1 -10 -4 -10 -6 0 -11 5
-11 10 0 6 2 10 4 10 3 0 8 -4 11 -10z m1907 -48 c4 -16 -2 -19 -38 -21 -41
-2 -57 10 -34 24 6 3 10 1 10 -5 0 -7 10 -5 28 4 15 8 28 15 28 16 1 0 4 -8 6
-18z m-142 -48 c0 4 11 -6 25 -22 15 -18 25 -41 24 -58 -1 -28 -1 -28 -13 7
-6 19 -25 48 -42 65 -16 16 -22 23 -12 15 10 -8 18 -11 18 -7z m161 -1 c-8
-15 -10 -15 -11 -2 0 17 10 32 18 25 2 -3 -1 -13 -7 -23z m129 -71 c0 -10 -16
-36 -36 -58 l-36 -39 6 34 c3 18 6 42 6 51 0 13 6 17 19 13 10 -3 22 0 25 6
10 16 16 13 16 -7z m2564 -28 c9 -8 16 -22 16 -29 0 -18 -27 -45 -45 -45 -16
0 -45 27 -45 42 0 16 31 48 46 48 7 0 20 -7 28 -16z m-2954 -119 c0 -11 -14 7
-31 40 -7 13 -3 12 10 -5 11 -14 21 -29 21 -35z m2507 20 c5 -14 7 -14 23 0
28 25 88 16 113 -16 39 -53 34 -172 -8 -215 -29 -28 -80 -32 -107 -7 -17 15
-18 14 -18 -40 l0 -57 -35 0 -35 0 0 175 0 175 30 0 c18 0 33 -6 37 -15z m261
-1 c8 -14 10 -14 21 0 8 9 29 16 47 16 29 0 34 -4 34 -22 0 -37 -15 -51 -43
-44 -39 9 -50 -15 -55 -115 l-4 -89 -34 0 -34 0 0 135 0 135 30 0 c16 0 33 -7
38 -16z m192 -119 l0 -135 -35 0 -35 0 0 135 0 135 35 0 35 0 0 -135z m108
119 c8 -14 10 -14 21 0 19 22 74 20 95 -3 17 -19 18 -19 37 0 29 29 83 25 108
-7 18 -23 21 -41 21 -135 l0 -109 -35 0 -35 0 0 94 c0 67 -4 97 -14 105 -17
14 -46 4 -47 -18 -1 -9 -2 -20 -4 -26 -1 -5 -3 -43 -3 -82 l-2 -73 -35 0 -35
0 0 94 c0 71 -4 97 -15 106 -30 25 -44 -5 -47 -103 l-3 -92 -37 -3 -38 -3 0
135 0 136 30 0 c16 0 33 -7 38 -16z m491 0 c28 -20 51 -72 51 -114 l0 -30 -75
0 c-74 0 -81 -3 -69 -34 8 -21 50 -21 62 0 11 20 66 15 70 -7 1 -8 -9 -28 -24
-42 -21 -22 -36 -27 -73 -27 -55 0 -88 20 -107 66 -41 98 11 204 100 204 23 0
52 -7 65 -16z m-3037 -136 c-7 -7 -12 -8 -12 -2 0 14 12 26 19 19 2 -3 -1 -11
-7 -17z m-48 -26 c-11 -9 -26 -30 -33 -47 l-13 -30 -20 25 -20 25 48 22 c59
27 66 28 38 5z m455 -177 c0 -5 -8 6 -19 25 -11 19 -19 40 -19 45 0 6 8 -6 19
-25 11 -19 19 -39 19 -45z m21 47 c0 -15 -2 -15 -10 -2 -13 20 -13 33 0 25 6
-3 10 -14 10 -23z m-5515 -2 c-3 -5 -2 -10 4 -10 5 0 13 4 16 10 3 5 25 8 48
6 23 -3 45 -5 50 -5 4 -1 7 -12 7 -26 0 -17 -4 -23 -14 -19 -11 4 -15 -2 -14
-23 1 -71 -2 -83 -22 -83 -18 0 -20 7 -20 54 l0 54 -51 -1 -50 -1 28 -14 c46
-24 55 -49 27 -76 -18 -19 -65 -21 -82 -4 -9 9 -12 9 -12 0 0 -7 -9 -12 -20
-12 -18 0 -20 7 -20 75 0 68 2 75 20 75 11 0 20 -5 20 -11 0 -5 5 -7 12 -3 6
4 25 11 42 15 17 4 32 7 34 8 2 1 0 -3 -3 -9z m895 -80 c0 -53 -4 -90 -10 -90
-6 0 -10 37 -10 90 0 53 4 90 10 90 6 0 10 -37 10 -90z m1292 10 c-3 -61 -7
-80 -18 -80 -11 0 -14 17 -14 74 0 63 3 75 18 79 9 3 17 5 17 6 0 1 -1 -35 -3
-79z m2955 58 c-3 -8 -6 -5 -6 6 -1 11 2 17 5 13 3 -3 4 -12 1 -19z m-5504
-40 c15 -48 19 -53 46 -54 17 -1 28 3 25 7 -3 5 -12 9 -19 9 -20 0 -37 36 -30
60 13 40 85 36 93 -5 3 -14 -1 -16 -28 -10 -23 5 -30 4 -26 -4 4 -6 13 -11 21
-11 8 0 22 -9 32 -19 10 -11 32 -23 48 -27 33 -7 29 2 -7 20 -14 7 -24 22 -26
39 -4 36 35 56 74 38 32 -14 26 -37 -10 -33 -34 4 -33 -4 4 -23 32 -16 40 -51
18 -73 -17 -17 -63 -15 -78 3 -11 14 -15 14 -29 1 -22 -20 -120 -20 -128 0 -7
19 -32 18 -39 -1 -6 -14 -44 -22 -44 -9 0 3 9 37 21 75 18 58 24 69 43 69 18
0 25 -10 39 -52z m572 -5 c28 -97 28 -93 5 -93 -11 0 -23 7 -26 15 -4 8 -13
15 -20 15 -8 0 -17 -7 -20 -15 -7 -16 -44 -21 -44 -6 0 5 9 39 20 75 18 57 24
66 44 66 20 0 26 -9 41 -57z m139 10 c12 -38 15 -42 15 -20 2 48 49 79 95 61
19 -7 21 -40 4 -47 -8 -3 -6 -6 5 -6 9 -1 17 5 17 13 0 18 38 46 62 46 10 0
27 -9 37 -19 19 -19 19 -19 24 0 6 21 40 25 82 9 25 -10 27 -13 21 -54 -10
-67 8 -63 28 5 16 51 22 60 40 57 16 -2 26 -18 43 -68 12 -36 22 -68 22 -72 2
-15 -40 -8 -45 7 -4 8 -13 15 -20 15 -8 0 -17 -7 -20 -15 -4 -10 -20 -15 -44
-15 -32 0 -39 4 -42 22 -5 32 -28 35 -28 4 0 -19 -5 -26 -20 -26 -14 0 -20 7
-20 22 l0 22 -16 -22 c-20 -30 -68 -30 -88 0 -16 22 -16 22 -16 1 0 -18 -6
-21 -42 -21 -23 -1 -48 4 -55 10 -9 7 -13 7 -13 -1 0 -17 -37 -13 -44 4 -3 8
-12 15 -20 15 -7 0 -16 -7 -20 -15 -3 -8 -15 -15 -26 -15 -17 0 -19 4 -13 28
4 15 7 35 7 45 0 9 3 17 7 17 4 0 10 14 14 30 5 23 12 30 30 30 20 0 27 -8 39
-47z m640 5 l25 -41 3 38 c2 21 9 40 16 43 9 3 12 -16 12 -72 0 -91 -15 -99
-51 -28 l-24 47 -3 -47 c-5 -77 -22 -55 -22 27 0 41 4 75 9 75 6 0 21 -19 35
-42z m158 25 c23 -21 24 -89 1 -115 -37 -41 -93 -7 -93 57 0 63 51 95 92 58z
m59 -35 l15 -53 18 53 c10 28 22 52 27 52 13 0 11 -17 -10 -85 -26 -84 -44
-83 -70 4 -25 81 -25 81 -8 81 7 0 19 -24 28 -52z m153 46 c24 -9 39 -66 26
-100 -13 -33 -26 -44 -57 -44 -28 0 -53 36 -53 75 0 56 37 87 84 69z m196 -69
c0 -60 -3 -75 -15 -75 -12 0 -15 14 -15 63 l0 64 -30 -5 c-35 -5 -40 -29 -7
-34 12 -2 22 -7 22 -13 0 -5 -10 -11 -22 -13 -18 -3 -23 -10 -23 -33 0 -19 -5
-29 -15 -29 -12 0 -15 15 -15 75 l0 75 60 0 60 0 0 -75z m40 15 l0 -60 30 0
c20 0 30 -5 30 -15 0 -11 -12 -15 -45 -15 l-45 0 0 75 c0 60 3 75 15 75 12 0
15 -13 15 -60z m109 23 l14 -37 19 37 c31 62 48 49 48 -38 0 -60 -3 -75 -15
-75 -11 0 -15 12 -15 43 l-1 42 -15 -27 c-8 -16 -17 -28 -19 -28 -3 0 -11 15
-19 33 l-14 32 -1 -47 c-1 -27 -5 -48 -11 -48 -6 0 -10 32 -10 75 0 85 17 101
39 38z m181 22 c0 -10 -10 -15 -30 -15 -20 0 -30 -5 -30 -15 0 -9 9 -15 25
-15 16 0 25 -6 25 -15 0 -9 -9 -15 -25 -15 -16 0 -25 -6 -25 -15 0 -10 10 -15
30 -15 20 0 30 -5 30 -15 0 -11 -12 -15 -45 -15 l-45 0 0 68 c0 38 3 72 7 75
3 4 24 7 45 7 27 0 38 -4 38 -15z m132 -2 c23 -21 24 -89 1 -115 -38 -42 -93
-9 -93 55 0 67 49 99 92 60z m115 5 c15 -20 13 -138 -3 -138 -7 0 -14 12 -16
27 -2 17 -10 29 -20 31 -14 3 -18 -3 -18 -27 0 -21 -5 -31 -15 -31 -12 0 -15
15 -15 75 l0 75 39 0 c21 0 43 -6 48 -12z m157 -3 c8 -8 17 -15 20 -15 3 0 6
7 6 15 0 8 7 15 15 15 12 0 15 -15 15 -75 0 -60 -3 -75 -15 -75 -11 0 -15 13
-15 53 0 53 0 53 -30 51 -16 -1 -29 1 -28 5 2 18 -4 22 -17 11 -18 -15 -20
-53 -4 -81 8 -16 13 -18 25 -8 18 15 18 29 -1 29 -8 0 -15 5 -15 10 0 6 14 10
30 10 28 0 30 -2 30 -38 0 -38 -1 -39 -39 -40 -51 -2 -71 18 -71 70 0 66 54
103 94 63z m2786 -25 c0 -5 -4 -10 -10 -10 -5 0 -10 5 -10 10 0 6 5 10 10 10
6 0 10 -4 10 -10z m2984 -16 c19 -18 20 -30 5 -75 -13 -38 -56 -89 -76 -89
-18 0 -17 10 8 64 11 25 17 51 13 57 -4 8 -27 9 -65 5 -50 -6 -59 -5 -59 9 0
38 142 62 174 29z m-860 -18 c175 -133 476 -160 713 -64 86 35 86 0 0 -58 -77
-53 -158 -76 -287 -81 -130 -6 -202 7 -305 56 -90 43 -187 134 -170 161 9 14
15 13 49 -14z m-2067 -12 c-3 -16 0 -28 8 -31 17 -6 27 -31 15 -38 -16 -10
-43 43 -36 70 8 33 20 32 13 -1z m-27 12 c0 -3 -4 -8 -10 -11 -5 -3 -10 -1
-10 4 0 6 5 11 10 11 6 0 10 -2 10 -4z m367 -43 c-3 -10 -5 -2 -5 17 0 19 2
27 5 18 2 -10 2 -26 0 -35z m-2961 -42 c-4 -5 0 -11 6 -14 7 -2 -1 -11 -19
-20 -37 -20 -43 -21 -43 -7 0 6 9 10 20 10 13 0 20 7 20 20 0 11 5 20 11 20 5
0 8 -4 5 -9z m-561 -211 c7 0 16 6 18 13 3 6 6 2 6 -11 1 -13 -3 -21 -8 -17
-5 3 -16 -2 -24 -10 -21 -21 -28 -19 -23 8 3 12 5 27 6 32 1 6 4 4 7 -2 2 -7
11 -13 18 -13z m60 -30 c3 -5 1 -10 -4 -10 -6 0 -11 5 -11 10 0 6 2 10 4 10 3
0 8 -4 11 -10z m-125 -10 c-19 -13 -30 -13 -30 0 0 6 10 10 23 10 18 0 19 -2
7 -10z"/>
<path d="M5070 2460 c0 -5 5 -10 10 -10 6 0 10 5 10 10 0 6 -4 10 -10 10 -5 0
-10 -4 -10 -10z"/>
<path d="M4624 2409 c-16 -5 -41 -20 -53 -33 -21 -22 -23 -32 -18 -76 4 -31 2
-48 -3 -45 -6 4 -6 -5 0 -21 6 -15 9 -28 8 -30 -2 -1 -25 2 -52 8 -44 9 -51 8
-63 -8 -7 -10 -21 -19 -31 -20 -57 -9 -82 -16 -89 -28 -10 -17 -59 -42 -102
-51 -30 -6 -178 -115 -209 -154 -7 -9 -11 -26 -9 -38 2 -13 0 -23 -4 -23 -5 0
-9 7 -9 16 0 8 -4 12 -10 9 -5 -3 -22 2 -37 11 l-28 16 23 -20 c29 -27 28 -32
-8 -32 -16 0 -30 -4 -30 -9 0 -4 12 -7 28 -5 l27 3 -24 -20 c-29 -24 -23 -33
13 -20 25 10 37 -1 16 -14 -6 -4 -8 -11 -4 -16 4 -6 13 -4 24 6 22 19 54 16
56 -5 1 -8 2 -21 3 -27 3 -29 21 -10 21 22 0 70 116 145 226 145 40 0 42 -1
48 -39 3 -21 13 -44 21 -51 23 -19 18 -46 -15 -84 -44 -50 -72 -120 -75 -190
-4 -93 -22 -152 -64 -214 -21 -32 -45 -71 -55 -89 -30 -59 -97 -258 -92 -276
7 -29 -41 -103 -79 -121 -51 -24 -46 -49 14 -75 59 -25 72 -26 64 -5 -4 11 -1
15 13 12 12 -2 20 4 22 17 2 11 12 29 23 40 10 12 22 35 25 53 4 18 10 32 14
32 17 0 123 153 155 226 66 144 115 223 140 224 22 1 56 40 51 57 -7 23 7 76
21 80 22 8 37 -70 37 -198 1 -105 11 -139 40 -139 10 0 53 61 48 68 -1 1 -2
24 -2 51 0 45 3 51 34 69 28 17 34 26 34 54 0 18 12 59 26 92 14 32 26 67 26
77 0 24 22 72 37 82 15 9 17 34 4 39 -19 6 34 103 84 154 52 54 86 74 140 81
17 2 57 8 90 14 33 5 83 14 110 18 43 8 162 35 203 47 6 2 12 8 12 15 0 6 -7
9 -15 5 -8 -3 -15 -2 -15 3 0 9 45 31 64 31 37 0 53 63 22 85 -8 6 -18 23 -21
38 -4 14 -14 32 -22 39 -14 11 -15 7 -8 -39 6 -47 5 -53 -22 -77 l-28 -26 -3
25 c-3 23 -7 26 -30 21 -15 -2 -54 -8 -87 -12 -33 -4 -62 -8 -65 -9 -114 -31
-215 -29 -275 5 -30 17 -58 22 -185 33 -14 1 -27 5 -30 9 -3 4 -20 8 -37 10
-28 2 -30 4 -20 25 11 25 23 30 29 12 2 -6 14 -8 31 -4 21 6 25 10 17 20 -8 9
-7 15 2 19 7 3 -8 3 -34 0 -44 -6 -47 -4 -62 24 -9 17 -16 33 -16 37 0 9 91 5
111 -5 11 -7 21 -26 25 -50 4 -22 10 -40 15 -40 5 0 6 -8 3 -17 -5 -15 -4 -15
4 -3 5 8 9 48 8 89 -1 64 -4 75 -21 81 -11 4 -23 6 -27 4 -4 -3 -9 0 -13 6 -7
12 -68 12 -111 -1z m-10 -76 c-5 -10 -8 -39 -9 -65 0 -47 -18 -72 -29 -42 -7
18 4 73 15 80 5 3 9 14 9 25 0 10 5 19 11 19 7 0 8 -6 3 -17z m-27 -155 c-3
-8 -6 -5 -6 6 -1 11 2 17 5 13 3 -3 4 -12 1 -19z m133 -10 c0 -11 -12 -10 -30
2 -13 9 -13 11 0 19 14 9 29 -2 30 -21z m40 -3 c0 -13 -7 -28 -15 -35 -9 -7
-13 -15 -11 -18 3 -2 -1 -17 -9 -33 -8 -15 -15 -39 -15 -53 0 -14 -4 -27 -10
-31 -6 -3 -5 -15 2 -31 9 -18 9 -27 0 -36 -9 -9 -12 -6 -12 15 0 15 -4 27 -9
27 -5 0 -11 7 -14 14 -4 10 -1 13 9 9 19 -7 18 7 -2 36 -14 20 -15 25 -3 32 8
4 23 15 34 24 l20 16 -20 -5 c-11 -3 -27 -1 -35 4 -12 8 -11 10 7 10 40 0 53
11 53 44 0 22 5 33 15 33 9 0 15 -9 15 -22z m-160 -37 c21 -32 21 -32 1 -9
-18 20 -21 21 -21 5 0 -9 7 -25 16 -35 15 -17 15 -18 -4 -16 -22 1 -37 44 -26
72 8 20 10 20 34 -17z m105 2 c3 -5 2 -10 -4 -10 -5 0 -13 5 -16 10 -3 6 -2
10 4 10 5 0 13 -4 16 -10z m-163 -202 c-7 -7 -13 -21 -13 -32 -1 -17 -2 -17
-6 -4 -5 19 15 63 25 54 3 -4 0 -12 -6 -18z m-15 -90 c-3 -7 -5 -2 -5 12 0 14
2 19 5 13 2 -7 2 -19 0 -25z m123 -84 c0 -9 -5 -14 -12 -12 -18 6 -21 28 -4
28 9 0 16 -7 16 -16z m-33 -46 c-3 -7 -5 -2 -5 12 0 14 2 19 5 13 2 -7 2 -19
0 -25z m3 -60 c0 -10 -4 -18 -10 -18 -5 0 -10 15 -10 33 0 24 3 28 10 17 5 -8
10 -23 10 -32z m-290 -372 c0 -2 -8 -10 -17 -17 -16 -13 -17 -12 -4 4 13 16
21 21 21 13z"/>
<path d="M5446 2298 c3 -5 10 -6 15 -3 13 9 11 12 -6 12 -8 0 -12 -4 -9 -9z"/>
<path d="M5647 2228 c-15 -17 -26 -33 -23 -35 6 -6 57 48 54 57 -2 4 -15 -6
-31 -22z"/>
<path d="M5567 2207 c-11 -29 -9 -53 4 -40 6 6 9 21 7 34 -3 21 -4 22 -11 6z"/>
<path d="M6278 2173 c7 -3 16 -2 19 1 4 3 -2 6 -13 5 -11 0 -14 -3 -6 -6z"/>
<path d="M5755 2160 c-3 -5 1 -10 10 -10 9 0 13 5 10 10 -3 6 -8 10 -10 10 -2
0 -7 -4 -10 -10z"/>
<path d="M5520 2135 c-16 -19 -7 -30 14 -18 9 5 12 13 7 21 -6 10 -11 10 -21
-3z"/>
<path d="M3001 2057 c-50 -25 -33 -49 43 -61 21 -4 51 -9 65 -11 25 -5 26 -5
4 6 -14 7 -23 21 -23 35 0 39 -45 54 -89 31z"/>
<path d="M7075 2039 c-12 -19 5 -23 22 -6 16 16 16 17 1 17 -9 0 -20 -5 -23
-11z"/>
<path d="M2571 2013 c-1 -16 5 -23 17 -23 10 0 13 3 6 8 -6 4 -14 14 -17 22
-4 10 -6 8 -6 -7z"/>
<path d="M3348 1963 c7 -3 16 -2 19 1 4 3 -2 6 -13 5 -11 0 -14 -3 -6 -6z"/>
<path d="M3206 1947 c3 -10 9 -15 12 -12 3 3 0 11 -7 18 -10 9 -11 8 -5 -6z"/>
<path d="M7144 1943 c-14 -5 -6 -43 8 -43 6 0 8 6 5 14 -3 8 -1 16 6 19 6 2 7
6 2 9 -6 3 -15 3 -21 1z"/>
<path d="M3615 1870 c3 -5 23 -10 43 -9 33 1 34 2 12 9 -36 12 -62 12 -55 0z"/>
<path d="M3795 1840 c-3 -5 1 -10 10 -10 9 0 13 5 10 10 -3 6 -8 10 -10 10 -2
0 -7 -4 -10 -10z"/>
<path d="M3768 1808 c6 -6 18 -8 28 -6 14 3 12 5 -9 10 -19 3 -25 2 -19 -4z"/>
<path d="M3850 1790 c0 -5 5 -10 10 -10 6 0 10 5 10 10 0 6 -4 10 -10 10 -5 0
-10 -4 -10 -10z"/>
<path d="M5795 1780 c-3 -5 -1 -10 4 -10 6 0 11 5 11 10 0 6 -2 10 -4 10 -3 0
-8 -4 -11 -10z"/>
<path d="M3855 1760 c3 -5 8 -10 11 -10 2 0 4 5 4 10 0 6 -5 10 -11 10 -5 0
-7 -4 -4 -10z"/>
<path d="M3900 1680 c-12 -7 -12 -10 3 -16 21 -8 29 -3 19 13 -5 8 -13 9 -22
3z"/>
<path d="M3370 1547 c-18 -9 -32 -31 -49 -83 -31 -89 -26 -106 31 -102 47 3
56 16 94 126 16 46 17 54 4 62 -21 13 -50 12 -80 -3z"/>
<path d="M4469 1078 c-8 -69 -7 -79 14 -90 12 -7 29 -11 37 -10 13 2 13 1 1
-7 -10 -6 -22 -4 -37 5 -20 14 -23 13 -29 -5 -7 -23 2 -44 15 -36 5 3 21 -6
37 -20 20 -18 22 -23 9 -18 -13 4 -17 3 -12 -5 9 -15 86 -55 93 -49 4 5 -29
128 -49 180 -6 15 -23 36 -38 47 -33 23 -39 25 -41 8z"/>
<path d="M4374 984 c3 -9 6 -18 6 -20 0 -2 7 -4 15 -4 13 0 14 4 5 20 -13 24
-35 27 -26 4z"/>
<path d="M5085 927 c-21 -15 -26 -16 -16 -4 8 10 9 17 3 17 -6 0 -14 -5 -17
-10 -4 -6 -11 -7 -17 -4 -15 10 -92 -34 -130 -74 -29 -31 -30 -34 -11 -29 19
4 21 2 13 -13 -24 -45 2 -40 30 6 12 19 25 33 27 30 3 -3 -2 -17 -11 -30 -19
-29 -20 -36 -6 -36 5 0 21 18 36 39 31 47 60 46 50 0 -7 -37 11 -38 20 -1 9
38 21 50 57 58 52 11 61 23 36 51 -27 28 -27 28 -64 0z"/>
<path d="M3476 932 c-2 -4 -1 -14 5 -22 7 -12 9 -10 9 8 0 23 -5 28 -14 14z"/>
<path d="M4660 918 c0 -7 64 -101 104 -152 16 -20 27 -39 24 -41 -3 -3 -40 13
-84 35 -43 22 -80 35 -82 30 -2 -6 -11 -10 -20 -10 -27 -1 27 -38 65 -46 17
-3 40 -12 50 -20 10 -8 35 -27 57 -44 21 -16 43 -30 48 -30 16 0 97 -73 92
-82 -3 -5 0 -15 6 -23 29 -35 -77 23 -113 62 -23 25 -51 44 -70 48 -18 4 -45
19 -62 34 -41 37 -117 96 -135 105 -43 22 157 -144 256 -212 17 -11 16 -11 -4
-2 -30 14 -45 4 -32 -21 15 -26 91 -81 106 -75 6 2 33 -18 59 -44 27 -27 61
-54 77 -61 25 -10 32 -9 53 11 l23 22 59 -29 c32 -17 110 -57 173 -90 63 -34
131 -64 150 -67 34 -7 34 -6 -10 14 -34 16 -41 23 -30 30 10 6 28 1 57 -15
l42 -23 -15 23 c-20 31 -76 73 -136 103 -26 13 -48 27 -48 32 0 10 -48 57 -52
51 -2 -2 -21 5 -43 16 -22 11 -46 18 -54 15 -9 -3 -11 0 -6 8 6 10 4 12 -7 7
-17 -6 -61 20 -54 32 3 3 -4 7 -15 7 -27 0 -24 -10 12 -40 17 -14 29 -31 27
-38 -3 -7 -17 2 -34 21 -16 18 -56 47 -89 64 -33 16 -55 32 -48 34 7 2 21 -1
32 -7 12 -6 21 -7 21 -2 0 15 -64 70 -100 85 -49 22 -91 56 -68 57 9 0 20 -4
23 -10 3 -5 11 -10 16 -10 6 0 -17 33 -50 73 -61 74 -171 186 -171 175z m490
-508 c0 -5 -2 -10 -4 -10 -3 0 -8 5 -11 10 -3 6 -1 10 4 10 6 0 11 -4 11 -10z
m55 -16 l16 -25 -25 16 c-14 10 -23 21 -20 26 8 13 10 12 29 -17z m160 -112
c-3 -3 -11 0 -18 7 -9 10 -8 11 6 5 10 -3 15 -9 12 -12z"/>
<path d="M3435 900 c3 -5 8 -10 11 -10 2 0 4 5 4 10 0 6 -5 10 -11 10 -5 0 -7
-4 -4 -10z"/>
<path d="M4445 861 c16 -18 50 -41 74 -52 55 -24 60 -24 27 2 -14 11 -26 26
-26 34 0 14 -27 29 -47 26 -7 -1 -23 3 -35 10 -19 10 -18 6 7 -20z"/>
<path d="M3305 800 c3 -5 8 -10 11 -10 2 0 4 5 4 10 0 6 -5 10 -11 10 -5 0 -7
-4 -4 -10z"/>
<path d="M3280 730 c0 -11 7 -20 15 -20 13 0 14 4 5 20 -6 11 -13 20 -15 20
-3 0 -5 -9 -5 -20z"/>
<path d="M3638 653 c7 -3 16 -2 19 1 4 3 -2 6 -13 5 -11 0 -14 -3 -6 -6z"/>
<path d="M1335 609 c-74 -21 -123 -109 -110 -197 8 -55 62 -117 113 -132 23
-6 224 -10 518 -10 l481 0 22 24 c13 14 40 26 64 30 l42 7 -25 15 c-25 15 -25
15 -2 10 17 -3 32 4 53 25 31 32 31 49 -1 49 -13 0 -17 -5 -13 -19 6 -25 -12
-35 -30 -16 -17 16 -37 20 -37 7 0 -5 -20 -9 -45 -10 -34 0 -48 4 -55 18 -12
22 11 35 29 17 8 -8 11 1 11 36 0 40 3 47 20 47 17 0 19 -5 15 -32 -8 -42 7
-27 20 20 l11 37 59 0 c33 1 71 4 84 9 13 5 21 4 18 -1 -3 -5 3 -9 14 -9 19 0
19 1 4 12 -10 8 -14 18 -9 25 4 7 3 10 -3 6 -6 -4 -13 0 -16 7 -3 8 -23 20
-44 25 -47 13 -1144 13 -1188 0z m173 -115 c8 -14 10 -14 15 -1 6 17 84 22
103 6 8 -7 14 -7 18 0 9 13 137 12 154 -1 8 -7 12 -7 12 0 0 5 18 10 39 10 32
1 40 -3 46 -21 l6 -22 11 22 c9 19 18 21 84 21 58 0 76 -4 84 -16 9 -16 9 -15
10 1 0 15 12 17 100 17 82 0 100 -3 100 -15 0 -9 -10 -15 -22 -16 -17 -1 -19
-2 -5 -6 21 -5 23 -33 2 -33 -8 0 -15 -4 -15 -10 0 -5 9 -10 20 -10 11 0 20
-7 20 -16 0 -12 -9 -14 -37 -12 -37 3 -38 4 -41 46 -2 28 -8 42 -18 42 -10 0
-14 -12 -14 -45 0 -33 -4 -45 -15 -45 -11 0 -15 12 -15 45 0 33 -4 45 -15 45
-11 0 -15 -12 -15 -45 0 -50 -19 -61 -38 -22 l-11 22 0 -23 c-1 -22 -4 -23
-71 -21 -53 1 -73 6 -80 18 -5 9 -10 12 -10 7 0 -5 -7 -3 -15 4 -12 10 -15 9
-15 -7 0 -18 -7 -20 -49 -20 -42 0 -50 3 -56 21 l-6 21 -9 -21 c-7 -19 -16
-22 -61 -20 -48 1 -54 4 -59 26 l-6 24 -24 -24 c-31 -31 -65 -35 -83 -10 -13
18 -13 18 -24 0 -9 -14 -23 -18 -60 -16 l-48 1 -3 44 c-5 65 0 71 57 71 36 0
53 -5 59 -16z"/>
<path d="M1450 479 c-16 -4 -19 -7 -7 -8 21 -1 23 -31 2 -31 -8 0 -15 -4 -15
-10 0 -16 50 -11 57 6 10 28 -9 51 -37 43z"/>
<path d="M1544 464 c-4 -14 -2 -30 5 -37 8 -8 11 -1 11 26 0 43 -7 48 -16 11z"/>
<path d="M1601 464 c0 -11 3 -14 6 -6 3 7 2 16 -1 19 -3 4 -6 -2 -5 -13z"/>
<path d="M1693 473 c21 -5 23 -33 2 -33 -8 0 -15 -4 -15 -10 0 -5 9 -10 20
-10 16 0 20 7 20 30 0 25 -4 30 -22 29 -17 -1 -19 -2 -5 -6z"/>
<path d="M1760 470 c0 -5 5 -10 10 -10 6 0 10 5 10 10 0 6 -4 10 -10 10 -5 0
-10 -4 -10 -10z"/>
<path d="M2008 473 c27 -5 29 -33 2 -33 -11 0 -20 -4 -20 -10 0 -5 11 -10 25
-10 21 0 25 5 25 30 0 26 -3 30 -27 29 -24 -2 -25 -2 -5 -6z"/>
<path d="M1801 444 c0 -11 3 -14 6 -6 3 7 2 16 -1 19 -3 4 -6 -2 -5 -13z"/>
<path d="M4385 580 c3 -5 10 -10 16 -10 5 0 9 5 9 10 0 6 -7 10 -16 10 -8 0
-12 -4 -9 -10z"/>
<path d="M2770 566 c0 -2 7 -6 15 -10 8 -3 15 -1 15 4 0 6 -7 10 -15 10 -8 0
-15 -2 -15 -4z"/>
<path d="M2457 508 c2 -13 5 -31 5 -40 -1 -10 3 -20 7 -22 4 -3 6 12 5 32 -2
50 -3 52 -13 52 -6 0 -7 -10 -4 -22z"/>
<path d="M3610 464 c0 -8 5 -12 10 -9 6 4 8 11 5 16 -9 14 -15 11 -15 -7z"/>
<path d="M6870 466 c0 -8 -6 -16 -12 -19 -7 -3 -4 -5 8 -4 15 1 20 6 16 19 -5
22 -12 24 -12 4z"/>
<path d="M6937 463 c3 -7 6 -13 8 -13 2 0 5 6 8 13 3 8 -1 14 -8 14 -7 0 -11
-6 -8 -14z"/>
<path d="M6979 459 c-26 -20 -49 -25 -49 -10 0 5 -9 11 -19 14 -14 3 -18 1
-14 -9 3 -8 -5 -18 -18 -24 -19 -8 -13 -10 31 -7 30 3 47 2 37 0 -19 -5 -19
-31 -1 -125 5 -25 3 -28 -19 -28 -16 0 -27 7 -30 18 -4 16 -5 16 -6 0 0 -10
-8 -18 -16 -18 -8 0 -15 -5 -15 -10 0 -6 16 -8 40 -4 31 5 40 4 38 -7 -4 -19
27 -23 45 -5 8 8 17 12 20 9 4 -3 5 4 2 16 -2 11 0 21 6 21 8 0 13 -15 10 -33
-1 -5 8 -5 20 -2 12 4 24 2 28 -3 4 -7 12 -8 21 -2 13 8 12 10 -3 10 -16 0
-16 2 -1 25 16 25 12 85 -7 85 -13 0 -11 -16 4 -41 10 -17 10 -23 0 -26 -7 -3
-13 -11 -13 -19 0 -8 -9 -14 -20 -14 -13 0 -18 5 -14 15 4 10 0 15 -15 15 -24
0 -26 12 -9 75 10 37 16 45 35 45 13 0 23 5 23 11 0 6 -6 9 -12 6 -47 -17 -54
-17 -55 2 -1 11 6 21 15 23 15 3 15 4 1 10 -8 3 -26 -3 -40 -13z m11 -13 c0
-2 -7 -7 -16 -10 -8 -3 -12 -2 -9 4 6 10 25 14 25 6z m0 -101 c0 -64 -2 -75
-17 -76 -11 0 -13 -3 -5 -6 16 -6 5 -23 -16 -23 -10 0 -13 3 -7 8 15 10 15 23
5 88 -10 60 -2 84 26 84 11 0 14 -18 14 -75z"/>
<path d="M2966 456 c7 -19 58 -22 52 -3 -3 6 -17 13 -31 15 -21 3 -26 0 -21
-12z"/>
<path d="M7040 461 c0 -5 -8 -12 -17 -14 -14 -4 -12 -5 5 -6 13 -1 22 5 22 14
0 8 -2 15 -5 15 -3 0 -5 -4 -5 -9z"/>
<path d="M2530 409 c-10 -17 -9 -20 2 -17 7 3 21 1 31 -4 16 -8 18 -6 15 14
-4 30 -34 35 -48 7z"/>
<path d="M3740 414 c0 -8 5 -12 10 -9 6 3 10 10 10 16 0 5 -4 9 -10 9 -5 0
-10 -7 -10 -16z"/>
<path d="M4642 418 c2 -6 10 -14 16 -16 7 -2 10 2 6 12 -7 18 -28 22 -22 4z"/>
<path d="M2670 404 c0 -8 5 -12 10 -9 6 3 10 10 10 16 0 5 -4 9 -10 9 -5 0
-10 -7 -10 -16z"/>
<path d="M3922 409 c2 -7 10 -15 17 -17 8 -3 12 1 9 9 -2 7 -10 15 -17 17 -8
3 -12 -1 -9 -9z"/>
<path d="M7077 413 c-10 -9 -9 -33 1 -33 4 0 8 9 9 20 2 21 0 24 -10 13z"/>
<path d="M2635 401 c-3 -5 -1 -12 5 -16 5 -3 10 1 10 9 0 18 -6 21 -15 7z"/>
<path d="M6845 401 c-3 -6 -4 -14 -2 -18 3 -5 1 -32 -3 -61 -3 -29 -3 -55 0
-57 8 -5 23 135 16 142 -2 2 -7 0 -11 -6z"/>
<path d="M3535 369 c-10 -15 3 -25 16 -12 7 7 7 13 1 17 -6 3 -14 1 -17 -5z"/>
<path d="M3063 343 c-18 -6 -16 -23 1 -23 17 0 30 16 19 23 -5 2 -14 2 -20 0z"/>
<path d="M2597 333 c-4 -3 -7 -11 -7 -17 0 -6 5 -5 12 2 6 6 9 14 7 17 -3 3
-9 2 -12 -2z"/>
<path d="M2627 313 c-4 -3 -7 -16 -6 -27 0 -19 1 -19 10 3 10 24 8 36 -4 24z"/>
<path d="M3732 298 c2 -12 11 -24 21 -26 14 -3 18 1 15 20 -2 12 -11 24 -21
26 -14 3 -18 -1 -15 -20z"/>
<path d="M6840 235 c0 -8 4 -15 8 -15 5 0 9 7 9 15 0 8 -4 15 -9 15 -4 0 -8
-7 -8 -15z"/>
<path d="M6888 243 c-10 -2 -18 -9 -18 -14 0 -13 13 -11 36 6 19 14 14 17 -18
8z"/>
<path d="M7050 241 c0 -7 -4 -9 -10 -6 -5 3 -10 2 -10 -3 0 -17 39 -20 57 -5
10 8 12 12 5 8 -7 -4 -19 -1 -27 5 -11 10 -15 10 -15 1z"/>
<path d="M3850 216 c0 -7 7 -19 15 -26 12 -10 16 -9 21 3 3 9 3 21 -1 27 -9
15 -35 12 -35 -4z"/>
<path d="M3525 210 c3 -5 8 -10 11 -10 2 0 4 5 4 10 0 6 -5 10 -11 10 -5 0 -7
-4 -4 -10z"/>
<path d="M4835 189 c-12 -19 5 -23 22 -6 16 16 16 17 1 17 -9 0 -20 -5 -23
-11z"/>
<path d="M5220 167 c0 -8 6 -14 14 -14 8 0 12 6 9 14 -3 7 -9 13 -14 13 -5 0
-9 -6 -9 -13z"/>
<path d="M5320 156 c0 -2 7 -9 15 -16 13 -11 14 -10 9 4 -5 14 -24 23 -24 12z"/>
<path d="M5599 158 c-8 -28 -7 -49 3 -46 14 5 22 48 8 48 -6 0 -10 -1 -11 -2z"/>
<path d="M4495 130 c-3 -5 -1 -10 4 -10 6 0 11 5 11 10 0 6 -2 10 -4 10 -3 0
-8 -4 -11 -10z"/>
<path d="M7815 1580 c-19 -21 -15 -47 10 -57 21 -8 33 5 41 45 6 27 4 32 -13
32 -11 0 -28 -9 -38 -20z"/>
<path d="M8436 1578 c-11 -15 -12 -26 -5 -40 20 -37 59 -9 59 41 0 28 -34 28
-54 -1z"/>
<path d="M8870 1644 c-18 -53 1 -114 35 -114 19 0 26 7 34 36 5 19 8 41 6 47
-2 7 -6 24 -9 40 -5 20 -12 27 -30 27 -19 0 -27 -8 -36 -36z"/>
<path d="M507 1588 c-3 -13 -10 -38 -15 -55 -10 -32 -10 -33 18 -33 33 0 45
16 55 73 7 36 6 37 -23 37 -23 0 -31 -5 -35 -22z"/>
<path d="M2388 1480 c-21 -30 -38 -57 -38 -60 0 -12 72 3 76 15 3 7 4 32 2 56
l-3 44 -37 -55z"/>
<path d="M2871 1533 c-28 -112 -39 -150 -46 -167 -7 -16 -4 -17 29 -13 50 7
74 31 92 94 8 29 20 55 25 58 31 19 -9 65 -56 65 -31 0 -35 -3 -44 -37z"/>
<path d="M7990 1234 c-16 -47 1 -114 28 -114 30 0 42 22 42 75 0 28 -5 56 -12
63 -23 23 -46 13 -58 -24z"/>
<path d="M8936 1255 c-11 -30 -6 -35 30 -35 31 0 35 3 32 23 -4 28 -52 37 -62
12z"/>
<path d="M822 934 c1 -13 11 -20 30 -21 18 -1 26 2 22 8 -3 6 -9 8 -12 5 -3
-3 -13 1 -23 10 -17 15 -18 15 -17 -2z"/>
<path d="M1071 944 c0 -11 3 -14 6 -6 3 7 2 16 -1 19 -3 4 -6 -2 -5 -13z"/>
<path d="M1314 956 c-7 -30 1 -46 24 -45 11 0 12 3 5 6 -16 6 -17 43 -2 43 5
0 7 5 4 10 -11 17 -24 11 -31 -14z"/>
<path d="M1434 966 c-9 -23 0 -51 16 -51 10 0 15 10 15 29 0 32 -21 47 -31 22z"/>
<path d="M1550 970 c0 -5 7 -10 15 -10 8 0 15 5 15 10 0 6 -7 10 -15 10 -8 0
-15 -4 -15 -10z"/>
<path d="M1211 944 c0 -11 3 -14 6 -6 3 7 2 16 -1 19 -3 4 -6 -2 -5 -13z"/>
<path d="M1681 944 c0 -11 3 -14 6 -6 3 7 2 16 -1 19 -3 4 -6 -2 -5 -13z"/>
<path d="M2003 993 c-20 -8 -17 -89 4 -97 25 -10 35 7 31 54 -3 43 -11 53 -35
43z"/>
<path d="M2222 988 c-17 -17 -15 -73 4 -89 31 -26 57 38 34 82 -12 22 -21 24
-38 7z"/>
<path d="M2873 993 c-16 -6 -17 -75 -1 -91 19 -19 38 5 38 48 0 37 -13 51 -37
43z"/>
<path d="M2980 969 c0 -14 5 -19 17 -17 26 5 29 38 4 38 -15 0 -21 -6 -21 -21z"/>
</g>
</svg>
