<?xml version="1.0" standalone="no"?>
<!DOCTYPE svg PUBLIC "-//W3C//DTD SVG 20010904//EN"
 "http://www.w3.org/TR/2001/REC-SVG-20010904/DTD/svg10.dtd">
<svg version="1.0" xmlns="http://www.w3.org/2000/svg"
 width="959.000000pt" height="224.000000pt" viewBox="0 0 959.000000 224.000000"
 preserveAspectRatio="xMidYMid meet">

<g transform="translate(0.000000,224.000000) scale(0.100000,-0.100000)"
fill="#000000" stroke="none">
<path d="M7066 2213 c12 -24 14 -184 14 -1070 l0 -1042 -22 -25 -23 -25 -3490
-3 c-1920 -2 -3502 0 -3517 5 -26 7 -28 5 -28 -23 l0 -30 4795 0 4795 0 0
1120 0 1120 -1269 0 -1270 0 15 -27z m1490 -233 c43 -11 112 -36 153 -56 124
-61 260 -214 296 -331 5 -19 3 -23 -17 -23 -19 0 -29 13 -53 68 -22 49 -49 87
-105 143 -82 82 -137 118 -245 156 -94 34 -288 43 -385 19 -90 -22 -215 -86
-278 -142 -71 -63 -77 -50 -7 15 87 78 223 146 335 164 75 13 231 6 306 -13z
m-791 -320 c188 -48 324 -184 294 -295 -20 -71 -126 -124 -227 -112 -35 4 -49
1 -58 -11 -10 -14 -14 -14 -28 -3 -9 7 -16 19 -16 26 0 8 -15 23 -34 35 -48
29 -97 87 -89 105 7 19 46 40 89 49 29 7 32 11 38 57 8 61 27 61 40 1 7 -34
13 -42 31 -42 39 0 123 -30 129 -46 9 -23 -1 -51 -20 -58 -22 -8 -40 4 -23 15
23 14 -5 31 -60 37 l-51 5 0 -61 c0 -45 4 -61 16 -66 45 -17 151 5 189 40 29
27 34 78 10 123 -24 48 -102 108 -181 141 -109 45 -271 60 -257 24 6 -16 -5
-18 -27 -4 -12 7 -12 12 4 29 32 36 119 40 231 11z m442 -42 c39 -32 -23 -109
-91 -113 -18 -1 -38 -5 -44 -9 -14 -8 -35 58 -27 84 7 22 50 55 80 62 22 5 62
-7 82 -24z m817 -110 c3 -13 6 -35 6 -50 0 -27 2 -28 51 -28 47 0 50 -2 47
-22 -3 -20 -10 -23 -50 -26 l-47 -3 -7 -50 c-5 -40 -10 -49 -27 -49 -18 0 -19
5 -15 50 l5 50 -48 0 c-46 0 -49 2 -49 25 0 23 4 25 45 25 l45 0 0 50 c0 42 3
50 19 50 11 0 21 -9 25 -22z m-544 -40 c34 -56 23 -168 -16 -168 -8 0 -27 20
-42 45 -15 24 -30 45 -34 45 -5 0 -8 -22 -8 -50 0 -37 -4 -50 -14 -50 -21 0
-29 34 -21 90 8 55 26 87 44 76 7 -5 26 -29 42 -54 l31 -47 -5 40 c-3 22 -9
55 -12 73 -5 21 -4 32 4 32 6 0 20 -15 31 -32z m-152 -2 c13 -13 -16 -24 -80
-31 -79 -7 -76 -18 7 -29 72 -9 98 -53 55 -96 -28 -28 -98 -27 -134 1 -35 27
-33 47 7 64 l32 14 -33 1 c-62 0 -50 60 15 78 35 10 120 8 131 -2z m336 -2
c23 -22 11 -34 -35 -34 -28 0 -39 -4 -39 -15 0 -9 9 -15 25 -15 42 0 31 -28
-12 -32 -24 -2 -39 -9 -41 -18 -2 -12 7 -14 43 -12 36 3 45 1 45 -12 0 -22
-55 -48 -93 -44 -31 3 -32 4 -35 56 -2 43 1 57 15 68 17 13 17 15 -1 29 -11 8
-16 18 -12 22 6 6 51 15 113 22 6 0 19 -6 27 -15z m57 -43 c-31 -59 -26 -61
23 -7 46 50 78 58 99 25 27 -43 -36 -149 -88 -149 -28 0 -39 -18 -60 -96 -18
-69 -23 -75 -41 -50 -19 26 -18 56 5 120 10 30 16 65 14 80 -7 37 3 70 34 107
34 40 41 24 14 -30z m-593 -49 c5 -81 -6 -108 -31 -83 -13 13 -13 152 -1 172
14 24 27 -13 32 -89z m-282 -348 c-3 -9 -6 -18 -6 -20 0 -2 -7 -4 -15 -4 -18
0 -19 12 -3 28 17 17 31 15 24 -4z m284 2 c0 -21 -21 -31 -30 -15 -5 7 -6 17
-4 21 9 14 34 9 34 -6z m600 5 c0 -13 -29 -35 -37 -28 -7 8 15 37 28 37 5 0 9
-4 9 -9z m-990 -65 c0 -75 -14 -96 -65 -96 -24 0 -39 7 -49 22 -21 30 -20 38
4 38 11 0 20 -7 20 -16 0 -11 8 -14 28 -12 26 3 27 6 30 66 2 46 7 62 17 62
12 0 15 -15 15 -64z m330 -15 l0 -78 -45 -1 c-52 -1 -75 16 -75 58 0 39 26 63
62 58 24 -4 28 -1 28 19 0 14 6 23 15 23 12 0 15 -15 15 -79z m960 -1 c0 -64
-3 -80 -15 -80 -12 0 -15 16 -15 80 0 64 3 80 15 80 12 0 15 -16 15 -80z
m-1162 -21 l3 -56 -50 -1 c-43 -1 -51 1 -57 20 -7 24 17 48 47 48 10 0 20 4
24 9 9 16 -13 22 -34 9 -23 -14 -36 -6 -27 17 4 12 17 15 48 13 l43 -3 3 -56z
m262 1 c0 -47 -3 -60 -15 -60 -12 0 -15 13 -15 60 0 47 3 60 15 60 12 0 15
-13 15 -60z m110 45 c18 -21 3 -32 -22 -16 -14 8 -24 9 -31 2 -6 -6 1 -13 24
-18 29 -8 34 -14 34 -39 0 -27 -3 -29 -43 -32 -31 -2 -44 1 -48 13 -9 23 4 31
28 16 14 -9 24 -9 31 -2 7 7 5 12 -6 16 -9 3 -24 7 -32 10 -22 7 -29 33 -15
50 16 19 64 19 80 0z m145 -12 c5 -13 12 -23 15 -23 3 0 10 10 15 23 8 17 18
22 50 22 32 0 42 -5 55 -27 13 -25 13 -31 0 -55 -13 -23 -23 -28 -55 -28 -32
0 -42 5 -50 23 -5 12 -12 22 -15 22 -3 0 -10 -10 -15 -22 -7 -16 -20 -24 -42
-26 -25 -2 -33 -8 -33 -23 0 -12 -7 -19 -20 -19 -18 0 -20 7 -20 80 l0 79 53
-2 c43 -2 54 -6 62 -24z m262 15 c7 -6 13 -32 13 -59 0 -42 -3 -49 -20 -49
-17 0 -20 7 -20 45 0 38 -3 45 -20 45 -17 0 -20 -7 -20 -45 0 -38 -3 -45 -20
-45 -18 0 -20 7 -20 59 l0 59 47 0 c27 0 54 -4 60 -10z m73 -48 c0 -53 -2 -60
-20 -60 -18 0 -20 7 -20 60 0 53 2 60 20 60 18 0 20 -7 20 -60z m51 33 c5 -16
12 -35 15 -43 4 -10 11 0 21 28 10 29 20 42 33 42 18 0 18 -3 -3 -60 -18 -48
-26 -60 -44 -60 -17 0 -26 11 -42 55 -25 67 -25 65 -6 65 9 0 20 -12 26 -27z
m193 11 c9 -8 16 -24 16 -35 0 -16 -7 -19 -41 -19 -28 0 -39 -4 -36 -12 4 -14
16 -14 56 -2 21 6 22 5 12 -15 -16 -30 -74 -29 -95 1 -9 12 -16 29 -16 38 0
50 69 79 104 44z m-72 -234 c50 -14 105 -79 113 -135 8 -47 -12 -104 -48 -144
-47 -51 -47 -51 -619 -51 -330 0 -547 4 -570 10 -49 14 -104 76 -113 128 -13
80 38 170 111 192 42 12 1080 12 1126 0z"/>
<path d="M7655 1413 c-50 -12 -35 -47 38 -84 l37 -19 0 55 c0 54 -1 55 -27 54
-16 -1 -37 -3 -48 -6z"/>
<path d="M8075 1580 c-10 -11 -13 -20 -7 -20 6 0 16 9 22 20 6 11 9 20 7 20
-2 0 -12 -9 -22 -20z"/>
<path d="M8136 1579 c-33 -26 -33 -39 -1 -39 25 0 65 31 65 50 0 17 -36 11
-64 -11z"/>
<path d="M8250 1368 c31 -9 32 -11 16 -20 -13 -7 -29 -7 -52 0 -32 10 -44 7
-44 -10 0 -12 75 -10 104 4 34 15 16 38 -28 37 l-31 -1 35 -10z"/>
<path d="M8783 1390 c-13 -15 -26 -36 -29 -45 -6 -16 -5 -16 23 -1 30 15 43
34 43 62 0 21 -13 16 -37 -16z"/>
<path d="M7987 946 c-10 -26 4 -47 27 -44 15 2 21 10 21 28 0 29 -38 41 -48
16z"/>
<path d="M7800 905 c0 -8 4 -15 9 -15 5 0 14 7 21 15 10 13 9 15 -9 15 -12 0
-21 -6 -21 -15z"/>
<path d="M8310 930 c0 -27 3 -31 23 -28 16 2 22 10 22 28 0 18 -6 26 -22 28
-20 3 -23 -1 -23 -28z"/>
<path d="M8440 930 c0 -25 4 -30 25 -30 21 0 25 5 25 30 0 25 -4 30 -25 30
-21 0 -25 -5 -25 -30z"/>
<path d="M8907 963 c-14 -13 -6 -23 19 -23 22 0 25 2 14 15 -14 16 -23 19 -33
8z"/>
<path d="M8123 623 c-3 -10 -12 -33 -19 -50 -9 -24 -10 -34 -1 -40 6 -3 13 -1
15 5 5 15 52 16 52 2 0 -5 6 -10 14 -10 12 0 12 8 -3 53 -19 54 -46 73 -58 40z
m31 -38 c3 -9 0 -15 -9 -15 -9 0 -12 6 -9 15 4 8 7 15 9 15 2 0 5 -7 9 -15z"/>
<path d="M8360 630 c0 -5 5 -10 10 -10 6 0 10 5 10 10 0 6 -4 10 -10 10 -5 0
-10 -4 -10 -10z"/>
<path d="M8205 601 c-8 -15 2 -30 29 -42 18 -8 17 -9 -7 -4 -21 4 -28 2 -25
-7 3 -7 18 -13 34 -13 27 0 29 3 29 35 0 30 -3 35 -27 38 -14 2 -29 -2 -33 -7z"/>
<path d="M8287 603 c-13 -13 -7 -30 16 -42 l22 -11 -24 6 c-17 4 -22 2 -19 -7
5 -17 47 -24 59 -12 5 5 6 24 3 41 -5 24 -12 32 -29 32 -12 0 -25 -3 -28 -7z"/>
<path d="M8360 570 c0 -22 4 -40 9 -40 12 0 18 28 13 58 -7 37 -22 25 -22 -18z"/>
<path d="M8398 598 c-6 -18 3 -68 13 -68 5 0 9 14 9 30 0 20 5 30 15 30 10 0
15 -10 15 -30 0 -16 5 -30 10 -30 6 0 10 18 10 40 0 39 -1 40 -34 40 -19 0
-36 -5 -38 -12z"/>
<path d="M8490 591 c-16 -32 4 -63 38 -59 24 3 27 7 27 38 0 31 -3 35 -27 38
-19 2 -30 -3 -38 -17z m47 -7 c-3 -3 -12 -4 -19 -1 -8 3 -5 6 6 6 11 1 17 -2
13 -5z m0 -30 c-3 -3 -12 -4 -19 -1 -8 3 -5 6 6 6 11 1 17 -2 13 -5z"/>
<path d="M20 2210 c-20 -20 -20 -31 -18 -483 3 -454 3 -462 23 -463 45 -2 63
-15 79 -58 19 -50 48 -68 83 -52 12 6 23 14 23 19 0 4 5 7 11 7 6 0 17 7 25
15 14 13 13 15 -8 16 -18 1 -19 2 -5 6 11 3 28 -6 44 -23 21 -23 24 -31 14
-47 -10 -15 -10 -18 1 -11 9 6 9 3 -1 -10 -49 -60 -185 -80 -253 -38 l-38 24
0 -27 c0 -21 8 -29 38 -42 65 -28 122 -28 189 -1 52 21 60 22 56 8 -5 -18 21
-50 41 -50 8 0 11 17 10 53 -2 58 17 93 51 92 16 0 22 -10 30 -50 24 -116 81
-171 200 -196 80 -16 143 -5 202 34 68 46 98 104 97 188 0 37 -8 86 -18 112
-19 51 -79 111 -133 133 -52 22 -143 19 -199 -5 -34 -16 -50 -18 -55 -10 -11
18 -29 1 -29 -28 0 -28 -46 -133 -58 -133 -26 1 -30 17 -17 73 9 39 10 57 3
57 -6 0 -4 8 5 18 21 23 22 36 3 29 -9 -4 -24 9 -40 34 -24 36 -23 45 7 40 4
-1 20 5 35 12 15 7 49 12 75 12 26 -1 50 2 53 7 3 4 10 8 15 8 6 0 7 -5 3 -11
-5 -8 -1 -8 14 0 27 15 32 14 32 -5 0 -11 6 -13 19 -9 10 3 25 -1 33 -8 11
-12 16 -12 26 0 7 7 10 18 7 23 -3 6 1 7 9 4 18 -7 22 -24 6 -24 -16 0 -11
-30 5 -31 8 -1 21 -2 28 -3 6 -1 18 2 25 7 8 6 12 5 12 -3 0 -10 3 -10 15 0 8
7 15 9 15 5 0 -4 -8 -14 -17 -21 -16 -12 -15 -13 12 -14 17 -1 38 -3 48 -5 9
-2 17 1 17 7 0 15 -33 68 -42 68 -5 0 -13 10 -18 23 -7 17 -9 18 -9 5 -1 -10
-6 -18 -12 -18 -6 0 -8 7 -5 16 6 15 4 15 -11 3 -17 -13 -17 -13 0 7 17 20 16
21 -8 32 -14 6 -25 16 -25 22 0 5 -6 10 -14 10 -12 0 -26 20 -26 37 0 2 10 3
22 1 13 -2 34 -21 52 -46 45 -68 87 -105 160 -142 37 -18 86 -52 109 -76 23
-24 45 -44 48 -44 4 0 9 11 11 25 3 14 1 25 -4 25 -5 0 -8 6 -5 13 2 6 10 11
16 9 7 -1 10 2 7 7 -8 12 55 51 80 51 51 -1 56 -43 10 -93 -13 -14 -22 -28
-19 -31 3 -3 -6 -25 -19 -49 -25 -44 -26 -51 -14 -122 5 -31 4 -35 -4 -20 -9
16 -10 14 -6 -16 2 -19 1 -51 -4 -70 -6 -28 -7 -23 -8 31 0 36 -5 77 -11 92
-5 14 -7 28 -4 32 3 3 -2 24 -11 46 -9 23 -13 47 -10 53 4 7 3 9 -1 4 -5 -4
-17 0 -27 10 -10 9 -18 13 -18 8 0 -4 -18 9 -40 29 -22 20 -44 36 -49 36 -5 0
-17 7 -26 16 -9 9 -19 13 -23 10 -4 -4 4 -16 18 -26 14 -11 20 -20 13 -20 -6
0 -15 5 -18 10 -11 18 -35 11 -35 -10 0 -11 5 -20 10 -20 6 0 10 -9 10 -20 0
-12 7 -20 16 -20 14 0 14 -3 4 -15 -10 -12 -9 -15 5 -15 12 0 15 -5 11 -17 -4
-9 -2 -19 3 -23 6 -3 11 -20 13 -38 1 -18 5 -32 8 -32 3 0 5 -24 4 -52 -1 -29
-2 -53 -3 -53 -1 0 -4 -20 -5 -45 -2 -25 -13 -68 -24 -96 -12 -29 -18 -55 -15
-58 4 -3 1 -6 -5 -6 -7 0 -12 -10 -13 -22 0 -13 -14 -45 -30 -73 -16 -27 -32
-57 -36 -65 -3 -8 -10 -18 -15 -21 -5 -3 -17 -21 -26 -39 -9 -18 -21 -33 -27
-33 -5 1 -18 -3 -27 -8 -11 -6 -19 -5 -24 2 -3 6 -14 9 -24 6 -13 -3 -17 0
-13 9 3 9 -1 14 -12 14 -12 0 -15 5 -11 17 4 10 4 14 0 10 -4 -4 -24 29 -46
73 -55 114 -96 153 -183 174 -38 10 -91 31 -117 47 -61 39 -89 39 -173 -2 -39
-18 -78 -32 -87 -31 -10 2 -18 -1 -18 -7 0 -6 -6 -8 -14 -5 -23 9 -26 -44 -26
-414 l1 -354 24 -24 24 -24 3479 0 3479 0 27 21 26 20 0 1045 c0 1031 0 1044
-20 1064 -20 20 -33 20 -3510 20 -3482 0 -3490 0 -3510 -20z m690 -10 c13 -9
13 -10 0 -10 -8 0 -22 5 -30 10 -13 9 -13 10 0 10 8 0 22 -5 30 -10z m2805
-21 c5 -20 3 -35 -5 -42 -10 -9 -11 -6 -6 14 4 19 1 31 -11 40 -9 8 -14 9 -10
3 8 -14 -25 -45 -39 -36 -6 4 -13 17 -16 30 -6 20 -3 22 37 22 40 0 44 -2 50
-31z m47 14 c-13 -25 -14 -92 -2 -73 5 8 7 23 4 32 -3 10 1 27 9 38 14 21 14
21 20 -2 4 -13 2 -24 -3 -26 -6 -2 -7 -14 -4 -27 4 -18 1 -25 -15 -30 -24 -7
-29 -35 -7 -35 8 0 34 -18 57 -40 24 -22 37 -40 29 -40 -10 0 -6 -7 10 -20 29
-22 39 -18 19 7 -9 11 -10 14 -1 9 7 -4 12 -2 12 7 0 8 -14 20 -31 27 -16 7
-28 18 -26 24 2 6 1 20 -3 31 -5 14 0 26 17 43 31 28 39 28 19 0 -24 -34 -19
-62 14 -86 17 -13 27 -28 24 -36 -3 -8 14 -36 38 -64 55 -64 139 -185 167
-239 21 -42 28 -93 13 -93 -5 0 -9 13 -9 28 0 16 -12 46 -26 67 -15 22 -27 32
-27 24 0 -9 11 -33 25 -53 29 -42 32 -54 9 -35 -11 9 -9 2 5 -23 21 -34 35
-134 21 -143 -9 -5 -20 -54 -27 -110 -2 -22 -8 -42 -13 -45 -5 -3 -8 -12 -8
-20 3 -41 -3 -71 -12 -65 -5 3 -17 -10 -27 -29 -9 -19 -20 -33 -25 -30 -4 3
-5 -1 -3 -8 9 -22 -35 -53 -108 -77 -38 -12 -82 -28 -98 -36 -35 -18 -77 -97
-81 -150 -1 -23 -9 -42 -20 -49 -23 -14 -23 -26 -1 -26 9 0 13 -3 10 -7 -4 -3
2 -16 13 -28 14 -15 22 -41 26 -86 6 -67 33 -157 67 -224 11 -21 28 -64 38
-94 29 -82 24 -231 -8 -231 -7 0 -41 -9 -75 -21 -59 -20 -63 -20 -107 -3 -24
9 -58 29 -74 43 -16 14 -33 25 -37 24 -10 -3 -63 108 -79 167 l-9 35 -2 -30
c-1 -16 -2 -41 -2 -55 0 -14 -4 -28 -9 -31 -5 -3 -11 -20 -12 -37 -1 -18 -5
-32 -8 -32 -4 0 -9 -10 -13 -22 -3 -13 -9 -19 -13 -13 -5 6 -17 12 -28 13 -26
5 -34 13 -40 40 -2 12 -6 26 -9 31 -3 4 6 14 20 22 14 7 30 22 36 34 6 11 7
17 3 13 -4 -4 -13 -1 -19 7 -17 22 -61 24 -60 3 1 -10 -2 -15 -7 -12 -12 7
-66 -23 -73 -41 -11 -29 -7 -34 37 -53 53 -24 77 -50 57 -62 -21 -13 -155 14
-146 29 3 4 8 22 11 41 7 38 -13 75 -44 83 -18 4 -21 1 -21 -28 0 -50 -20 -61
-85 -45 -72 17 -82 24 -66 44 7 8 19 12 26 9 23 -8 75 20 75 40 0 11 -5 15
-11 11 -7 -4 -9 20 -6 82 4 65 3 80 -4 57 -6 -21 -25 -43 -52 -62 -24 -16 -62
-51 -84 -76 -25 -29 -43 -43 -47 -36 -5 7 -18 3 -39 -12 -18 -13 -41 -22 -52
-21 -37 6 -200 15 -283 17 -68 2 -79 0 -65 -10 15 -11 12 -13 -21 -13 -22 0
-35 -4 -31 -10 10 -15 -47 -11 -69 5 -18 14 -18 15 7 26 25 11 25 13 9 25 -16
13 -16 13 1 14 24 0 22 20 -3 20 -22 0 -27 15 -7 24 6 3 3 4 -8 1 -20 -4 -47
6 -47 18 0 4 -2 16 -5 27 -6 23 -18 26 -27 8 -3 -7 -3 -3 0 9 3 12 0 33 -7 45
-7 13 -14 40 -16 61 -4 32 -1 38 20 46 14 6 27 15 29 22 2 7 26 21 54 31 41
15 43 17 14 13 -111 -18 -128 -18 -138 1 -31 63 65 161 161 163 l28 1 -20 -26
c-33 -42 -21 -124 18 -124 16 0 71 28 93 47 23 20 7 70 -33 105 -19 16 -28 31
-24 38 6 9 2 9 -14 1 -11 -7 -21 -9 -21 -6 0 12 6 20 15 20 23 0 48 23 42 38
-5 13 -16 15 -56 10 -81 -9 -90 1 -36 43 57 43 89 62 220 128 92 46 106 50
178 52 76 2 79 1 88 -24 14 -37 8 -54 -25 -65 -17 -6 -57 -27 -90 -49 -33 -21
-82 -46 -108 -56 -44 -15 -66 -42 -35 -42 21 0 109 48 167 90 36 27 63 39 78
37 12 -2 22 0 22 5 0 5 16 8 35 5 19 -3 32 -1 29 4 -3 5 0 18 7 30 10 19 12
20 27 6 13 -14 13 -18 1 -34 -13 -17 -13 -17 5 -3 16 13 20 12 32 -5 10 -13
11 -22 3 -32 -9 -10 -7 -13 8 -13 13 0 34 -20 59 -57 21 -32 41 -62 43 -68 2
-5 14 -23 26 -40 25 -33 27 -42 29 -135 1 -50 -4 -76 -23 -115 -14 -27 -24
-57 -23 -65 6 -77 15 -131 21 -124 4 5 15 29 25 54 22 59 40 82 59 74 13 -5
12 -14 -8 -72 -13 -37 -21 -69 -19 -71 3 -3 26 16 52 42 26 27 40 45 31 42
-19 -7 -20 28 -1 47 7 7 12 18 12 25 0 7 5 13 10 13 6 0 10 7 10 15 0 8 11 22
24 32 22 17 23 19 8 50 -9 18 -19 33 -22 33 -4 0 -7 6 -7 13 0 6 -18 41 -39
75 -42 68 -52 86 -79 144 -10 21 -22 35 -28 31 -6 -3 -7 -1 -3 5 3 6 -2 30
-13 54 -30 67 -33 84 -16 98 28 23 10 37 -22 17 -16 -10 -33 0 -33 19 0 8 -21
34 -46 57 -43 40 -46 46 -49 102 -3 33 -5 62 -6 65 -1 3 -1 9 0 14 1 5 4 32 6
60 2 28 9 71 15 96 6 25 13 54 15 65 2 11 12 41 24 68 11 26 21 49 21 52 1 3
7 19 14 36 12 28 18 31 61 35 l48 4 -34 -34 c-19 -18 -43 -48 -53 -67 -18 -30
-14 -28 30 17 70 72 101 86 150 72 21 -7 68 -29 103 -50 38 -23 61 -32 57 -23
-3 8 -1 15 4 15 6 0 10 -5 10 -12 0 -6 3 -9 6 -6 8 8 -39 94 -70 128 -13 16
-22 31 -19 34 3 3 -2 8 -11 12 -16 6 -13 24 5 24 6 0 8 -4 5 -8 -6 -10 31 -45
58 -55 17 -7 16 -4 -3 28 -27 46 -18 45 13 -2 14 -20 32 -38 41 -39 8 -1 12 2
9 7 -3 6 0 17 8 26 11 14 11 16 -4 10 -12 -4 -15 -2 -12 7 3 8 14 12 25 9 10
-3 17 -9 14 -13 -3 -4 6 -15 19 -24 22 -14 25 -14 30 1 4 9 0 23 -9 33 -21 23
-21 47 0 30 8 -7 15 -19 15 -28 0 -8 3 -12 7 -9 3 4 12 2 19 -4 14 -12 34 -4
34 13 0 7 -6 6 -15 -2 -15 -13 -21 -1 -7 15 4 6 3 7 -3 2 -10 -8 -75 50 -75
67 0 6 14 -4 30 -23 25 -27 33 -31 45 -21 12 10 18 5 36 -24 26 -45 45 -48 24
-3 -11 23 -12 27 -2 15 8 -10 17 -15 20 -11 4 3 12 1 19 -4 7 -5 21 -13 32
-17 14 -5 17 -2 12 9 -3 8 -9 22 -12 30 -4 10 0 15 12 15 15 0 16 -2 5 -9 -9
-6 -10 -11 -2 -15 6 -4 11 -3 11 3 0 7 8 7 24 1 13 -5 26 -6 29 -4 10 11 42
11 55 1 8 -7 12 -5 12 6 0 21 -37 42 -42 25 -2 -6 -12 -12 -21 -14 -9 -1 -15
2 -11 7 3 5 9 7 14 4 13 -8 21 26 9 41 -8 10 -6 12 10 9 13 -2 19 0 15 6 -3 6
-8 8 -11 5 -3 -3 -18 3 -33 14 -16 11 -33 20 -39 20 -6 0 -11 5 -11 10 0 6 -7
10 -16 10 -14 0 -14 3 -4 15 14 17 7 19 -20 5 -13 -7 -21 -5 -31 8 -13 15 -12
16 3 4 18 -15 34 0 22 21 -6 8 -3 8 9 -1 14 -12 18 -9 30 21 8 18 18 43 21 55
4 12 12 22 17 22 6 0 6 -7 1 -17z m-2826 -25 c-10 -6 -22 -6 -26 -2 -5 5 3 10
18 11 22 1 24 0 8 -9z m1719 -7 c44 -19 100 -78 119 -122 6 -15 23 -37 38 -48
24 -19 41 -66 42 -116 1 -17 8 -20 44 -20 38 0 45 4 60 30 9 17 23 34 30 38 7
4 23 30 37 57 29 57 28 56 114 86 42 14 59 17 46 8 -12 -9 -16 -18 -10 -22 6
-4 11 -14 13 -22 3 -11 -1 -10 -17 4 -18 16 -22 17 -35 3 -9 -8 -24 -13 -34
-10 -10 2 -26 -5 -37 -18 -20 -22 -20 -22 0 -16 17 6 17 5 -2 -9 -13 -9 -23
-22 -23 -29 0 -8 -14 -27 -31 -44 -17 -17 -27 -31 -23 -31 4 0 -1 -7 -12 -15
-16 -13 -17 -16 -4 -25 11 -7 7 -10 -20 -10 l-35 0 25 -20 25 -20 -21 -17
c-12 -10 -27 -28 -33 -40 -15 -30 -70 -31 -96 -3 -18 20 -17 20 23 20 25 0 42
5 42 11 0 8 -14 9 -47 4 -27 -4 -69 -8 -96 -10 -26 -1 -53 -7 -60 -12 -16 -13
-149 -58 -213 -73 -28 -6 -92 -13 -142 -15 -81 -3 -90 -2 -86 13 5 14 3 13
-10 -2 -15 -19 -16 -18 -25 5 -8 20 -10 21 -10 5 -1 -19 -1 -19 -14 -1 -8 10
-19 15 -25 11 -7 -4 -12 -1 -12 6 -1 7 -7 2 -14 -11 -13 -23 -14 -23 -24 -5
-11 19 -11 19 -12 0 0 -19 0 -19 -22 0 -13 10 -17 12 -10 4 6 -8 12 -18 12
-22 0 -12 -23 -5 -37 12 -12 13 -12 13 -8 -1 3 -9 -1 -22 -10 -29 -9 -7 -15
-8 -15 -2 0 6 5 12 12 14 8 3 9 6 1 11 -6 4 -16 -6 -23 -23 -7 -17 -17 -30
-23 -30 -5 0 -16 -8 -24 -17 -13 -16 -13 -16 -4 4 14 29 14 40 -1 25 -13 -13
-38 -16 -38 -4 0 4 27 25 60 46 64 42 66 46 49 63 -7 7 -8 19 -4 30 7 15 9 13
14 -12 l6 -30 78 3 c46 1 77 -2 77 -8 0 -5 9 -1 21 11 15 15 24 18 32 10 15
-15 67 -14 67 2 0 8 4 7 10 -3 8 -12 10 -12 10 -1 0 11 3 11 15 1 12 -10 15
-9 15 6 0 16 2 17 10 4 8 -12 13 -13 29 -3 18 11 19 10 14 -5 -6 -15 -5 -15
10 -3 9 7 17 10 17 6 0 -4 7 -2 15 5 8 7 15 9 15 4 0 -5 5 -2 10 6 7 11 10 11
10 2 0 -7 12 0 26 15 16 18 24 22 20 11 -7 -23 -6 -23 33 6 19 15 41 22 54 19
21 -4 21 -4 4 10 -14 11 -15 16 -5 21 7 3 4 4 -7 1 -55 -12 -80 -13 -142 -4
-37 5 -70 14 -72 20 -6 17 -40 -42 -34 -60 4 -14 3 -14 -6 -1 -10 13 -15 8
-12 -12 1 -8 -15 -12 -32 -9 -5 1 -17 -9 -29 -21 -13 -15 -18 -17 -15 -7 5 14
0 15 -31 8 -45 -10 -163 -11 -178 -1 -36 24 -46 125 -18 190 50 121 193 166
288 91 15 -12 29 -20 30 -18 2 2 13 22 24 44 55 108 174 153 277 106z m-1935
-5 c0 -8 14 -26 31 -40 19 -16 25 -26 15 -26 -8 0 -17 -4 -20 -9 -4 -5 11 -7
32 -4 65 9 131 -39 157 -114 8 -21 14 -30 15 -20 0 31 -30 85 -64 114 -17 14
-30 30 -28 36 1 5 -3 17 -10 26 -7 9 7 0 32 -20 96 -77 119 -179 75 -322 -33
-104 -81 -166 -151 -193 -54 -21 -175 -25 -182 -6 -2 6 -9 12 -15 12 -15 0
-107 86 -107 100 0 5 -9 18 -21 29 -12 11 -18 24 -14 30 3 6 -5 16 -19 22 -14
7 -30 25 -36 42 -13 39 -13 50 3 41 6 -4 -1 5 -17 20 -26 25 -28 32 -24 85 7
96 75 161 168 161 51 0 75 -12 94 -48 9 -15 15 -22 16 -15 0 6 -12 25 -26 42
-23 27 -24 31 -7 31 10 0 32 9 48 19 36 24 55 26 55 7z m3943 -24 c54 -38 89
-94 110 -175 18 -69 11 -100 -39 -166 -19 -24 -34 -49 -34 -54 0 -6 3 -8 6 -5
3 4 13 0 22 -8 83 -72 90 -81 82 -94 -7 -12 -11 -9 -19 10 -5 14 -10 18 -10
10 -1 -9 6 -26 15 -38 8 -12 12 -22 7 -22 -4 0 -3 -4 3 -8 18 -11 22 -92 4
-92 -11 0 -90 78 -90 89 0 4 -14 8 -31 9 -23 1 -29 -3 -25 -14 3 -9 9 -46 12
-83 5 -53 3 -69 -9 -79 -12 -10 -17 -10 -23 -1 -4 7 -3 9 4 5 14 -9 21 15 10
37 -11 22 -29 23 -21 0 4 -11 3 -14 -5 -9 -7 4 -12 3 -12 -3 0 -21 -127 12
-170 43 -90 66 -163 59 -196 -20 -17 -41 -18 -96 -2 -112 7 -7 26 -11 42 -11
21 1 24 3 10 6 -16 3 -20 10 -16 33 4 26 9 30 36 30 l31 1 -31 17 c-28 15 -30
20 -22 42 17 46 55 52 119 19 38 -19 41 -23 37 -55 -3 -27 0 -38 14 -45 21
-11 23 -6 6 20 -6 10 -9 25 -5 34 5 13 12 12 53 -8 26 -13 54 -21 61 -18 22 9
15 -17 -12 -42 -14 -12 -22 -25 -18 -27 4 -3 3 -3 -4 -2 -7 2 -15 -1 -18 -6
-4 -6 -14 -10 -23 -10 -9 0 -30 -7 -46 -15 -15 -8 -34 -15 -42 -15 -7 0 -18
-9 -24 -21 -9 -15 -15 -18 -25 -9 -9 8 -14 7 -19 -5 -4 -11 -2 -14 7 -9 7 5 7
1 -2 -10 -9 -11 -17 -13 -21 -6 -8 13 -35 -15 -44 -47 -5 -14 -12 -20 -22 -16
-9 3 -14 -2 -14 -16 0 -30 -15 -26 -16 4 -1 15 3 25 12 25 8 0 14 5 14 10 0
12 -10 13 -29 1 -9 -6 -22 -6 -33 0 -13 7 -15 15 -8 33 4 13 7 34 5 47 -17
122 -17 124 14 193 48 104 41 171 -24 214 -56 36 -86 92 -84 160 2 73 35 151
81 186 51 38 55 32 11 -18 -46 -52 -63 -101 -63 -177 0 -67 23 -101 70 -104
18 -2 35 -7 39 -13 3 -5 14 -8 24 -6 9 1 17 -2 17 -7 0 -5 8 -9 18 -10 10 0
12 -3 5 -6 -7 -2 -13 -9 -13 -15 0 -6 7 -7 16 -4 14 5 15 4 4 -9 -7 -8 -16
-12 -21 -9 -13 8 -11 -10 3 -24 9 -9 9 -12 -1 -12 -7 0 -9 -5 -6 -10 8 -12
115 -11 115 1 0 5 7 6 15 3 8 -4 15 -2 15 3 0 12 60 47 67 39 4 -3 12 -1 20 5
7 6 14 9 14 5 1 -3 3 -10 4 -16 1 -5 3 -14 4 -20 0 -5 7 -10 15 -10 8 0 22
-10 30 -22 12 -16 13 -26 4 -42 -11 -20 -10 -20 7 -6 17 14 18 13 12 -2 -6
-16 18 -46 29 -35 3 2 5 23 6 45 0 36 3 41 27 45 23 3 24 4 7 12 -27 12 -76
62 -76 78 0 7 -11 19 -24 26 -26 14 -38 53 -27 83 7 18 8 18 33 -2 15 -11 43
-27 62 -35 l35 -15 7 35 c3 20 16 43 28 53 22 18 49 79 40 93 -9 15 -31 10
-115 -27 -77 -34 -91 -36 -131 -19 -12 5 -18 3 -18 -6 0 -19 -39 -36 -130 -59
-84 -21 -172 -51 -181 -63 -7 -9 -25 27 -34 66 -6 28 -5 28 19 12 24 -16 26
-16 51 9 33 33 34 88 2 120 -17 17 -21 28 -15 40 15 26 93 66 130 66 42 0 95
-33 123 -77 33 -54 85 -39 85 23 0 23 -8 39 -26 53 -33 26 -49 26 -74 1 -24
-24 -25 -20 -6 24 35 84 128 100 219 38z m-3656 13 c17 -9 37 -23 44 -32 12
-14 10 -14 -13 1 -28 18 -38 10 -16 -12 9 -9 9 -12 0 -12 -7 0 -17 12 -23 27
-6 15 -16 31 -22 35 -21 13 -1 9 30 -7z m2373 5 c0 -5 -7 -7 -15 -4 -20 8 -73
-14 -84 -35 -5 -9 -13 -12 -18 -8 -15 15 46 57 83 57 19 0 34 -4 34 -10z m230
0 c-12 -8 -9 -10 13 -10 15 0 27 -4 27 -9 0 -4 -24 -4 -52 1 -88 14 -142 11
-189 -11 -24 -11 -37 -20 -29 -19 34 1 48 -3 54 -17 4 -12 2 -13 -13 -6 -13 7
-24 6 -39 -4 -11 -8 -28 -12 -38 -8 -11 4 -15 3 -11 -4 5 -8 -3 -8 -28 0 -47
14 -44 26 5 20 37 -5 40 -4 38 17 -2 14 3 24 12 26 8 2 35 10 60 18 51 16 214
21 190 6z m-2690 -15 c17 -9 30 -20 30 -25 0 -21 -19 -17 -51 10 -37 32 -26
39 21 15z m50 -5 c6 -11 8 -20 6 -20 -3 0 -10 9 -16 20 -6 11 -8 20 -6 20 3 0
10 -9 16 -20z m730 -114 c-6 -6 -10 -24 -9 -40 0 -24 2 -27 8 -13 6 17 8 16
19 -8 10 -21 10 -25 0 -18 -7 4 -17 8 -22 8 -24 0 -50 168 -29 189 4 3 15 -20
24 -51 12 -37 15 -61 9 -67z m1839 88 c2 -2 -7 -4 -22 -4 -14 0 -29 5 -32 10
-6 10 42 4 54 -6z m2073 -16 c37 -21 115 -108 155 -172 20 -34 47 -72 60 -86
13 -14 23 -28 23 -32 0 -14 38 -47 46 -40 4 4 4 -1 1 -10 -4 -10 -3 -18 2 -18
5 0 12 -10 16 -22 4 -13 9 -30 12 -38 2 -8 7 -27 10 -42 3 -16 9 -28 14 -28 5
0 8 -6 7 -12 -2 -7 2 -12 7 -11 6 1 11 -7 11 -18 0 -10 -5 -19 -11 -19 -5 0
-2 -7 9 -15 14 -11 22 -11 37 -2 11 7 15 15 9 22 -5 6 -5 17 0 25 6 8 10 12
11 8 1 -5 3 -12 4 -18 1 -5 3 -16 4 -22 2 -7 6 -4 10 7 5 11 5 25 0 31 -11 14
30 54 53 50 29 -4 32 -15 4 -12 -14 2 -31 -3 -37 -11 -13 -15 -13 -15 16 -31
18 -10 18 -11 2 -12 -11 0 -15 -4 -11 -12 4 -7 3 -8 -4 -4 -7 4 -12 5 -12 2 0
-2 -3 -12 -7 -21 -5 -15 -3 -16 18 -4 25 14 49 20 49 13 0 -10 -75 -34 -78
-24 -2 5 -11 10 -20 10 -15 -1 -15 -2 1 -11 13 -8 15 -15 8 -28 -7 -12 -7 -21
0 -28 6 -6 2 -9 -13 -8 -12 1 -24 7 -26 13 -2 7 -12 17 -23 22 -15 8 -17 7
-13 -5 4 -10 0 -15 -10 -15 -9 0 -16 7 -16 16 0 8 -4 12 -10 9 -6 -4 -4 -15 5
-29 8 -12 12 -26 8 -29 -3 -4 1 -7 10 -7 9 0 17 -4 17 -10 0 -5 -7 -7 -16 -3
-11 4 -15 1 -13 -11 2 -9 7 -17 12 -17 4 1 16 1 27 1 15 0 20 7 20 28 0 15 4
23 8 17 9 -13 32 -18 32 -7 0 5 7 9 15 9 8 0 15 -4 15 -9 0 -4 -7 -8 -15 -8
-9 0 -15 -9 -15 -21 0 -19 2 -20 17 -8 11 9 14 10 9 2 -5 -9 -2 -11 8 -7 9 3
13 10 10 15 -3 5 -1 9 4 9 5 0 12 -15 15 -32 3 -18 11 -46 18 -63 6 -16 13
-37 15 -45 1 -8 12 -42 23 -74 26 -73 26 -71 -3 -84 -23 -10 -25 -8 -51 66
-54 152 -67 184 -74 175 -3 -5 -16 -13 -28 -18 -21 -10 -21 -11 23 -123 24
-63 42 -117 39 -122 -3 -4 -13 -10 -24 -13 -17 -4 -25 11 -61 113 -37 104 -44
117 -62 112 -38 -9 -51 39 -15 55 15 7 22 19 23 39 0 16 2 36 5 44 3 10 -2 14
-13 12 -11 -2 -18 3 -18 13 0 9 -5 13 -10 10 -6 -4 -8 -10 -5 -15 9 -15 -28
-29 -47 -19 -14 7 -18 6 -18 -6 0 -8 -5 -15 -11 -15 -6 0 -8 8 -4 19 3 12 0
21 -10 25 -9 3 -13 11 -10 17 4 6 13 8 21 5 8 -3 14 -1 14 4 0 6 4 10 9 10 5
0 7 -8 4 -18 -2 -10 3 -24 11 -31 13 -11 17 -10 22 4 7 16 -43 136 -58 143 -5
2 -8 10 -8 18 0 8 -5 14 -11 14 -6 0 -9 6 -6 13 2 6 -11 32 -30 56 -18 24 -34
48 -34 52 -1 5 -2 12 -4 17 -1 4 -5 25 -10 47 -4 22 -12 45 -17 52 -5 7 -7 16
-4 21 3 5 -6 15 -19 22 -13 7 -22 16 -20 20 2 4 -7 18 -20 30 -14 13 -25 32
-25 42 0 10 -6 17 -12 16 -7 -2 -14 7 -16 20 -2 12 -8 22 -13 22 -5 0 -4 9 3
20 7 11 19 18 26 15 7 -3 10 0 7 5 -8 13 1 13 27 -2z m-153 -14 c25 -5 37 -16
53 -48 11 -22 29 -50 40 -62 16 -18 17 -25 7 -48 -15 -32 -61 -62 -111 -71
-21 -4 -36 -10 -33 -14 2 -4 -10 -8 -28 -8 -18 0 -56 -9 -85 -21 -29 -11 -54
-20 -55 -20 -1 0 -19 -7 -41 -16 -50 -21 -99 -20 -118 2 -9 10 -16 39 -16 74
-1 48 3 62 24 88 47 55 106 69 147 33 20 -17 19 -16 -2 20 -13 21 -21 41 -17
44 3 4 6 0 7 -8 0 -8 4 -4 9 9 8 19 13 21 30 12 11 -6 20 -18 20 -26 0 -8 5
-12 10 -9 6 4 10 -12 10 -40 0 -25 6 -61 14 -80 8 -18 12 -35 10 -38 -3 -2 2
-7 11 -10 8 -4 15 -2 15 2 0 5 10 7 23 4 20 -4 20 -3 -4 11 -36 21 -63 86 -56
132 7 41 39 81 71 87 11 2 24 5 27 6 4 0 21 -2 38 -5z m-4309 -79 c0 -2 -12 0
-27 4 -16 5 -27 13 -25 20 1 6 -4 11 -11 11 -8 0 -14 7 -14 15 0 9 12 4 39
-16 21 -17 38 -32 38 -34z m390 50 c4 3 13 -9 20 -25 23 -55 122 -117 182
-115 15 1 30 -5 33 -13 7 -20 -2 -31 -23 -25 -12 3 -22 -3 -28 -19 -11 -23
-11 -229 -1 -303 21 -153 27 -268 15 -282 -16 -19 -31 -16 -20 4 7 11 6 21 -4
30 -8 9 -11 28 -8 56 3 28 1 37 -5 28 -6 -10 -8 -3 -6 22 2 20 -1 37 -5 37 -5
0 -7 7 -4 15 4 8 1 15 -5 15 -6 0 -11 -5 -11 -12 0 -6 -3 -8 -7 -4 -5 4 1 14
11 22 18 13 18 14 2 14 -13 0 -16 5 -12 16 6 15 4 15 -10 3 -15 -12 -16 -11
-10 9 5 16 4 21 -6 17 -8 -3 -18 7 -26 25 -8 17 -18 28 -23 24 -9 -5 -13 9
-10 34 1 6 -5 12 -14 12 -8 0 -15 7 -15 15 0 8 -4 15 -10 15 -5 0 -10 9 -10
20 0 11 -4 20 -9 20 -5 0 -19 27 -31 60 -13 34 -32 66 -43 71 -14 8 -18 8 -13
0 5 -7 1 -8 -9 -5 -9 4 -14 12 -11 19 2 6 0 18 -6 26 -8 11 -9 11 -4 -3 3 -12
1 -15 -9 -12 -11 5 -11 11 -3 30 6 13 15 24 21 24 5 0 7 13 5 29 -2 17 -1 28
4 25 4 -3 13 6 19 20 7 14 27 32 45 41 19 9 34 21 35 28 0 9 2 9 6 -1 2 -6 8
-10 13 -7z m3000 -20 c0 -28 -13 -45 -33 -45 -20 0 -20 0 -1 14 16 13 17 18 7
35 -18 29 -16 33 7 21 11 -6 20 -17 20 -25z m1288 2 c11 3 51 -30 46 -38 -2
-4 3 -9 11 -13 22 -8 18 -36 -5 -36 -11 0 -20 4 -20 9 0 5 -13 23 -29 40 -16
17 -31 41 -34 53 -6 23 -6 23 9 3 8 -11 18 -19 22 -18z m-2353 -14 l18 -28
-21 19 c-12 11 -22 23 -22 28 0 14 7 9 25 -19z m299 -32 c-5 -6 -24 10 -35 32
-10 20 -9 20 14 -3 13 -14 23 -27 21 -29z m1109 22 c-7 -3 -13 -13 -13 -23 0
-10 -4 -22 -10 -25 -13 -8 -13 4 1 44 9 25 14 30 23 21 8 -9 8 -14 -1 -17z
m-1205 -25 c-10 -6 -10 -10 1 -17 7 -5 9 -11 4 -14 -5 -3 -13 -3 -18 1 -13 9
-16 44 -4 36 13 -8 11 10 -3 26 -7 8 -3 6 10 -5 17 -14 19 -21 10 -27z m43 10
c-10 -11 -11 -9 -5 6 6 15 4 17 -6 11 -9 -6 -11 -4 -5 4 5 9 10 10 18 2 8 -8
7 -14 -2 -23z m-2533 -28 c7 -11 11 -20 9 -20 -2 0 -12 9 -22 20 -10 11 -14
20 -9 20 5 0 15 -9 22 -20z m2274 -20 c10 -10 14 -22 9 -24 -4 -3 -13 6 -19
19 -14 30 -12 31 10 5z m292 5 c3 -8 1 -15 -3 -15 -5 0 -11 7 -15 15 -3 8 -1
15 3 15 5 0 11 -7 15 -15z m1206 5 c0 -5 6 -10 14 -10 11 0 12 -7 4 -37 -5
-21 -11 -45 -12 -53 -2 -8 -6 -22 -9 -30 -3 -8 -8 -28 -10 -45 -7 -44 -31
-104 -52 -128 l-18 -21 -10 25 c-6 13 -11 26 -11 29 -1 3 -4 10 -8 16 -9 14
-3 59 17 118 9 27 19 61 21 75 7 38 74 94 74 61z m-720 -52 c0 -38 -39 -74
-54 -50 -3 5 4 16 15 26 11 9 20 27 19 39 -3 35 0 43 10 27 5 -8 10 -27 10
-42z m-2830 32 c0 -5 -7 -7 -15 -4 -8 4 -15 8 -15 10 0 2 7 4 15 4 8 0 15 -4
15 -10z m-273 -15 c0 -8 -4 -12 -9 -9 -5 3 -6 10 -3 15 9 13 12 11 12 -6z m40
-7 c-3 -8 -6 -5 -6 6 -1 11 2 17 5 13 3 -3 4 -12 1 -19z m103 -72 c0 -9 4 -16
8 -16 5 0 14 -12 21 -26 10 -22 9 -31 -5 -53 -32 -47 -81 -94 -95 -88 -10 3
-9 7 6 13 24 9 44 34 39 49 -2 5 -5 27 -7 48 -4 33 -2 38 14 34 12 -3 16 0 12
9 -3 8 -11 14 -18 14 -21 0 -29 21 -14 32 10 7 8 8 -9 5 -18 -4 -21 -3 -12 8
8 10 8 15 -1 20 -8 6 -8 10 1 15 15 9 60 -39 60 -64z m-15 64 c3 -5 1 -10 -4
-10 -6 0 -11 5 -11 10 0 6 2 10 4 10 3 0 8 -4 11 -10z m1773 -8 c-10 -2 -18
-8 -18 -14 0 -6 -2 -9 -5 -6 -12 12 7 37 23 30 16 -6 15 -7 0 -10z m2557 -6
c7 -7 15 -22 17 -32 3 -17 -4 -19 -62 -21 -55 -2 -62 -1 -46 10 10 6 31 22 45
34 31 27 29 26 46 9z m-4507 -31 c-3 -3 -9 2 -12 12 -6 14 -5 15 5 6 7 -7 10
-15 7 -18z m662 -25 c5 8 14 -8 24 -41 13 -46 13 -60 2 -93 -12 -35 -14 -36
-19 -15 -3 13 -9 47 -12 74 -4 28 -9 59 -11 70 -2 11 -1 14 2 6 5 -10 8 -11
14 -1z m666 -62 c4 -7 4 -10 -1 -6 -4 4 -15 2 -24 -5 -14 -11 -14 -10 -2 6 16
20 18 21 27 5z m317 -75 c-21 -30 -50 -39 -89 -29 -51 13 -20 41 76 69 28 8
35 -12 13 -40z m2377 23 c0 -8 -7 -17 -16 -20 -28 -11 -34 -6 -22 14 15 23 38
27 38 6z m-3716 -4 c3 -5 -1 -9 -9 -9 -8 0 -12 4 -9 9 3 4 7 8 9 8 2 0 6 -4 9
-8z m1518 -22 c-11 -20 -18 -25 -20 -15 -2 8 -9 12 -15 9 -7 -4 -10 -5 -7 -1
3 3 9 6 13 6 4 0 15 7 23 16 23 23 25 18 6 -15z m-1547 -18 c-3 -3 -11 0 -18
7 -9 10 -8 11 6 5 10 -3 15 -9 12 -12z m53 1 c1 -10 4 -27 6 -38 2 -11 5 -24
5 -29 1 -4 12 -6 26 -4 30 6 42 -7 19 -20 -15 -8 -15 -10 0 -15 10 -4 15 -3
11 3 -3 6 1 10 9 10 17 0 36 -29 36 -55 0 -9 -5 -13 -10 -10 -6 4 -8 11 -4 16
3 6 -3 5 -15 -2 -11 -8 -17 -16 -12 -19 12 -8 21 -51 9 -44 -5 3 -8 -2 -6 -12
2 -10 -2 -19 -9 -19 -6 0 -14 -3 -18 -6 -3 -4 -19 0 -35 8 -30 15 -100 9 -100
-8 0 -5 -5 -9 -11 -9 -8 0 -8 4 0 14 9 10 10 25 3 49 -8 27 -6 36 7 46 9 6 10
9 4 6 -8 -4 -13 1 -13 14 0 10 -3 27 -7 37 -4 12 -3 15 6 10 9 -6 12 -2 11 10
-4 35 0 54 11 54 6 0 9 -7 6 -15 -4 -8 -2 -17 3 -20 6 -4 10 1 10 11 0 15 35
54 49 54 4 0 8 -8 9 -17z m3732 3 c0 6 7 11 15 11 8 0 12 -4 9 -8 -3 -5 2 -19
11 -32 14 -22 13 -28 -22 -93 -20 -38 -43 -84 -52 -101 -8 -18 -19 -33 -23
-33 -4 0 -8 -6 -8 -14 0 -14 -45 -49 -67 -52 -7 -1 -13 2 -13 8 0 6 -10 8 -24
4 -20 -5 -26 -1 -35 24 -6 18 -6 28 -1 25 6 -4 10 1 10 9 0 8 9 18 20 21 13 4
20 15 20 30 0 13 6 28 13 32 7 4 25 30 40 57 35 64 90 125 99 111 5 -7 8 -7 8
1z m1058 -11 c27 -31 27 -35 3 -35 -11 0 -21 -6 -24 -12 -2 -7 -4 -1 -3 14 0
14 4 24 9 21 4 -2 7 0 7 6 0 5 -8 15 -17 20 -10 6 -13 11 -7 11 6 0 20 -11 32
-25z m-4414 -11 c3 -8 2 -12 -4 -9 -6 3 -10 10 -10 16 0 14 7 11 14 -7z m1179
-4 c-3 -11 -7 -20 -9 -20 -2 0 -4 9 -4 20 0 11 4 20 9 20 5 0 7 -9 4 -20z
m-443 -4 c0 -8 -12 -24 -26 -35 -35 -28 -95 -28 -119 -1 -18 20 -17 20 11 20
16 0 49 7 74 14 58 19 60 19 60 2z m4321 -9 c49 -33 99 -150 99 -233 0 -76
-19 -103 -99 -143 -80 -41 -102 -61 -103 -96 -1 -34 11 -95 19 -95 2 0 70 23
150 51 79 28 146 49 148 47 3 -2 11 -20 19 -40 l15 -36 -122 -42 c-67 -24
-153 -56 -191 -72 -41 -16 -73 -25 -79 -19 -4 4 -22 46 -38 92 -28 81 -36 140
-23 174 4 8 49 45 100 81 106 74 113 87 95 170 -16 69 -52 114 -92 114 -35 0
-77 -20 -103 -48 -17 -20 -17 -24 -2 -68 9 -27 13 -51 9 -55 -10 -9 -83 -32
-87 -27 -9 10 -36 105 -36 124 0 78 101 142 226 143 48 1 68 -4 95 -22z
m-3979 -32 c-9 -26 -18 -42 -20 -37 -3 9 26 82 33 82 2 0 -4 -20 -13 -45z
m3283 25 c3 -6 -1 -7 -9 -4 -18 7 -21 14 -7 14 6 0 13 -4 16 -10z m-4345 -10
c0 -5 -2 -10 -4 -10 -3 0 -8 5 -11 10 -3 6 -1 10 4 10 6 0 11 -4 11 -10z
m3040 -38 c0 -9 -7 -6 -19 9 -11 13 -17 28 -14 33 7 11 33 -22 33 -42z m1435
37 c11 -16 1 -19 -13 -3 -7 8 -8 14 -3 14 5 0 13 -5 16 -11z m-4035 -9 c0 -5
-9 -19 -20 -30 -28 -28 -83 -27 -112 2 l-22 22 24 7 c39 11 130 10 130 -1z
m3210 6 c0 -3 -4 -8 -10 -11 -5 -3 -10 -1 -10 4 0 6 5 11 10 11 6 0 10 -2 10
-4z m-3565 -38 c-14 -11 -25 -27 -25 -35 0 -9 -3 -13 -7 -10 -3 4 -12 -1 -19
-11 -7 -9 -14 -12 -14 -6 0 6 7 17 15 24 8 7 15 17 15 23 0 18 31 46 46 40 10
-4 8 -10 -11 -25z m3540 16 c41 4 47 2 57 -20 11 -25 13 -25 26 -7 13 17 14
16 8 -9 -6 -27 4 -35 38 -29 5 1 6 -14 3 -34 -6 -34 -5 -35 21 -30 25 4 42 -8
42 -30 0 -5 -5 -3 -11 5 -9 12 -12 13 -16 1 -4 -10 -7 -10 -13 -1 -5 8 -9 8
-13 -3 -4 -11 0 -15 13 -12 11 2 22 0 25 -5 3 -5 13 -6 22 -3 12 5 14 3 8 -7
-6 -10 -4 -12 8 -7 23 9 21 2 -5 -22 -16 -16 -19 -23 -9 -34 9 -12 7 -13 -15
-9 -22 4 -25 2 -22 -18 1 -13 8 -25 15 -27 7 -3 10 4 7 19 -4 21 -4 21 5 3 11
-26 -3 -42 -24 -25 -8 7 -15 18 -15 24 0 6 -11 11 -25 11 -14 0 -25 -4 -25 -8
0 -5 -4 -6 -9 -2 -5 3 -16 -2 -25 -10 -9 -9 -21 -15 -28 -14 -31 4 -46 -3 -56
-26 -16 -34 -40 -42 -56 -19 -12 15 -16 16 -30 5 -33 -28 21 -56 66 -34 15 8
28 19 28 25 0 5 6 8 13 5 6 -2 29 4 50 15 22 11 45 17 53 14 7 -3 16 0 20 6 4
7 9 6 15 -3 13 -21 11 -32 -5 -26 -10 4 -12 0 -9 -14 5 -18 23 -27 23 -11 0 4
15 8 33 10 17 1 43 3 57 5 39 3 37 -28 -2 -43 -18 -8 -34 -14 -36 -15 -8 -6
23 -55 32 -52 37 14 56 17 56 10 0 -4 3 -18 6 -30 5 -17 0 -22 -25 -28 -38 -8
-41 -13 -30 -44 7 -18 14 -22 32 -17 65 18 64 18 70 -5 4 -13 5 -25 3 -26 -2
-2 -30 -14 -64 -27 l-61 -24 -38 114 c-20 63 -41 114 -45 114 -4 0 -5 -61 -2
-135 l6 -135 -27 -12 c-22 -10 -28 -9 -36 3 -5 8 -36 60 -69 116 -33 56 -64
104 -69 107 -12 8 0 -38 39 -153 27 -77 30 -95 19 -102 -26 -16 -42 -4 -57 41
-8 25 -30 87 -49 139 -34 92 -34 93 -15 111 15 14 22 16 33 7 11 -10 11 -9 1
4 -6 9 -9 18 -6 22 3 3 -5 3 -18 0 -15 -3 -19 -2 -11 4 10 7 9 14 -3 31 -8 12
-20 20 -25 17 -5 -4 -9 -1 -9 6 0 17 30 49 47 49 7 0 13 5 13 11 0 14 -42 1
-56 -17 -6 -8 -14 -14 -17 -14 -8 0 4 43 17 59 8 11 8 13 0 8 -8 -4 -11 2 -10
18 0 14 4 25 7 25 3 0 5 18 5 40 -1 22 2 40 7 40 4 0 7 11 7 25 0 14 5 25 11
25 6 0 8 7 5 16 -3 8 -2 12 4 9 5 -3 12 6 16 20 3 14 11 25 16 25 6 0 8 7 4
15 -4 12 -2 13 13 5 11 -5 40 -8 66 -6z m825 4 c0 -11 -12 -10 -30 2 -12 7
-10 9 8 7 12 0 22 -5 22 -9z m-130 -8 c0 -5 -2 -10 -4 -10 -3 0 -8 5 -11 10
-3 6 -1 10 4 10 6 0 11 -4 11 -10z m-4092 -27 c-4 -35 -49 -63 -75 -47 -25 16
-23 25 16 51 46 31 63 30 59 -4z m4182 4 c0 -17 -1 -17 -16 -3 -22 23 -34 20
-34 -9 0 -14 4 -25 9 -25 5 0 11 -6 14 -14 4 -10 0 -14 -12 -13 -10 0 -18 7
-17 13 1 7 -3 13 -9 13 -5 1 -10 -3 -10 -9 0 -5 -4 -10 -8 -9 -5 0 -17 -9 -26
-20 -19 -22 -46 -27 -56 -12 -3 5 -1 12 4 15 5 4 12 2 16 -4 3 -5 21 4 40 22
19 17 32 35 28 41 -3 6 -1 7 4 4 6 -4 13 2 16 13 7 27 57 24 57 -3z m139 -11
c-3 -3 -11 5 -18 17 -13 21 -12 21 5 5 10 -10 16 -20 13 -22z m-1639 -6 c6
-11 7 -20 2 -20 -6 0 -12 9 -15 20 -3 11 -3 20 -1 20 2 0 8 -9 14 -20z m840 5
c11 -13 10 -14 -4 -9 -9 3 -16 10 -16 15 0 13 6 11 20 -6z m-695 -5 c3 -5 1
-10 -4 -10 -6 0 -11 5 -11 10 0 6 2 10 4 10 3 0 8 -4 11 -10z m-2150 -30 c16
-18 16 -20 1 -26 -9 -3 -16 -12 -16 -20 0 -8 -4 -14 -10 -14 -5 0 -7 -6 -4
-14 4 -11 -9 -19 -47 -30 -29 -9 -59 -16 -66 -16 -25 0 -13 40 18 59 25 15 27
20 13 25 -15 6 -14 8 5 25 20 18 21 20 4 24 -10 3 5 5 33 6 39 1 55 -4 69 -19z
m135 1 c0 -31 36 -164 53 -198 25 -48 22 -85 -10 -114 -15 -13 -22 -17 -15 -8
11 14 8 17 -20 24 -18 4 -37 7 -41 6 -5 -1 -6 3 -2 9 4 6 1 18 -6 26 -6 8 -9
17 -6 21 4 3 2 15 -4 26 -7 12 -7 17 -1 13 10 -6 5 15 -22 89 -6 17 -10 33 -8
38 1 4 -2 7 -7 7 -13 0 -7 33 6 37 6 2 20 -8 32 -23 15 -19 21 -22 21 -10 0 9
-9 25 -20 36 l-20 20 25 0 c14 0 25 5 25 10 0 6 5 10 10 10 6 0 10 -8 10 -19z
m3396 4 c10 -10 11 -15 4 -15 -7 0 -10 -8 -7 -20 3 -11 1 -20 -5 -20 -5 0 -8
12 -6 28 2 22 -1 26 -17 24 -16 -2 -17 -1 -5 7 19 14 19 14 36 -4z m174 -48
c0 -5 5 -5 12 -1 7 4 8 3 4 -4 -4 -7 23 -57 59 -113 37 -56 69 -108 71 -114 3
-7 -8 -17 -24 -23 -28 -9 -31 -8 -51 29 -27 47 -33 51 -66 43 -24 -6 -26 -10
-21 -39 5 -25 3 -34 -10 -39 -37 -14 -41 -7 -48 87 -3 50 -11 94 -16 95 -6 2
-10 8 -10 13 0 6 5 7 10 4 15 -9 12 38 -2 54 -11 11 -10 12 1 6 11 -6 13 -4 8
8 -4 12 2 21 21 31 25 14 28 13 44 -7 10 -12 18 -26 18 -30z m-1644 12 c3 -6
-5 -3 -20 6 -14 10 -26 19 -26 22 0 7 39 -17 46 -28z m84 -6 c-11 -17 -11 -17
-6 0 3 10 6 24 7 30 0 9 2 9 5 0 3 -7 0 -20 -6 -30z m737 5 c-3 -8 -6 -5 -6 6
-1 11 2 17 5 13 3 -3 4 -12 1 -19z m-3769 -23 c0 -22 -5 -35 -13 -35 -11 0
-11 7 -4 32 5 18 9 34 9 35 0 2 2 3 4 3 2 0 4 -16 4 -35z m3812 7 c0 -15 -2
-15 -10 -2 -13 20 -13 33 0 25 6 -3 10 -14 10 -23z m651 -26 c-15 -16 -17 -25
-10 -39 6 -9 14 -15 20 -12 5 4 6 -2 2 -12 -6 -15 -4 -16 8 -6 12 9 14 5 16
-25 1 -21 3 -60 5 -89 2 -43 -1 -56 -21 -77 -25 -27 -107 -60 -116 -47 -11 20
-97 258 -100 280 -1 14 4 31 11 39 12 11 14 10 14 -8 0 -16 5 -20 18 -16 52
14 83 16 102 6 31 -17 64 13 49 44 -10 20 -10 20 5 2 15 -18 14 -22 -3 -40z
m-4373 32 c29 -29 4 -123 -28 -103 -17 11 -9 115 9 115 4 0 12 -5 19 -12z
m3848 -80 c-6 -4 -17 8 -25 25 -12 27 -15 29 -19 12 -2 -11 -9 -26 -14 -32 -7
-9 -6 -13 3 -13 11 0 11 -2 -1 -10 -20 -13 -33 -13 -25 1 4 5 -1 19 -11 30
-20 22 -21 21 31 40 l40 15 15 -31 c10 -19 12 -33 6 -37z m-3338 55 c-10 -2
-26 -2 -35 0 -10 3 -2 5 17 5 19 0 27 -2 18 -5z m-1468 -13 c0 -5 -7 -7 -15
-4 -8 4 -15 8 -15 10 0 2 7 4 15 4 8 0 15 -4 15 -10z m-396 -92 c-3 -5 -15 -8
-27 -8 -20 1 -20 2 -6 13 14 10 14 14 3 25 -8 7 -14 9 -14 5 0 -4 -4 -1 -9 7
-21 31 4 31 30 -1 15 -18 25 -37 23 -41z m1250 47 c-4 -16 -2 -25 6 -25 6 0 8
-4 5 -10 -13 -21 -25 -9 -25 25 0 19 5 35 10 35 6 0 8 -11 4 -25z m683 -10 c5
-4 2 -5 -4 -1 -8 4 -13 2 -13 -6 0 -8 -23 -23 -52 -34 -29 -10 -56 -20 -60
-22 -17 -8 -7 39 13 59 16 16 30 19 64 17 25 -3 48 -8 52 -13z m153 11 c0 -2
3 -12 6 -20 5 -12 2 -15 -12 -9 -14 5 -16 3 -10 -13 6 -15 5 -17 -5 -6 -24 23
-39 14 -39 -24 0 -28 3 -35 15 -30 8 3 15 1 15 -4 0 -6 -10 -10 -23 -10 -13 0
-30 -6 -37 -12 -13 -11 -13 -11 -2 2 6 7 12 18 12 23 0 4 -6 5 -12 2 -7 -4 -5
0 5 8 9 8 17 22 17 31 0 14 -4 15 -21 6 -11 -7 -23 -9 -26 -6 -4 3 -11 1 -18
-4 -6 -5 -22 -12 -36 -14 -13 -3 -26 -5 -29 -6 -3 -2 -9 -2 -15 -1 -5 1 -1 -6
9 -14 20 -15 20 -15 0 -15 -11 0 -25 -5 -32 -12 -9 -9 -12 -8 -12 8 0 21 15
49 27 49 4 1 19 7 32 14 19 11 22 11 16 -1 -3 -7 -1 -6 7 2 20 24 87 52 109
47 10 -3 22 -1 25 4 5 9 34 13 34 5z m43 -32 c-3 -8 -7 -14 -10 -14 -3 0 -3 7
1 15 3 8 1 15 -4 15 -6 0 -10 5 -10 11 0 8 4 8 14 -1 8 -6 12 -18 9 -26z
m3211 21 c3 -8 1 -15 -4 -15 -6 0 -10 7 -10 15 0 8 2 15 4 15 2 0 6 -7 10 -15z
m-4923 -55 c100 -52 136 -199 74 -307 -51 -86 -180 -112 -289 -59 -67 33 -91
62 -112 132 -15 51 -14 54 11 103 14 28 27 51 30 51 12 0 123 -45 143 -58 13
-9 22 -10 22 -3 0 6 -17 19 -37 30 -59 31 -20 25 48 -8 59 -28 60 -28 38 -5
-13 14 -56 41 -97 60 -63 30 -72 38 -61 50 45 45 156 51 230 14z m-496 0 c-16
-4 -41 -8 -55 -8 l-25 0 25 8 c14 4 39 8 55 8 l30 0 -30 -8z m1346 -35 c7 -25
16 -45 19 -45 3 0 6 -16 8 -35 2 -37 54 -119 67 -107 5 4 5 2 1 -5 -3 -6 -1
-15 6 -20 7 -4 19 -16 27 -26 12 -16 12 -17 -5 -10 -21 7 -49 34 -79 76 l-20
27 -100 -94 c-55 -53 -103 -95 -107 -96 -4 0 -8 12 -10 28 -2 22 -8 27 -32 27
-16 0 -31 -6 -33 -12 -3 -9 6 -13 26 -13 31 0 31 -1 25 -38 -8 -53 10 -65 99
-66 40 -1 74 -5 77 -11 14 -27 -107 -47 -185 -31 -118 24 -116 21 -114 110 1
64 4 73 31 98 17 15 39 28 51 28 11 0 33 15 48 33 25 30 29 31 57 21 27 -10
33 -9 50 10 11 11 34 34 52 49 26 23 31 34 26 57 -3 18 -1 30 7 34 8 3 7 5 -3
5 -9 1 -16 12 -16 26 -3 40 13 29 27 -20z m-1243 10 c-3 -3 -9 2 -12 12 -6 14
-5 15 5 6 7 -7 10 -15 7 -18z m2027 15 c3 -5 1 -10 -4 -10 -6 0 -11 5 -11 10
0 6 2 10 4 10 3 0 8 -4 11 -10z m-224 -34 c-6 -14 -16 -26 -22 -26 -7 0 -22
-8 -33 -17 -20 -17 -20 -17 -6 2 20 26 64 72 68 70 1 -1 -2 -14 -7 -29z m322
13 c14 14 30 14 22 1 -3 -5 0 -10 7 -10 7 0 23 -12 35 -27 26 -30 32 -53 7
-28 -21 20 -89 55 -108 55 -9 0 -13 6 -10 15 5 13 8 13 21 -1 11 -11 19 -12
26 -5z m1888 -6 c-8 -15 -10 -15 -11 -2 0 17 10 32 18 25 2 -3 -1 -13 -7 -23z
m-2712 -43 c12 -34 36 -76 53 -95 16 -19 25 -35 20 -35 -11 0 -72 69 -72 82 0
4 -5 19 -12 35 -12 31 -21 73 -15 73 3 0 14 -27 26 -60z m648 54 c-3 -3 -12
-4 -19 -1 -8 3 -5 6 6 6 11 1 17 -2 13 -5z m3344 -35 c14 -28 19 -52 15 -70
-3 -16 -1 -29 3 -29 5 0 23 -28 41 -62 28 -57 29 -63 13 -70 -29 -11 -31 -10
-52 37 -19 43 -28 50 -61 45 -22 -3 -22 -3 -5 -45 18 -42 14 -65 -12 -65 -14
0 -30 30 -66 125 -26 68 -48 128 -49 132 0 12 83 42 119 42 28 1 35 -4 54 -40z
m-5311 1 c0 -20 -15 -25 -45 -13 -15 5 -14 8 6 19 33 18 39 17 39 -6z m4037
-23 l18 -21 -29 18 c-16 10 -31 14 -35 10 -10 -15 -34 -16 -42 -2 -4 7 -3 18
2 24 13 16 60 0 86 -29z m-1663 18 c3 -8 1 -15 -4 -15 -6 0 -10 7 -10 15 0 8
2 15 4 15 2 0 6 -7 10 -15z m-644 -4 c0 -6 -21 -24 -46 -43 -29 -21 -44 -38
-41 -49 2 -9 -4 -21 -14 -27 -26 -16 -27 -16 -34 20 -6 24 -3 35 9 44 13 9 14
13 4 18 -7 3 -2 4 11 2 17 -4 30 2 43 20 19 23 68 34 68 15z m180 -46 c-13
-14 -28 -25 -34 -25 -6 0 3 11 19 25 39 31 45 32 15 0z m451 -8 c-10 -9 -11
-8 -5 6 3 10 9 15 12 12 3 -3 0 -11 -7 -18z m1614 3 c16 -17 16 -20 3 -15 -9
4 -19 13 -22 21 -7 19 -2 18 19 -6z m-1710 1 c3 -5 1 -12 -5 -16 -5 -3 -10 1
-10 9 0 18 6 21 15 7z m165 -28 c0 -8 -8 -5 -20 7 -11 11 -20 22 -20 25 0 3 9
0 20 -7 11 -7 20 -18 20 -25z m-947 6 c-18 -12 -33 -28 -33 -37 0 -14 2 -14 9
-3 6 9 10 0 13 -28 2 -22 0 -41 -4 -41 -7 0 -12 23 -9 42 0 4 -6 5 -14 2 -10
-4 -15 0 -15 12 1 23 18 46 45 62 35 20 41 12 8 -9z m87 -11 c0 -18 3 -43 6
-56 5 -18 3 -21 -10 -16 -10 4 -15 13 -12 20 3 7 1 16 -4 19 -5 3 -7 18 -6 33
4 33 4 32 16 32 6 0 10 -15 10 -32z m2291 22 c5 0 4 -6 -3 -14 -7 -8 -16 -12
-20 -9 -5 2 -8 -3 -8 -11 0 -9 -6 -16 -13 -16 -8 0 -22 -9 -32 -20 -10 -11
-22 -20 -27 -20 -6 0 -18 -10 -29 -22 l-18 -23 8 31 c16 57 38 87 72 99 19 7
40 11 47 9 8 -2 18 -4 23 -4z m193 -33 c4 4 4 0 1 -10 -9 -22 -66 -57 -94 -57
-14 0 -20 -4 -15 -12 4 -7 3 -8 -4 -4 -12 7 -5 36 8 36 15 0 55 43 52 57 -3
12 0 12 21 -1 13 -9 27 -13 31 -9z m-2528 -37 c2 -55 -5 -63 -23 -25 -6 14 -7
23 -2 19 5 -3 9 4 9 16 0 12 -4 18 -10 15 -5 -3 -10 -2 -10 4 0 8 14 18 30 20
3 1 6 -22 6 -49z m834 41 c0 -6 -4 -12 -8 -15 -5 -3 -9 1 -9 9 0 8 4 15 9 15
4 0 8 -4 8 -9z m3599 -22 c14 -40 14 -39 -4 -39 -18 0 -65 -21 -65 -30 0 -3 6
-14 13 -23 10 -15 17 -15 50 -5 32 10 40 9 48 -3 14 -22 12 -24 -41 -43 -44
-16 -50 -21 -44 -40 14 -45 16 -46 97 -14 43 16 80 28 81 26 2 -1 6 -12 10
-23 5 -17 -5 -25 -72 -52 -134 -56 -120 -63 -175 84 -26 70 -49 132 -50 136
-2 8 106 55 130 56 6 1 16 -13 22 -30z m-3479 -47 c0 -4 -8 5 -18 20 -14 22
-21 25 -30 16 -16 -16 -15 -1 0 16 11 11 16 8 30 -16 10 -15 18 -32 18 -36z
m2194 38 c54 -48 125 -246 111 -310 -9 -39 -42 -67 -107 -89 l-56 -19 -11 26
c-32 83 -130 349 -133 361 -2 10 17 22 57 37 80 30 98 29 139 -6z m-2853 -3
c-10 -9 -11 -8 -5 6 3 10 9 15 12 12 3 -3 0 -11 -7 -18z m446 1 c-3 -8 -6 -5
-6 6 -1 11 2 17 5 13 3 -3 4 -12 1 -19z m1993 7 c-7 -8 -17 -15 -23 -15 -6 0
-2 7 9 15 25 19 30 19 14 0z m1528 -23 c2 -13 -2 -22 -10 -22 -47 -1 -45 -11
59 -283 15 -37 24 -69 21 -72 -2 -2 -15 -6 -27 -7 -21 -3 -28 11 -84 155 l-60
157 -32 -6 c-28 -5 -33 -2 -38 18 -4 12 -3 24 1 26 4 2 39 16 77 31 80 33 89
33 93 3z m-3470 6 c16 -16 -3 -48 -28 -48 -20 0 -25 15 -14 44 7 19 25 21 42
4z m212 -8 c0 -5 -5 -10 -11 -10 -5 0 -7 5 -4 10 3 6 8 10 11 10 2 0 4 -4 4
-10z m1645 -11 c-11 -4 -27 -8 -35 -8 -10 1 -11 2 -2 6 6 2 10 8 7 12 -2 5 8
6 23 3 24 -5 24 -6 7 -13z m-3518 -21 c-3 -7 -5 -2 -5 12 0 14 2 19 5 13 2 -7
2 -19 0 -25z m796 -5 c7 -39 1 -40 -11 -4 -6 17 -7 31 -3 31 5 0 11 -12 14
-27z m1007 17 c0 -5 -5 -10 -11 -10 -5 0 -7 5 -4 10 3 6 8 10 11 10 2 0 4 -4
4 -10z m1396 1 c-3 -5 1 -11 9 -15 8 -3 15 -11 15 -18 0 -9 -3 -8 -10 2 -5 8
-10 11 -10 7 0 -4 -10 -3 -21 4 -12 6 -19 7 -15 1 3 -5 -3 -12 -14 -15 -27 -7
-25 8 2 27 24 17 53 22 44 7z m-1346 -5 c0 -3 -4 -8 -10 -11 -5 -3 -10 -1 -10
4 0 6 5 11 10 11 6 0 10 -2 10 -4z m-30 -24 c0 -4 -15 -16 -32 -26 l-33 -18
30 26 c34 28 35 29 35 18z m-1683 -99 c-2 -21 -4 -6 -4 32 0 39 2 55 4 38 2
-18 2 -50 0 -70z m2533 87 c0 -5 -5 -10 -11 -10 -5 0 -7 5 -4 10 3 6 8 10 11
10 2 0 4 -4 4 -10z m105 0 c3 -5 1 -10 -4 -10 -6 0 -11 5 -11 10 0 6 2 10 4
10 3 0 8 -4 11 -10z m56 -3 c-7 -7 -14 -8 -21 -1 -6 6 -2 10 12 11 16 2 18 -1
9 -10z m-2051 -7 c0 -5 -5 -10 -11 -10 -5 0 -7 5 -4 10 3 6 8 10 11 10 2 0 4
-4 4 -10z m2190 0 c8 -5 11 -10 5 -10 -5 0 -17 5 -25 10 -8 5 -10 10 -5 10 6
0 17 -5 25 -10z m70 0 c12 -8 11 -10 -7 -10 -12 0 -25 5 -28 10 -8 13 15 13
35 0z m1956 -135 c54 -141 55 -154 14 -155 -8 0 -45 32 -82 72 l-68 73 25 -74
c14 -40 22 -77 19 -82 -9 -15 -31 -10 -39 9 -32 82 -96 265 -93 267 17 17 44
2 97 -55 l61 -65 -25 59 c-14 32 -25 63 -25 68 0 9 40 28 53 25 5 -2 33 -65
63 -142z m-1629 129 c-3 -3 -12 -4 -19 -1 -8 3 -5 6 6 6 11 1 17 -2 13 -5z
m-2530 -88 c35 -44 44 -68 16 -38 -26 26 -73 96 -72 108 0 5 6 1 12 -10 7 -10
27 -37 44 -60z m-185 49 c0 -14 -29 -31 -38 -22 -9 8 16 39 28 35 5 -2 10 -8
10 -13z m1218 -13 c-7 -3 -19 3 -28 13 -16 15 -15 16 12 4 15 -7 23 -15 16
-17z m700 9 c0 -5 -7 -11 -14 -14 -10 -4 -13 -1 -9 9 6 15 23 19 23 5z m-1823
-23 c-3 -8 -6 -5 -6 6 -1 11 2 17 5 13 3 -3 4 -12 1 -19z m4011 2 c1 -9 -9
-20 -28 -27 -28 -10 -29 -13 -19 -42 11 -32 23 -37 49 -21 9 6 17 5 22 -3 15
-23 8 -38 -22 -49 -25 -8 -29 -14 -24 -32 10 -34 21 -40 53 -26 34 14 51 7 51
-19 0 -16 -46 -41 -98 -53 -8 -2 -29 39 -57 117 -25 66 -45 125 -45 130 0 12
77 44 100 41 8 -1 16 -8 18 -16z m-4655 -25 c-7 -21 -13 -19 -13 6 0 11 4 18
10 14 5 -3 7 -12 3 -20z m537 -20 c14 -19 14 -19 -2 -6 -10 7 -18 18 -18 24 0
6 1 8 3 6 1 -2 9 -13 17 -24z m-511 -16 c1 8 3 12 6 9 3 -3 2 -13 -1 -22 -5
-14 -9 -15 -15 -4 -5 7 -8 20 -8 28 0 10 3 8 9 -5 5 -12 9 -14 9 -6z m3562 -6
c39 -33 68 -95 69 -145 0 -33 -5 -41 -38 -62 -87 -55 -368 -106 -437 -80 -22
9 -45 57 -45 93 0 25 7 34 39 51 l39 19 11 -30 c14 -41 70 -65 109 -47 15 7
33 26 41 43 13 26 12 33 -6 67 -24 43 -24 43 58 88 70 38 117 39 160 3z m963
-99 c25 -69 46 -131 46 -139 0 -11 -39 -29 -47 -22 -1 2 -16 38 -33 82 l-30
80 6 -64 c5 -48 3 -66 -7 -72 -25 -16 -35 -9 -79 51 -24 33 -45 58 -47 57 -2
-2 14 -50 34 -107 35 -98 36 -103 18 -116 -10 -7 -22 -11 -26 -8 -9 5 -109
307 -109 329 0 12 66 34 74 24 44 -60 98 -129 99 -129 1 0 0 29 -1 65 -4 80 0
95 32 95 22 0 28 -12 70 -126z m-4557 94 c-3 -8 -6 -5 -6 6 -1 11 2 17 5 13 3
-3 4 -12 1 -19z m1018 -28 c3 -5 1 -10 -4 -10 -6 0 -11 5 -11 10 0 6 2 10 4
10 3 0 8 -4 11 -10z m-1772 -23 c52 -9 67 -15 65 -27 -3 -12 -15 -14 -58 -12
-95 5 -110 10 -110 39 0 20 4 24 18 18 9 -4 48 -12 85 -18z m1450 -13 c9 -4
17 -10 17 -16 0 -9 -20 0 -50 22 -13 10 -13 11 0 6 8 -3 23 -9 33 -12z m2042
-39 l70 -24 -3 -35 c-8 -88 110 -118 151 -39 l14 26 16 -24 c9 -13 18 -40 19
-59 l3 -35 -125 -3 c-69 -1 -163 1 -210 5 l-85 8 0 86 c1 128 18 139 150 94z
m-2486 -40 c0 -5 -4 -3 -9 5 -5 8 -9 22 -9 30 0 16 17 -16 18 -35z m3111 2 c0
-12 -39 -37 -56 -37 -5 0 48 49 54 50 1 0 2 -6 2 -13z m-2312 -49 c14 -16 14
-18 -2 -18 -19 0 -40 46 -29 63 5 8 9 5 11 -8 2 -11 11 -28 20 -37z m1802 32
c0 -5 -2 -10 -4 -10 -3 0 -8 5 -11 10 -3 6 -1 10 4 10 6 0 11 -4 11 -10z m60
-60 c-8 -5 -19 -10 -25 -10 -5 0 -3 5 5 10 8 5 20 10 25 10 6 0 3 -5 -5 -10z
m-3865 -59 c33 -7 111 -37 173 -68 97 -47 125 -57 190 -62 63 -6 72 -9 49 -15
-54 -16 -117 1 -241 63 -68 34 -145 66 -176 71 -30 6 -61 18 -70 27 -13 15
-13 15 0 6 8 -6 42 -16 75 -22z m1620 19 c3 -5 1 -10 -4 -10 -6 0 -11 5 -11
10 0 6 2 10 4 10 3 0 8 -4 11 -10z m-640 -130 c9 -16 13 -30 11 -30 -3 0 2
-16 10 -36 12 -28 12 -39 3 -50 -6 -8 -9 -14 -6 -14 3 0 1 -13 -4 -30 -12 -33
-29 -40 -29 -12 0 13 -2 14 -9 3 -5 -7 -14 -10 -20 -7 -6 4 -11 2 -11 -3 0 -6
-5 -11 -11 -11 -6 0 -9 9 -6 20 3 11 1 20 -4 20 -8 0 -14 -31 -10 -53 1 -5 -3
-6 -9 -2 -6 3 -8 11 -4 16 7 11 -17 69 -29 69 -5 0 -5 -4 -2 -10 3 -5 2 -17
-3 -26 -7 -13 -10 -10 -15 16 -8 35 1 60 13 40 6 -9 10 -6 15 9 3 12 11 19 16
16 5 -4 6 2 2 11 -5 13 -3 16 10 11 14 -5 23 5 15 16 -2 2 5 11 15 21 9 10 15
21 12 26 -3 5 3 11 12 13 10 3 19 5 20 6 1 0 9 -12 18 -29z m-658 14 c-3 -3
-12 -4 -19 -1 -8 3 -5 6 6 6 11 1 17 -2 13 -5z m-113 -83 c2 -3 7 -24 10 -46
l5 -40 -11 43 c-14 55 -34 53 -52 -5 -12 -39 -15 -43 -15 -20 -1 16 4 37 10
49 12 23 2 39 -11 18 -8 -13 -10 -12 -10 3 0 9 -4 17 -10 17 -5 0 -10 4 -10 9
0 10 87 -16 94 -28z m36 -11 c0 -5 -4 -10 -10 -10 -5 0 -10 5 -10 10 0 6 5 10
10 10 6 0 10 -4 10 -10z m-122 -40 c-1 -22 -7 -40 -13 -40 -6 0 -9 16 -7 40 2
22 8 40 13 40 6 0 9 -18 7 -40z m212 21 c24 -7 23 -8 -18 -24 -54 -21 -52 -22
-50 8 2 26 18 30 68 16z m473 -11 c3 -11 3 -20 1 -20 -2 0 -8 9 -14 20 -6 11
-7 20 -2 20 6 0 12 -9 15 -20z m3631 11 c6 0 2 -7 -9 -14 -16 -13 -14 -14 25
-20 40 -5 91 -39 78 -52 -3 -3 -52 -8 -109 -10 -57 -3 -124 -7 -149 -10 -25
-3 -70 -7 -100 -10 -30 -3 -72 -8 -92 -11 -20 -3 -52 -7 -70 -8 -18 -2 -58 -6
-88 -10 -30 -3 -75 -8 -99 -11 -25 -2 -64 -7 -88 -11 -30 -4 -43 -3 -43 5 0
19 30 71 41 71 5 0 9 8 7 17 -6 32 39 45 127 36 126 -13 260 -6 375 20 89 20
146 25 194 18z m2200 -22 c22 -25 26 -41 26 -90 0 -63 -18 -112 -45 -123 -9
-3 -430 -6 -936 -6 -1073 0 -959 -15 -959 124 0 140 -109 126 970 126 l918 0
26 -31z m-6384 1 c0 -11 -4 -20 -9 -20 -5 0 -7 9 -4 20 3 11 7 20 9 20 2 0 4
-9 4 -20z m570 -46 c0 -14 -4 -23 -9 -20 -5 3 -7 15 -4 26 7 28 13 25 13 -6z
m-764 -109 c-9 -9 -16 -13 -16 -8 0 12 22 34 28 28 2 -2 -3 -11 -12 -20z m78
6 c-8 -8 -44 -8 -44 1 0 4 11 7 25 6 13 -1 22 -4 19 -7z m-37 -37 c-3 -3 -12
-4 -19 -1 -8 3 -5 6 6 6 11 1 17 -2 13 -5z m2430 -50 c-2 -3 -12 -2 -21 2 -16
6 -16 8 1 26 18 20 18 20 21 -2 2 -12 2 -24 -1 -26z m2133 -4 c-31 -24 -120
-73 -120 -66 0 5 132 86 140 86 3 0 -6 -9 -20 -20z"/>
<path d="M3440 2193 c0 -4 5 -15 10 -23 8 -13 10 -13 10 2 0 9 -4 20 -10 23
-5 3 -10 3 -10 -2z"/>
<path d="M3660 1935 c0 -12 38 -46 43 -38 3 4 -6 16 -19 26 -13 10 -24 15 -24
12z"/>
<path d="M3594 1899 c-3 -6 -2 -15 3 -20 5 -5 9 -1 9 11 0 23 -2 24 -12 9z"/>
<path d="M3453 1876 c0 -14 4 -23 9 -20 5 4 22 -5 36 -19 31 -28 65 -47 84
-47 9 0 9 3 -2 10 -8 5 -11 10 -5 10 5 0 -8 9 -30 21 -22 12 -52 32 -66 46
l-26 24 0 -25z"/>
<path d="M3745 1870 c-3 -6 1 -17 9 -26 9 -8 16 -11 16 -5 0 5 -5 13 -10 16
-6 4 -8 11 -5 16 4 5 4 9 1 9 -3 0 -8 -5 -11 -10z"/>
<path d="M3361 1836 c-7 -8 -8 -17 -3 -20 6 -3 12 3 15 14 6 24 4 25 -12 6z"/>
<path d="M3370 1796 c0 -2 7 -7 16 -10 8 -3 12 -2 9 4 -6 10 -25 14 -25 6z"/>
<path d="M3687 1763 c-8 -18 -1 -36 16 -39 9 -1 17 2 17 7 0 6 5 7 12 3 7 -4
8 -3 4 4 -4 7 -16 12 -27 12 -11 0 -17 5 -14 10 3 6 4 10 1 10 -3 0 -7 -3 -9
-7z"/>
<path d="M3577 1735 c4 -16 20 -48 38 -70 41 -55 58 -119 53 -199 -2 -36 0
-60 4 -53 4 6 8 47 8 89 0 93 -27 174 -75 227 l-33 36 5 -30z"/>
<path d="M3830 1748 c0 -9 5 -20 10 -23 13 -8 13 5 0 25 -8 13 -10 13 -10 -2z"/>
<path d="M2927 1700 c-50 -43 -80 -120 -81 -205 -1 -77 9 -125 25 -125 6 0 6
6 -1 19 -15 29 -12 131 6 184 22 65 81 117 133 117 42 0 86 -27 96 -61 4 -11
9 -18 12 -15 9 8 -46 95 -67 106 -37 20 -87 12 -123 -20z"/>
<path d="M3376 1680 c-23 -58 -20 -62 9 -11 28 48 29 51 16 51 -5 0 -16 -18
-25 -40z"/>
<path d="M3686 1699 c3 -5 12 -9 20 -9 8 0 14 -7 14 -15 0 -8 9 -20 19 -27 10
-6 17 -17 15 -23 -3 -6 7 -33 20 -60 14 -26 22 -53 19 -58 -4 -6 1 -8 10 -4
19 7 20 -3 18 -106 -1 -37 3 -56 9 -52 6 3 10 -4 10 -17 0 -17 2 -20 9 -9 5 8
7 20 4 28 -3 7 0 13 5 13 7 0 8 10 2 29 -4 15 -4 35 1 42 5 8 6 22 3 32 -3 10
0 24 6 32 10 12 10 15 0 15 -7 0 -10 7 -6 16 3 8 2 12 -4 9 -6 -3 -10 3 -10
14 0 48 -24 110 -47 120 -32 15 -36 14 -29 -5 5 -13 4 -14 -7 -6 -8 7 -17 9
-21 5 -4 -4 -4 0 -1 9 4 9 -1 18 -12 24 -26 11 -53 13 -47 3z m134 -60 c0 -15
-18 -19 -23 -6 -3 8 1 14 9 14 8 0 14 -4 14 -8z"/>
<path d="M3750 1701 c0 -6 5 -13 10 -16 6 -3 10 1 10 9 0 9 -4 16 -10 16 -5 0
-10 -4 -10 -9z"/>
<path d="M3790 1692 c0 -5 7 -9 15 -9 8 0 12 4 9 9 -3 4 -9 8 -15 8 -5 0 -9
-4 -9 -8z"/>
<path d="M3850 1617 c0 -7 7 -22 15 -33 8 -10 15 -28 15 -39 1 -13 4 -15 7 -6
7 16 -17 91 -29 91 -4 0 -8 -6 -8 -13z"/>
<path d="M3419 1578 c-41 -14 -72 -80 -67 -139 8 -80 60 -121 123 -95 47 20
68 65 63 133 -7 81 -55 122 -119 101z m81 -63 c0 -8 -4 -15 -10 -15 -5 0 -10
7 -10 15 0 8 5 15 10 15 6 0 10 -7 10 -15z m-129 -58 c-10 -9 -11 -8 -5 6 3
10 9 15 12 12 3 -3 0 -11 -7 -18z m68 -67 c15 0 32 5 39 12 20 20 26 -1 7 -22
-11 -12 -31 -20 -51 -20 -27 0 -36 6 -49 30 -22 42 -18 60 6 28 14 -19 30 -28
48 -28z"/>
<path d="M3015 1548 c-46 -26 -63 -83 -43 -143 10 -30 20 -41 43 -47 l30 -8
-27 23 c-24 20 -33 41 -29 72 0 5 9 -6 20 -25 22 -42 63 -60 92 -41 12 7 23
10 25 8 9 -9 -8 -35 -29 -45 -21 -10 -21 -11 5 -11 31 -1 44 17 54 76 8 51
-18 108 -60 134 -35 22 -53 23 -81 7z m95 -49 c0 -5 -7 -9 -15 -9 -15 0 -20
12 -9 23 8 8 24 -1 24 -14z"/>
<path d="M3811 1284 c0 -11 3 -14 6 -6 3 7 2 16 -1 19 -3 4 -6 -2 -5 -13z"/>
<path d="M2860 1236 c0 -8 -4 -18 -10 -21 -6 -4 -7 1 -3 12 7 19 5 18 -15 -8
-10 -14 -10 -18 3 -22 10 -4 20 4 30 23 9 17 11 30 5 30 -5 0 -10 -6 -10 -14z"/>
<path d="M3822 1215 c-17 -37 -14 -45 4 -12 9 16 14 31 11 33 -2 2 -9 -7 -15
-21z"/>
<path d="M3164 1065 c-7 -18 62 -105 84 -105 15 0 92 48 92 57 0 2 -15 1 -34
-2 -24 -5 -48 -1 -80 14 -46 20 -65 48 -26 38 11 -3 18 -1 14 4 -8 14 -44 10
-50 -6z"/>
<path d="M2650 1031 c-8 -4 -37 -18 -64 -31 -62 -31 -131 -98 -139 -136 -7
-37 -1 -44 12 -13 13 32 38 60 82 92 41 30 51 33 43 13 -8 -22 15 -59 29 -48
7 5 32 17 57 26 54 20 62 49 18 69 -16 6 -26 18 -23 24 5 15 5 15 -15 4z m-30
-103 c0 -5 -4 -8 -10 -8 -5 0 -10 10 -10 23 0 18 2 19 10 7 5 -8 10 -18 10
-22z"/>
<path d="M3288 1033 c7 -3 16 -2 19 1 4 3 -2 6 -13 5 -11 0 -14 -3 -6 -6z"/>
<path d="M2462 662 c-17 -17 -48 -36 -69 -42 -56 -18 -63 -27 -63 -81 0 -44
17 -79 39 -79 15 0 91 62 86 70 -11 18 83 43 135 36 64 -9 65 5 8 68 -57 62
-94 69 -136 28z m83 -12 c3 -5 -3 -11 -14 -15 -10 -3 -21 -14 -24 -24 -4 -18
-75 -56 -116 -62 -35 -6 -37 17 -4 37 15 10 44 32 64 50 27 24 43 30 63 27 14
-3 29 -9 31 -13z"/>
<path d="M3405 550 c6 -24 5 -24 -9 -6 -19 24 -21 7 -3 -18 13 -18 14 -18 20
-2 4 10 2 25 -3 34 -9 14 -10 12 -5 -8z"/>
<path d="M3426 471 c-3 -5 4 -17 17 -27 15 -14 18 -14 9 -2 -10 13 -10 17 0
20 8 3 6 6 -5 11 -9 3 -19 2 -21 -2z"/>
<path d="M3047 396 c-37 -34 -34 -48 6 -31 22 9 31 19 29 32 -5 26 -6 26 -35
-1z"/>
<path d="M2246 1979 c-20 -30 -6 -63 28 -67 33 -4 56 13 56 42 0 47 -57 63
-84 25z m43 -57 c-14 -5 -39 6 -39 17 0 5 11 4 25 -2 13 -7 20 -14 14 -15z"/>
<path d="M2590 1966 c0 -17 -10 -41 -22 -54 l-23 -25 22 14 c27 16 45 60 32
80 -6 10 -9 6 -9 -15z"/>
<path d="M2026 1924 c-9 -8 -16 -20 -16 -25 0 -51 71 -69 92 -24 21 46 -40 86
-76 49z m39 -57 c19 -4 19 -5 -1 -6 -12 0 -28 7 -35 17 -12 15 -12 16 1 6 8
-7 24 -14 35 -17z"/>
<path d="M2463 1854 c-18 -8 -33 -19 -33 -24 0 -13 47 -13 55 0 4 7 -3 9 -22
5 -22 -5 -20 -2 12 14 46 22 36 27 -12 5z"/>
<path d="M270 2083 c-34 -23 -50 -46 -45 -61 3 -7 0 -10 -5 -7 -11 7 -24 -36
-17 -62 3 -11 5 -7 6 12 2 29 3 28 19 -15 21 -53 52 -72 107 -67 22 3 34 3 28
0 -7 -3 -13 -9 -13 -14 0 -5 13 -3 30 6 35 18 58 59 66 118 6 39 3 46 -26 75
-26 27 -39 32 -79 32 -27 0 -57 -7 -71 -17z m134 -52 c16 -17 16 -20 1 -35
-18 -18 -41 -21 -49 -7 -3 5 -16 7 -28 3 -14 -3 -19 -2 -14 7 4 6 12 9 17 6 5
-4 9 2 9 13 0 37 36 44 64 13z m-87 -127 c-9 -9 -28 6 -21 18 4 6 10 6 17 -1
6 -6 8 -13 4 -17z"/>
<path d="M521 2039 c-24 -14 -32 -25 -28 -39 3 -11 1 -20 -3 -20 -16 0 12 -75
38 -102 30 -33 83 -45 119 -29 14 7 28 9 31 7 3 -3 -10 -13 -29 -21 -33 -16
-33 -16 -4 -10 61 13 94 72 74 133 -29 91 -120 129 -198 81z m137 -51 c27 -27
5 -71 -23 -48 -8 6 -19 9 -25 5 -5 -3 -10 -1 -10 4 0 6 5 11 11 11 6 0 9 6 6
14 -10 26 19 36 41 14z m-58 -107 c0 -6 -4 -13 -10 -16 -5 -3 -10 1 -10 9 0 9
5 16 10 16 6 0 10 -4 10 -9z"/>
<path d="M532 1844 c10 -10 20 -16 22 -13 3 3 -5 11 -17 18 -21 13 -21 12 -5
-5z"/>
<path d="M418 1713 c-23 -6 -23 -16 3 -39 20 -18 21 -18 35 1 24 32 6 50 -38
38z"/>
<path d="M4430 1496 c0 -2 7 -7 16 -10 8 -3 12 -2 9 4 -6 10 -25 14 -25 6z"/>
<path d="M4057 1264 c3 -8 10 -13 15 -12 16 6 14 21 -4 24 -11 1 -15 -3 -11
-12z"/>
<path d="M5806 1401 c-4 -7 -5 -15 -2 -18 9 -9 19 4 14 18 -4 11 -6 11 -12 0z"/>
<path d="M5198 2025 c-51 -28 -62 -75 -27 -119 28 -35 80 -36 114 -1 64 63 -9
163 -87 120z m22 -45 c0 -5 -4 -10 -10 -10 -5 0 -10 5 -10 10 0 6 5 10 10 10
6 0 10 -4 10 -10z m54 -61 c-9 -10 -29 -19 -43 -19 l-26 0 30 16 c16 8 34 23
39 32 7 12 11 13 14 4 2 -7 -4 -22 -14 -33z"/>
<path d="M4975 1941 c-78 -33 -63 -151 19 -151 48 0 91 47 82 92 -3 18 -7 38
-8 43 -1 6 -8 11 -17 12 -9 1 -25 4 -36 7 -11 3 -29 1 -40 -3z m15 -51 c0 -5
-4 -10 -10 -10 -5 0 -10 5 -10 10 0 6 5 10 10 10 6 0 10 -4 10 -10z m44 -67
c-32 -24 -43 -14 -16 15 20 20 28 23 31 13 2 -8 -5 -21 -15 -28z"/>
<path d="M4736 1933 c-6 -14 -5 -15 5 -6 7 7 10 15 7 18 -3 3 -9 -2 -12 -12z"/>
<path d="M1061 1764 c0 -11 3 -14 6 -6 3 7 2 16 -1 19 -3 4 -6 -2 -5 -13z"/>
<path d="M5260 1583 c0 -4 5 -15 10 -23 8 -13 10 -13 10 2 0 9 -4 20 -10 23
-5 3 -10 3 -10 -2z"/>
<path d="M5328 1503 c7 -3 16 -2 19 1 4 3 -2 6 -13 5 -11 0 -14 -3 -6 -6z"/>
<path d="M5399 1399 c-9 -5 -9 -9 -2 -9 6 0 18 -3 27 -6 9 -3 16 -2 16 4 0 15
-25 21 -41 11z"/>
<path d="M5213 1176 c-3 -6 -2 -7 2 -3 5 4 15 -3 22 -15 7 -13 12 -17 13 -9 0
8 6 11 16 7 9 -3 12 -2 9 5 -4 6 -14 8 -22 5 -10 -4 -13 -2 -10 7 6 16 -21 19
-30 3z"/>
<path d="M5300 1143 c0 -5 -10 -9 -21 -9 -33 1 -31 -27 7 -86 l34 -53 -6 75
c-4 41 -8 77 -10 79 -2 2 -4 0 -4 -6z"/>
<path d="M6190 1377 c0 -40 3 -47 19 -47 32 0 34 17 6 57 l-25 38 0 -48z"/>
<path d="M5977 1393 c-21 -5 -18 -32 10 -91 13 -26 18 -30 30 -21 11 9 17 9
26 0 9 -10 8 -11 -5 -6 -12 5 -17 2 -16 -12 0 -10 -1 -24 -3 -32 -6 -21 25
-25 44 -7 15 16 11 57 -12 118 -10 27 -38 59 -49 57 -4 -1 -15 -3 -25 -6z m53
-77 c0 -2 -8 -10 -17 -17 -16 -13 -17 -12 -4 4 13 16 21 21 21 13z"/>
<path d="M504 1185 c-3 -8 -3 -19 1 -25 3 -5 1 -10 -4 -10 -6 0 -11 -4 -11
-10 0 -15 27 -12 44 6 20 19 47 12 89 -25 37 -32 72 -38 56 -10 -15 28 -66 60
-120 74 -42 11 -51 11 -55 0z"/>
<path d="M557 1139 c7 -7 15 -10 18 -7 3 3 -2 9 -12 12 -14 6 -15 5 -6 -5z"/>
<path d="M5577 1254 c-4 -5 8 -40 29 -82 5 -11 34 14 34 30 0 42 -39 75 -63
52z"/>
<path d="M4937 1088 c-16 -12 -16 -17 12 -93 44 -119 69 -175 80 -175 22 0 59
20 64 34 8 20 -46 182 -71 216 -22 29 -59 37 -85 18z"/>
<path d="M4935 395 c-22 -21 -25 -33 -25 -93 0 -59 3 -72 23 -90 l23 -22 910
0 c807 0 912 2 932 16 20 13 22 24 22 95 0 133 110 119 -950 119 l-911 0 -24
-25z m114 -49 c20 -24 9 -69 -20 -85 -42 -23 -55 -11 -51 48 4 48 5 51 32 51
15 0 33 -6 39 -14z m1250 0 c7 -8 11 -30 9 -48 -3 -30 -6 -33 -40 -36 l-38 -3
0 50 c0 49 1 51 29 51 16 0 34 -6 40 -14z m51 10 c0 -3 -4 -8 -10 -11 -5 -3
-10 -1 -10 4 0 6 5 11 10 11 6 0 10 -2 10 -4z m385 -46 c8 0 15 -4 15 -10 0
-5 -9 -10 -20 -10 -11 0 -20 -7 -20 -15 0 -8 -4 -15 -10 -15 -5 0 -7 7 -4 15
4 10 0 15 -15 15 -12 0 -21 5 -21 10 0 6 9 10 20 10 14 0 20 7 21 23 l0 22 9
-22 c5 -13 16 -23 25 -23z m-1595 -14 c0 -32 -26 -53 -48 -39 -24 14 -27 54
-7 70 24 17 55 -1 55 -31z m70 18 c0 -2 -11 -2 -25 2 -14 3 -25 3 -25 0 0 -4
11 -11 25 -16 14 -5 25 -16 25 -24 0 -16 -34 -31 -50 -21 -18 11 -11 23 10 18
11 -3 20 0 20 6 0 6 -7 11 -15 11 -21 0 -31 30 -14 40 12 8 49 -4 49 -16z
m100 7 c0 -4 -10 -7 -22 -7 -17 1 -23 -5 -23 -19 0 -14 6 -20 23 -19 12 0 21
-4 19 -10 -6 -19 -39 -12 -54 11 -13 19 -12 24 6 42 19 19 51 20 51 2z m110
-31 c0 -17 -4 -30 -10 -30 -5 0 -10 14 -10 31 0 24 -4 30 -17 27 -12 -2 -18
-13 -18 -31 1 -15 -3 -27 -7 -27 -4 0 -8 15 -8 34 0 25 5 36 18 39 30 6 52
-12 52 -43z m64 34 c20 -20 12 -34 -20 -34 -13 0 -24 -5 -24 -11 0 -7 10 -9
25 -7 28 6 34 -6 9 -16 -35 -13 -60 44 -32 72 16 16 23 15 42 -4z m136 -34 c0
-17 -4 -30 -10 -30 -5 0 -10 14 -10 30 0 20 -5 30 -15 30 -10 0 -15 -10 -15
-30 0 -16 -4 -30 -10 -30 -5 0 -10 14 -10 30 0 20 -5 30 -15 30 -10 0 -15 -10
-15 -30 0 -16 -4 -30 -9 -30 -5 0 -9 16 -8 36 2 33 4 35 34 32 18 -1 35 1 39
4 15 15 44 -13 44 -42z m54 44 c25 -10 21 -71 -5 -79 -12 -4 -26 -2 -31 3 -16
16 -2 42 22 42 11 0 20 5 20 11 0 7 -10 9 -25 5 -25 -6 -36 8 -12 17 6 3 13 6
14 6 1 1 8 -2 17 -5z m86 -14 c0 -5 -9 -6 -20 -3 -27 7 -25 -10 3 -22 25 -11
27 -25 4 -39 -12 -8 -21 -6 -33 5 -15 15 -14 16 12 11 19 -3 25 -1 20 7 -4 6
-13 11 -21 11 -20 0 -26 28 -8 39 18 9 43 4 43 -9z m104 4 c9 -8 16 -22 16
-29 0 -20 -30 -47 -46 -41 -8 3 -14 -1 -14 -9 0 -8 -4 -15 -10 -15 -5 0 -10
22 -10 49 0 43 3 50 23 54 12 2 23 5 24 6 1 0 9 -6 17 -15z m74 4 c21 -21 15
-65 -10 -71 -29 -8 -52 11 -37 29 6 8 18 14 25 14 8 0 14 5 14 11 0 6 -9 9
-20 6 -22 -6 -28 8 -7 16 19 8 22 8 35 -5z m116 6 c25 -10 21 -71 -5 -79 -12
-4 -26 -2 -31 3 -16 16 -2 42 22 42 11 0 20 5 20 11 0 7 -10 9 -27 4 -23 -5
-25 -4 -14 9 15 18 14 18 35 10z m133 -32 c4 -18 1 -29 -12 -39 -24 -17 -30
-16 -49 3 -21 20 -20 30 4 54 24 24 48 17 57 -18z m-847 -7 c0 -19 -4 -35 -8
-35 -5 0 -9 16 -9 35 0 19 4 35 9 35 4 0 8 -16 8 -35z m653 28 c-7 -2 -13 -18
-13 -34 0 -16 -4 -29 -10 -29 -5 0 -10 16 -10 35 0 30 3 35 23 34 12 0 16 -3
10 -6z m353 -28 c0 -19 -3 -35 -8 -35 -4 0 -8 16 -8 35 0 19 3 35 8 35 4 0 7
-16 8 -35z m70 24 c4 -8 0 -9 -15 -4 -12 4 -21 2 -21 -4 0 -6 6 -11 14 -11 8
0 18 -5 22 -11 9 -16 -20 -41 -39 -33 -25 9 -21 23 6 18 l22 -5 -22 17 c-13 9
-23 23 -23 30 0 17 46 19 56 3z m82 -26 c4 -38 -15 -45 -20 -8 -4 35 -22 36
-26 3 -5 -41 -22 -34 -22 8 0 34 1 35 33 32 28 -3 32 -7 35 -35z m80 15 c3
-13 -3 -18 -22 -18 -14 0 -26 -5 -26 -11 0 -7 10 -9 28 -4 25 6 26 5 11 -10
-13 -14 -21 -15 -38 -6 -20 11 -29 50 -14 65 13 13 58 1 61 -16z m29 2 c3 -11
9 -20 13 -20 4 0 10 9 13 20 3 11 10 20 16 20 5 0 1 -22 -11 -50 -12 -28 -27
-50 -36 -50 -11 0 -12 3 -3 14 9 11 9 22 -3 50 -9 22 -11 36 -5 36 6 0 13 -9
16 -20z"/>
<path d="M4997 343 c-4 -3 -7 -21 -7 -40 0 -26 4 -33 20 -33 10 0 24 9 30 19
13 25 13 27 -6 45 -17 17 -27 20 -37 9z"/>
<path d="M6250 305 c0 -37 18 -47 40 -20 16 19 3 55 -21 55 -15 0 -19 -7 -19
-35z"/>
<path d="M5084 305 c-4 -9 -2 -21 4 -27 15 -15 44 -1 40 19 -4 23 -36 29 -44
8z"/>
<path d="M5445 310 c-3 -5 3 -10 14 -10 12 0 21 5 21 10 0 6 -6 10 -14 10 -8
0 -18 -4 -21 -10z"/>
<path d="M5645 280 c-3 -5 3 -10 14 -10 12 0 21 5 21 10 0 6 -6 10 -14 10 -8
0 -18 -4 -21 -10z"/>
<path d="M5827 313 c-4 -3 -7 -15 -7 -25 0 -21 36 -25 43 -5 9 27 -17 50 -36
30z"/>
<path d="M5905 280 c-3 -5 1 -10 9 -10 8 0 18 5 21 10 3 6 -1 10 -9 10 -8 0
-18 -4 -21 -10z"/>
<path d="M6025 280 c-3 -5 3 -10 14 -10 12 0 21 5 21 10 0 6 -6 10 -14 10 -8
0 -18 -4 -21 -10z"/>
<path d="M6137 313 c-4 -3 -7 -15 -7 -25 0 -21 36 -25 43 -5 9 27 -17 50 -36
30z"/>
<path d="M6530 310 c0 -5 7 -10 15 -10 8 0 15 5 15 10 0 6 -7 10 -15 10 -8 0
-15 -4 -15 -10z"/>
</g>
</svg>
