<?xml version="1.0" standalone="no"?>
<!DOCTYPE svg PUBLIC "-//W3C//DTD SVG 20010904//EN"
 "http://www.w3.org/TR/2001/REC-SVG-20010904/DTD/svg10.dtd">
<svg version="1.0" xmlns="http://www.w3.org/2000/svg"
 width="1000.000000pt" height="1000.000000pt" viewBox="0 0 1000.000000 1000.000000"
 preserveAspectRatio="xMidYMid meet">

<g transform="translate(0.000000,1000.000000) scale(0.100000,-0.100000)"
fill="#000000" stroke="none">
<path d="M1710 7950 c-6 -11 -15 -20 -21 -20 -6 0 -7 5 -4 10 3 6 1 10 -4 10
-6 0 -11 -5 -11 -11 0 -5 -4 -7 -10 -4 -6 4 -7 -1 -3 -11 4 -12 3 -15 -5 -10
-7 4 -12 2 -12 -5 0 -9 -4 -8 -12 3 -15 18 -92 33 -82 16 5 -7 2 -9 -9 -5 -9
3 -31 -4 -50 -17 -19 -13 -38 -25 -44 -27 -6 -2 -182 -101 -392 -219 l-381
-215 0 -2447 0 -2447 127 -72 c71 -39 297 -167 503 -284 206 -117 1123 -636
2037 -1154 l1663 -940 2162 1224 2163 1224 2 2448 3 2448 -168 94 c-92 52
-249 141 -350 198 -101 57 -191 107 -200 110 -9 3 -24 11 -32 18 -29 23 -131
75 -124 62 4 -6 -1 -5 -12 4 -10 9 -31 17 -46 17 -24 0 -25 -2 -12 -15 18 -19
10 -30 -10 -14 -8 6 -18 11 -22 10 -30 -5 -54 3 -54 19 -1 10 -6 6 -14 -13 -8
-19 -15 -25 -20 -17 -4 7 -2 12 3 12 6 0 11 5 11 10 0 7 -6 7 -18 1 -10 -6
-24 -6 -32 -1 -16 10 -33 3 -25 -10 10 -17 -28 -3 -41 15 -11 14 -14 15 -14 4
0 -8 6 -21 13 -29 10 -12 9 -12 -3 -3 -9 7 -28 10 -43 9 -15 -2 -32 3 -38 10
-15 18 -35 18 -43 -1 -3 -8 -11 -15 -18 -15 -10 0 -10 2 -1 8 9 6 7 11 -8 20
-16 10 -20 10 -18 0 1 -7 1 -21 0 -31 -1 -15 -4 -16 -23 -5 -13 6 -30 13 -38
14 -8 2 -30 6 -47 9 -23 4 -33 2 -33 -7 0 -9 -3 -9 -12 0 -9 9 -15 7 -25 -6
-8 -9 -12 -12 -8 -5 3 7 -4 17 -15 23 -17 9 -20 8 -20 -7 -1 -17 -1 -17 -11 0
-10 17 -13 17 -34 3 -14 -9 -30 -16 -37 -15 -7 0 -3 5 10 11 12 6 22 15 22 20
0 5 -9 4 -20 -2 -11 -6 -26 -8 -32 -4 -8 5 -9 1 -4 -11 6 -18 6 -18 -15 1 -15
12 -20 14 -15 4 4 -8 0 -6 -8 4 -9 11 -16 14 -16 8 0 -16 -33 -15 -48 0 -7 7
-12 8 -12 4 0 -5 -6 -4 -13 2 -10 8 -13 6 -14 -9 -2 -22 7 -25 25 -7 14 14 16
0 3 -20 -9 -15 -31 -6 -75 28 -18 14 -19 13 -13 -4 7 -18 6 -18 -18 -2 -23 15
-25 15 -25 0 0 -13 -6 -15 -27 -9 -15 3 -31 12 -35 18 -5 8 -8 6 -8 -5 0 -10
-7 -18 -15 -18 -9 0 -28 8 -42 18 -15 9 -24 11 -20 5 5 -8 3 -13 -5 -14 -7 0
-4 -4 6 -8 19 -7 19 -8 -2 -13 -12 -3 -21 -3 -20 1 2 18 -4 22 -17 11 -8 -7
-12 -17 -9 -22 4 -6 -4 -4 -17 3 -23 12 -23 12 -4 20 14 5 15 8 5 8 -9 1 -22
-5 -29 -11 -11 -11 -13 -9 -9 8 3 13 0 21 -8 21 -7 0 -12 -3 -10 -6 2 -3 -12
-14 -31 -24 -19 -9 -32 -13 -29 -8 6 9 -12 18 -53 26 -14 3 -18 0 -14 -11 3
-8 12 -13 19 -10 8 3 14 1 14 -4 0 -13 -27 -13 -36 1 -3 6 -18 8 -33 5 -14 -4
-21 -3 -16 1 6 4 11 15 13 23 2 10 -6 6 -23 -10 -17 -16 -24 -19 -20 -8 5 13
1 17 -24 16 -17 -1 -31 -4 -31 -8 0 -15 -32 -20 -45 -6 -8 7 -12 16 -9 19 3 2
-2 7 -9 10 -11 4 -14 -1 -11 -16 2 -12 2 -16 -2 -9 -8 17 -27 15 -21 -3 9 -22
-10 -28 -23 -8 -10 16 -11 15 -6 -7 4 -22 4 -23 -8 -8 -7 10 -15 17 -17 15 -3
-1 4 7 16 17 18 17 18 19 2 13 -10 -4 -23 -7 -28 -7 -5 0 -9 -6 -9 -14 0 -20
-17 -29 -26 -15 -4 8 -3 9 4 5 7 -4 12 -1 12 8 0 24 -43 14 -56 -13 -10 -19
-12 -20 -18 -6 -3 9 -10 13 -16 10 -5 -3 -10 -2 -10 4 0 6 -16 8 -37 6 -21 -2
-37 -8 -36 -13 1 -6 -7 -8 -18 -5 -18 5 -19 6 -2 19 17 12 17 13 -2 9 -11 -2
-23 -4 -27 -4 -5 -1 -8 -8 -8 -16 0 -8 -4 -15 -9 -15 -5 0 -7 10 -5 23 2 12 2
16 -2 10 -3 -7 -12 -13 -20 -13 -9 0 -13 5 -9 13 4 6 -1 3 -9 -7 -12 -15 -16
-16 -16 -5 -1 10 -4 9 -11 -4 -8 -14 -14 -16 -25 -6 -11 9 -14 9 -14 -1 0 -8
-3 -11 -6 -7 -3 3 -3 11 1 17 5 8 11 7 23 -2 15 -11 15 -11 4 4 -8 10 -25 15
-47 14 -27 -3 -32 0 -27 13 5 14 4 14 -10 1 -9 -8 -15 -19 -15 -24 1 -5 -4
-11 -12 -14 -8 -2 -11 0 -7 6 3 5 -1 12 -9 16 -8 3 -14 0 -12 -6 1 -6 -3 -12
-9 -15 -7 -2 -11 2 -10 9 0 7 -3 13 -9 13 -5 0 -10 -8 -10 -17 -1 -10 -5 -21
-10 -25 -4 -5 -5 0 -2 10 4 9 2 17 -3 17 -5 0 -7 8 -4 18 5 13 4 14 -4 3 -5
-7 -15 -11 -21 -7 -5 4 -19 -2 -29 -12 -18 -18 -42 -19 -42 -1 0 4 6 6 14 3 7
-3 16 2 20 12 5 13 4 14 -7 6 -8 -7 -17 -9 -20 -6 -3 4 -13 -1 -23 -10 -12
-12 -20 -14 -29 -6 -9 8 -15 8 -20 0 -3 -6 -11 -7 -17 -4 -8 5 -9 1 -5 -10 4
-10 3 -15 -4 -11 -5 4 -7 14 -5 23 5 13 -1 17 -22 17 -15 0 -31 -4 -37 -10 -5
-6 -9 -9 -8 -6 3 4 -24 31 -31 31 -3 0 -3 -6 0 -14 9 -23 -18 -31 -33 -11 -9
14 -13 15 -13 4 0 -8 -10 -20 -22 -28 -18 -10 -20 -11 -10 0 17 18 15 34 -3
19 -12 -10 -16 -9 -21 5 -5 13 -9 14 -15 4 -9 -16 -39 -21 -39 -7 0 6 7 8 15
4 8 -3 15 -1 15 4 0 16 -30 11 -36 -5 -4 -8 -10 -15 -16 -15 -5 0 -7 4 -4 8 2
4 0 14 -5 22 -8 13 -10 13 -18 0 -7 -9 -6 -17 1 -21 5 -4 -2 -6 -16 -6 -15 0
-29 4 -33 10 -4 6 -1 7 7 2 9 -5 11 -4 6 4 -6 9 -11 9 -22 0 -8 -6 -14 -8 -14
-3 0 5 -5 1 -11 -9 -12 -20 -31 -13 -22 8 3 8 1 15 -5 15 -5 0 -13 -8 -16 -17
-5 -12 -9 -14 -14 -6 -10 16 -44 12 -60 -7 -12 -13 -13 -12 -9 8 4 14 0 22 -9
22 -8 0 -14 -4 -14 -10 0 -5 -4 -10 -10 -10 -5 0 -7 6 -4 14 4 11 0 13 -15 9
-12 -3 -21 -9 -21 -14 0 -5 -8 -9 -17 -9 -15 0 -16 2 -3 10 13 8 12 10 -2 10
-10 0 -18 -7 -18 -15 0 -8 -4 -15 -10 -15 -5 0 -7 6 -5 13 4 8 -6 12 -26 13
l-32 1 24 -14 24 -14 -24 7 c-17 4 -21 3 -16 -6 6 -9 3 -9 -12 -1 -11 6 -24 7
-28 3 -5 -4 -5 -1 -1 6 4 7 12 10 17 7 5 -4 9 -4 9 -1 0 3 -9 10 -20 16 -15 8
-25 7 -41 -4 -20 -13 -20 -14 -2 -18 10 -3 0 -5 -22 -5 -22 0 -47 6 -56 14
-18 15 -39 14 -52 -2 -5 -6 -12 -5 -20 5 -14 18 -42 26 -31 9 4 -8 -1 -9 -17
-5 -24 7 -24 7 1 -8 19 -11 27 -11 33 -3 6 8 7 8 5 -2 -2 -8 -16 -15 -30 -15
-15 -1 -24 2 -22 6 3 4 -4 8 -15 8 -11 0 -23 4 -26 10 -4 6 -16 5 -34 -4 -15
-8 -36 -13 -47 -12 -10 2 -25 -2 -33 -8 -11 -9 -13 -8 -9 4 3 8 13 14 22 14
26 -3 19 13 -9 18 -13 3 -22 1 -19 -3 3 -5 0 -9 -6 -9 -6 0 -8 -4 -5 -10 3 -5
2 -10 -4 -10 -5 0 -11 6 -14 13 -3 9 -7 9 -17 0 -7 -6 -19 -9 -27 -6 -12 5
-12 7 -1 14 10 7 10 9 0 9 -7 0 -15 -7 -18 -15 -4 -8 -12 -15 -20 -15 -17 0
-19 17 -2 22 6 2 -9 4 -35 4 -27 0 -42 -3 -35 -8 9 -5 5 -8 -10 -8 -13 0 -21
4 -18 9 6 10 -24 25 -32 16 -3 -3 -1 -5 5 -5 5 0 10 -7 10 -15 0 -8 -3 -13 -5
-10 -3 3 -11 0 -19 -7 -11 -8 -12 -7 -7 6 4 11 1 16 -10 16 -10 0 -14 6 -10
18 5 16 5 16 -6 0 -11 -18 -36 -26 -25 -8 3 5 -6 3 -21 -5 -35 -18 -60 -10
-42 14 11 14 11 14 -3 4 -9 -7 -19 -10 -23 -6 -4 4 -4 0 0 -10 5 -14 1 -16
-27 -13 -19 2 -44 0 -57 -5 -16 -6 -21 -6 -16 2 5 8 2 9 -11 1 -14 -7 -25 -5
-47 11 -23 17 -31 18 -41 8 -10 -10 -8 -11 6 -6 9 4 17 3 17 -1 0 -5 -16 -9
-36 -10 -31 -1 -34 1 -20 11 25 19 19 27 -7 10 -13 -8 -27 -12 -30 -8 -4 3
-17 -2 -29 -13 -21 -19 -21 -19 -16 2 3 13 0 21 -7 21 -7 0 -12 -8 -10 -18 2
-10 -3 -20 -11 -23 -8 -3 -14 -1 -14 4 0 5 -7 7 -16 3 -13 -5 -15 -1 -9 18 5
18 4 21 -4 9 -10 -13 -15 -8 -12 12 0 4 -6 5 -14 2 -8 -4 -15 -10 -15 -14 0
-11 -122 -4 -129 8 -3 6 -12 3 -21 -6 -13 -14 -12 -15 5 -8 19 7 19 7 0 -12
-20 -19 -20 -19 -27 0 -4 11 -12 16 -18 13 -6 -4 -8 -10 -5 -15 3 -5 1 -11 -4
-14 -5 -4 -13 3 -16 15 -4 11 -13 18 -20 16 -7 -3 -18 0 -24 6 -6 6 -11 7 -11
1 0 -5 5 -15 11 -21 8 -8 7 -13 -2 -18 -8 -5 -10 -4 -5 3 6 11 -5 16 -26 13
-4 0 -4 7 -1 16 4 11 3 14 -5 9 -7 -4 -12 -15 -13 -24 0 -10 -3 -12 -5 -5 -3
7 -12 9 -21 6 -8 -3 -19 0 -24 8 -7 12 -9 12 -9 0 0 -11 -5 -10 -25 3 -28 18
-35 20 -35 7 0 -5 9 -11 20 -14 11 -3 20 -10 20 -16 0 -9 -5 -9 -20 -1 -18 10
-24 7 -21 -12 0 -4 -6 -5 -15 -1 -9 3 -12 9 -7 12 4 3 10 13 11 21 2 8 0 12
-3 8 -4 -4 -17 -2 -29 4 -18 10 -19 9 -9 -3 8 -10 9 -20 3 -29 -8 -12 -10 -12
-10 4 0 14 -3 16 -14 7 -9 -8 -21 -8 -40 -1 -14 5 -26 7 -26 3 0 -4 -7 2 -15
13 -15 19 -15 19 -8 0 5 -16 3 -18 -11 -13 -11 5 -15 3 -10 -4 4 -7 1 -10 -7
-7 -8 3 -13 11 -11 18 2 7 -3 10 -12 7 -8 -3 -17 -1 -20 6 -2 7 -5 4 -5 -5 -1
-21 -12 -23 -29 -6 -9 9 -13 7 -18 -6 -5 -13 -9 -15 -15 -5 -12 20 -41 19 -58
-2 -16 -20 -16 -20 -29 2 -8 11 -9 18 -3 14 6 -3 11 -2 11 3 0 6 -11 9 -25 8
-14 0 -25 -7 -25 -13 0 -7 -4 -13 -9 -13 -6 0 -8 8 -6 18 2 11 -3 19 -11 19
-9 0 -13 -6 -9 -15 4 -10 0 -12 -12 -8 -16 6 -16 6 0 -12 14 -15 14 -19 2 -19
-8 0 -11 5 -8 10 4 6 0 8 -10 4 -9 -3 -23 1 -32 10 -12 12 -19 13 -28 4 -16
-16 -32 -14 -18 3 9 11 9 16 0 22 -8 4 -9 3 -5 -4 4 -7 1 -12 -7 -12 -8 0 -21
-10 -29 -22 -14 -20 -15 -21 -15 -2 0 10 7 25 16 32 13 11 13 12 1 6 -8 -4
-24 -14 -34 -23 -18 -15 -19 -15 -13 4 7 20 7 20 -8 1 -8 -11 -15 -25 -16 -30
0 -6 -5 0 -10 13 l-9 24 -24 -22 c-20 -19 -24 -20 -36 -6 -10 12 -16 13 -28 3
-11 -9 -14 -9 -9 -1 4 6 3 14 -3 18 -13 8 -52 -4 -45 -15 3 -4 -2 -11 -11 -14
-8 -3 -12 -2 -9 4 3 6 -1 10 -9 10 -9 0 -16 8 -16 18 0 14 -2 14 -9 3 -5 -8
-15 -16 -23 -17 -7 -1 -22 -5 -33 -9 -16 -6 -17 -5 -5 4 8 6 13 11 10 12 -3 0
-15 2 -27 5 -15 2 -21 0 -17 -9 3 -8 -2 -14 -11 -14 -9 0 -14 6 -11 13 3 8 0
16 -6 20 -7 4 -8 3 -4 -4 4 -7 1 -12 -9 -12 -9 0 -14 -4 -10 -9 3 -5 1 -12 -5
-16 -5 -3 -10 3 -10 15 0 12 -5 18 -10 15 -6 -4 -7 -12 -3 -18 4 -7 0 -6 -10
2 -20 16 -23 25 -4 15 9 -5 9 -4 0 6 -15 16 -23 10 -26 -18 -1 -16 -5 -19 -19
-11 -10 5 -18 7 -18 4 0 -3 -9 -1 -20 5 -11 6 -19 14 -16 18 2 4 -6 8 -19 8
-18 1 -22 -2 -17 -15 5 -14 3 -14 -10 -3 -10 8 -19 9 -22 3 -3 -5 -15 -7 -26
-4 -17 5 -18 8 -8 22 12 14 11 15 -5 2 -12 -10 -14 -17 -7 -26 8 -9 5 -14 -10
-18 -11 -3 -20 -1 -20 5 0 5 -4 7 -9 3 -5 -3 -12 3 -14 12 -3 13 -5 11 -6 -6
-1 -20 -3 -21 -16 -11 -8 7 -12 16 -10 21 3 4 -4 6 -17 4 -12 -3 -26 1 -31 8
-6 8 -7 5 -4 -9 3 -13 -1 -21 -10 -21 -8 0 -12 6 -8 15 5 13 3 13 -12 1 -15
-12 -16 -12 -10 5 7 17 6 18 -16 3 -24 -15 -51 -9 -70 17 -5 7 -7 3 -5 -8 2
-11 10 -20 20 -22 9 -1 24 -6 34 -12 14 -8 13 -9 -9 -9 -14 0 -35 8 -47 19
-31 29 -60 32 -55 6 4 -21 4 -21 -16 1 -24 26 -36 22 -20 -7 9 -16 7 -19 -14
-18 -13 1 -27 5 -31 9 -4 4 -13 2 -20 -3 -14 -12 -36 -10 -46 5 -14 19 -8 27
8 11 15 -16 34 -21 34 -10 0 3 -6 11 -13 18 -16 16 -45 12 -61 -9 -13 -18 -50
-10 -39 9 3 6 -6 0 -20 -13 -15 -14 -30 -21 -34 -18 -3 4 -2 7 4 7 5 0 15 11
21 25 14 30 7 34 -8 5z m285 -10 c3 -5 1 -10 -4 -10 -6 0 -11 5 -11 10 0 6 2
10 4 10 3 0 8 -4 11 -10z m2048 -10 c3 -12 1 -18 -5 -14 -6 4 -14 0 -19 -7 -7
-11 -9 -11 -9 -1 0 10 19 39 26 42 1 0 4 -9 7 -20z m-1853 0 c0 -5 -5 -10 -11
-10 -5 0 -7 5 -4 10 3 6 8 10 11 10 2 0 4 -4 4 -10z m205 1 c3 -5 2 -12 -3
-15 -5 -3 -9 1 -9 9 0 17 3 19 12 6z m880 -1 c-3 -5 -12 -10 -18 -10 -7 0 -6
4 3 10 19 12 23 12 15 0z m1266 -12 c11 -21 11 -22 -4 -9 -10 7 -17 17 -17 22
0 15 9 10 21 -13z m2389 12 c0 -5 -8 -10 -17 -10 -15 0 -16 2 -3 10 19 12 20
12 20 0z m-1970 -14 c0 -2 -7 -7 -16 -10 -8 -3 -12 -2 -9 4 6 10 25 14 25 6z
m510 0 c0 -2 -7 -7 -16 -10 -8 -3 -12 -2 -9 4 6 10 25 14 25 6z m70 -12 c0 -2
-7 -4 -15 -4 -8 0 -15 4 -15 10 0 5 7 7 15 4 8 -4 15 -8 15 -10z m1840 12 c0
-2 -7 -7 -16 -10 -8 -3 -12 -2 -9 4 6 10 25 14 25 6z m-4938 -1997 c246 -68
415 -257 495 -554 26 -97 27 -108 27 -365 0 -257 -1 -268 -27 -365 -75 -279
-236 -463 -472 -542 -73 -24 -94 -27 -230 -27 -136 0 -157 2 -230 27 -106 35
-170 74 -251 149 -85 80 -153 183 -194 295 -58 160 -65 214 -64 468 0 199 3
243 21 322 81 345 296 565 598 613 85 13 240 3 327 -21z m1498 -738 c162 -407
298 -736 301 -733 3 4 138 337 299 740 l292 732 159 0 159 0 0 -920 0 -921
-122 3 -123 3 0 395 c0 217 3 541 8 720 l7 325 -50 -120 c-27 -66 -160 -390
-293 -720 l-244 -600 -90 -3 c-64 -2 -93 1 -100 10 -5 7 -140 333 -299 725
-158 392 -289 711 -290 710 -1 -1 4 -198 12 -438 8 -239 13 -563 12 -720 l-3
-284 -125 0 -125 0 -3 918 -2 917 162 0 163 0 295 -739z m2345 720 c314 -65
527 -290 597 -631 28 -135 22 -474 -11 -595 -24 -89 -74 -202 -119 -267 -75
-109 -204 -210 -334 -262 -136 -54 -195 -61 -533 -61 l-310 0 -3 918 -2 917
312 0 c266 0 327 -3 403 -19z m1776 3 c212 -39 351 -162 390 -345 6 -28 9 -93
7 -143 -6 -146 -64 -245 -191 -327 l-57 -37 55 -26 c68 -31 153 -110 188 -174
75 -139 76 -347 1 -494 -35 -69 -135 -168 -204 -201 -30 -15 -91 -37 -135 -49
-76 -20 -101 -22 -465 -22 l-385 -1 -3 918 -2 917 359 0 c284 0 376 -3 442
-16z"/>
<path d="M2115 5716 c-155 -38 -279 -167 -333 -346 -50 -163 -56 -521 -13
-685 79 -297 277 -447 540 -407 197 31 318 153 383 387 20 72 22 104 22 325 1
205 -2 258 -18 325 -62 267 -230 417 -466 414 -36 0 -87 -6 -115 -13z"/>
<path d="M5820 5000 l0 -710 159 0 c195 0 286 16 382 66 128 68 210 173 261
334 21 70 23 91 23 315 0 224 -2 245 -23 315 -49 157 -131 265 -248 327 -96
51 -164 63 -371 63 l-183 0 0 -710z"/>
<path d="M7510 5424 l0 -286 233 4 c278 6 302 12 388 97 60 61 79 107 79 199
0 130 -60 216 -175 251 -60 19 -93 21 -296 21 l-229 0 0 -286z"/>
<path d="M7510 4616 l0 -326 228 0 c257 0 315 9 395 63 111 74 154 224 110
381 -13 48 -27 71 -68 112 -81 81 -105 87 -407 92 l-258 4 0 -326z"/>
<path d="M3230 7955 c-7 -9 -10 -18 -6 -22 3 -3 6 -1 6 6 0 6 10 16 23 21 15
6 17 9 6 9 -9 1 -22 -6 -29 -14z"/>
<path d="M3474 7952 c15 -17 22 -19 33 -11 18 15 16 22 -3 15 -9 -4 -24 -1
-33 6 -10 8 -9 5 3 -10z"/>
<path d="M4406 7962 c-3 -5 1 -9 9 -9 8 0 12 4 9 9 -3 4 -7 8 -9 8 -2 0 -6 -4
-9 -8z"/>
<path d="M4986 7953 c-6 -14 -5 -15 5 -6 7 7 10 15 7 18 -3 3 -9 -2 -12 -12z"/>
<path d="M6600 7958 c-13 -8 -12 -9 2 -5 9 3 19 -1 22 -9 7 -19 23 -18 23 1 0
8 -3 13 -5 10 -3 -3 -10 -1 -16 5 -7 5 -17 5 -26 -2z"/>
<path d="M7072 7959 c2 -7 10 -15 17 -17 8 -3 12 1 9 9 -2 7 -10 15 -17 17 -8
3 -12 -1 -9 -9z"/>
<path d="M8350 7970 c-8 -26 -7 -41 2 -32 6 6 8 16 5 24 -3 7 -6 11 -7 8z"/>
<path d="M1577 7947 c2 -4 10 -6 16 -4 7 2 21 -3 32 -12 20 -16 20 -16 2 6
-17 20 -62 29 -50 10z"/>
<path d="M4903 7945 c0 -8 4 -12 9 -9 5 3 6 10 3 15 -9 13 -12 11 -12 -6z"/>
<path d="M6045 7950 c3 -5 8 -10 11 -10 2 0 4 5 4 10 0 6 -5 10 -11 10 -5 0
-7 -4 -4 -10z"/>
<path d="M6863 7945 c0 -8 4 -12 9 -9 4 3 8 9 8 15 0 5 -4 9 -8 9 -5 0 -9 -7
-9 -15z"/>
<path d="M7924 7948 c-5 -7 -3 -8 5 -4 7 5 18 0 26 -10 10 -14 17 -16 25 -8 9
9 8 14 -2 20 -21 14 -46 15 -54 2z"/>
<path d="M8315 7950 c3 -5 8 -10 11 -10 2 0 4 5 4 10 0 6 -5 10 -11 10 -5 0
-7 -4 -4 -10z"/>
<path d="M1760 7940 c0 -5 5 -10 11 -10 5 0 7 5 4 10 -3 6 -8 10 -11 10 -2 0
-4 -4 -4 -10z"/>
<path d="M1878 7943 c7 -3 16 -2 19 1 4 3 -2 6 -13 5 -11 0 -14 -3 -6 -6z"/>
<path d="M2831 7943 c-1 -17 16 -25 25 -12 4 7 3 9 -4 5 -5 -3 -13 0 -15 6 -4
9 -6 10 -6 1z"/>
<path d="M5170 7939 c0 -5 5 -7 10 -4 6 3 10 8 10 11 0 2 -4 4 -10 4 -5 0 -10
-5 -10 -11z"/>
</g>
</svg>
